<?xml version="1.0" encoding="utf-8"?>
<!-- Generator: Adobe Illustrator 24.3.0, SVG Export Plug-In . SVG Version: 6.00 Build 0)  -->
<svg version="1.1" id="a02f2390-8fa7-48a9-96f1-2ec5f63ecbc1"
	 xmlns="http://www.w3.org/2000/svg" xmlns:xlink="http://www.w3.org/1999/xlink" x="0px" y="0px" viewBox="0 0 1150 709.2"
	 style="enable-background:new 0 0 1150 709.2;" xml:space="preserve">
<style type="text/css">
	.st0{opacity:0.18;fill:#F8AD00;enable-background:new    ;}
	.st1{fill:url(#SVGID_1_);}
	.st2{fill:none;}
	.st3{fill:#454B69;}
	.st4{opacity:0.4;enable-background:new    ;}
	.st5{opacity:0.1;enable-background:new    ;}
	.st6{fill:#EFB7B9;}
	.st7{fill:#FFFFFF;}
	.st8{fill:#007BFF;}
	.st9{fill:#EC6D05;}
	.st10{opacity:0.1;}
	.st11{fill:#9C9CA1;}
	.st12{fill:#939498;}
	.st13{fill:#3F3D56;}
	.st14{fill:#F8AD00;}
	.st15{fill:#F08800;}
	.st16{fill:#35435E;}
	.st17{fill:#004483;}
	.st18{fill:#C2BEBC;}
	.st19{fill:#D6D6D6;}
	.st20{fill:#E8E8E8;}
	.st21{fill:#C2C2C2;}
	.st22{fill:#EEA886;}
	.st23{fill:#6069A8;}
	.st24{fill:#202338;}
	.st25{fill:#464240;}
	.st26{fill:#EB4747;}
	.st27{fill:#5F8CC9;}
	.st28{fill:#A77860;}
	.st29{fill:#FFC955;}
	.st30{fill:#5E5853;}
	.st31{fill:#91887F;}
	.st32{fill:#EDDAD3;}
	.st33{fill:#6E6760;}
	.st34{fill:#807066;}
	.st35{fill:#FFCB55;}
	.st36{fill:#CF8C6C;}
	.st37{fill:#3B3F66;}
	.st38{fill:#555C94;}
	.st39{fill:#354C70;}
	.st40{fill:#DEB135;}
	.st41{fill:#F2C344;}
	.st42{fill:#D9D0C4;}
	.st43{fill:#84BDFF;}
	.st44{fill:#EEA987;}
	.st45{fill:#FFD255;}
	.st46{fill:#3C5780;}
	.st47{fill:#16202E;}
	.st48{fill:#C48A6F;}
	.st49{clip-path:url(#SVGID_3_);fill:#96CBFF;}
	.st50{clip-path:url(#SVGID_3_);fill:#95CAFF;}
	.st51{clip-path:url(#SVGID_3_);fill:#94C9FF;}
	.st52{clip-path:url(#SVGID_3_);fill:#93C9FF;}
	.st53{clip-path:url(#SVGID_3_);fill:#92C8FF;}
	.st54{clip-path:url(#SVGID_3_);fill:#91C7FF;}
	.st55{clip-path:url(#SVGID_3_);fill:#90C6FF;}
	.st56{clip-path:url(#SVGID_3_);fill:#8FC6FF;}
	.st57{clip-path:url(#SVGID_3_);fill:#8EC5FF;}
	.st58{clip-path:url(#SVGID_3_);fill:#8DC4FF;}
	.st59{clip-path:url(#SVGID_3_);fill:#8CC3FF;}
	.st60{clip-path:url(#SVGID_3_);fill:#8BC2FF;}
	.st61{clip-path:url(#SVGID_3_);fill:#8AC2FF;}
	.st62{clip-path:url(#SVGID_3_);fill:#89C1FF;}
	.st63{clip-path:url(#SVGID_3_);fill:#88C0FF;}
	.st64{clip-path:url(#SVGID_3_);fill:#87BFFF;}
	.st65{clip-path:url(#SVGID_3_);fill:#86BFFF;}
	.st66{clip-path:url(#SVGID_3_);fill:#85BEFF;}
	.st67{clip-path:url(#SVGID_3_);fill:#84BDFF;}
	.st68{clip-path:url(#SVGID_3_);fill:#83BCFF;}
	.st69{clip-path:url(#SVGID_3_);fill:#82BBFF;}
	.st70{clip-path:url(#SVGID_3_);fill:#81BBFF;}
	.st71{clip-path:url(#SVGID_3_);fill:#80BAFF;}
	.st72{clip-path:url(#SVGID_3_);fill:#7FB9FF;}
	.st73{clip-path:url(#SVGID_3_);fill:#7EB8FF;}
	.st74{clip-path:url(#SVGID_3_);fill:#7DB7FF;}
	.st75{clip-path:url(#SVGID_3_);fill:#7CB7FF;}
	.st76{clip-path:url(#SVGID_3_);fill:#7BB6FF;}
	.st77{clip-path:url(#SVGID_3_);fill:#7AB5FF;}
	.st78{clip-path:url(#SVGID_3_);fill:#79B4FF;}
	.st79{clip-path:url(#SVGID_3_);fill:#78B4FF;}
	.st80{clip-path:url(#SVGID_3_);fill:#77B3FF;}
	.st81{clip-path:url(#SVGID_3_);fill:#76B2FF;}
	.st82{clip-path:url(#SVGID_3_);fill:#74B1FF;}
	.st83{clip-path:url(#SVGID_3_);fill:#73B0FF;}
	.st84{clip-path:url(#SVGID_3_);fill:#72B0FF;}
	.st85{clip-path:url(#SVGID_3_);fill:#71AFFF;}
	.st86{clip-path:url(#SVGID_3_);fill:#70AEFF;}
	.st87{clip-path:url(#SVGID_3_);fill:#6FADFF;}
	.st88{clip-path:url(#SVGID_3_);fill:#6EADFF;}
	.st89{clip-path:url(#SVGID_3_);fill:#6DACFF;}
	.st90{clip-path:url(#SVGID_3_);fill:#6CABFF;}
	.st91{clip-path:url(#SVGID_3_);fill:#6BAAFF;}
	.st92{clip-path:url(#SVGID_3_);fill:#6AA9FF;}
	.st93{clip-path:url(#SVGID_3_);fill:#69A9FF;}
	.st94{clip-path:url(#SVGID_3_);fill:#68A8FF;}
	.st95{clip-path:url(#SVGID_3_);fill:#67A7FF;}
	.st96{clip-path:url(#SVGID_3_);fill:#66A6FF;}
	.st97{clip-path:url(#SVGID_3_);fill:#65A6FF;}
	.st98{clip-path:url(#SVGID_3_);fill:#64A5FF;}
	.st99{clip-path:url(#SVGID_3_);fill:#63A4FF;}
	.st100{clip-path:url(#SVGID_3_);fill:#62A3FF;}
	.st101{clip-path:url(#SVGID_3_);fill:#61A2FF;}
	.st102{clip-path:url(#SVGID_3_);fill:#60A2FF;}
	.st103{clip-path:url(#SVGID_3_);fill:#5FA1FF;}
	.st104{clip-path:url(#SVGID_3_);fill:#5EA0FF;}
	.st105{clip-path:url(#SVGID_3_);fill:#5D9FFF;}
	.st106{clip-path:url(#SVGID_3_);fill:#5C9EFF;}
	.st107{clip-path:url(#SVGID_3_);fill:#5B9EFF;}
	.st108{clip-path:url(#SVGID_3_);fill:#5A9DFF;}
	.st109{clip-path:url(#SVGID_3_);fill:#599CFF;}
	.st110{clip-path:url(#SVGID_3_);fill:#589BFF;}
	.st111{clip-path:url(#SVGID_3_);fill:#579BFF;}
	.st112{clip-path:url(#SVGID_3_);fill:#569AFF;}
	.st113{clip-path:url(#SVGID_3_);fill:#5599FF;}
	.st114{fill:#DB9C7C;}
	.st115{clip-path:url(#SVGID_5_);fill:#96CBFF;}
	.st116{clip-path:url(#SVGID_5_);fill:#95CAFF;}
	.st117{clip-path:url(#SVGID_5_);fill:#94C9FF;}
	.st118{clip-path:url(#SVGID_5_);fill:#93C9FF;}
	.st119{clip-path:url(#SVGID_5_);fill:#92C8FF;}
	.st120{clip-path:url(#SVGID_5_);fill:#91C7FF;}
	.st121{clip-path:url(#SVGID_5_);fill:#90C6FF;}
	.st122{clip-path:url(#SVGID_5_);fill:#8FC6FF;}
	.st123{clip-path:url(#SVGID_5_);fill:#8EC5FF;}
	.st124{clip-path:url(#SVGID_5_);fill:#8DC4FF;}
	.st125{clip-path:url(#SVGID_5_);fill:#8CC3FF;}
	.st126{clip-path:url(#SVGID_5_);fill:#8BC2FF;}
	.st127{clip-path:url(#SVGID_5_);fill:#8AC2FF;}
	.st128{clip-path:url(#SVGID_5_);fill:#89C1FF;}
	.st129{clip-path:url(#SVGID_5_);fill:#88C0FF;}
	.st130{clip-path:url(#SVGID_5_);fill:#87BFFF;}
	.st131{clip-path:url(#SVGID_5_);fill:#86BFFF;}
	.st132{clip-path:url(#SVGID_5_);fill:#85BEFF;}
	.st133{clip-path:url(#SVGID_5_);fill:#84BDFF;}
	.st134{clip-path:url(#SVGID_5_);fill:#83BCFF;}
	.st135{clip-path:url(#SVGID_5_);fill:#82BBFF;}
	.st136{clip-path:url(#SVGID_5_);fill:#81BBFF;}
	.st137{clip-path:url(#SVGID_5_);fill:#80BAFF;}
	.st138{clip-path:url(#SVGID_5_);fill:#7FB9FF;}
	.st139{clip-path:url(#SVGID_5_);fill:#7EB8FF;}
	.st140{clip-path:url(#SVGID_5_);fill:#7DB7FF;}
	.st141{clip-path:url(#SVGID_5_);fill:#7CB7FF;}
	.st142{clip-path:url(#SVGID_5_);fill:#7BB6FF;}
	.st143{clip-path:url(#SVGID_5_);fill:#7AB5FF;}
	.st144{clip-path:url(#SVGID_5_);fill:#79B4FF;}
	.st145{clip-path:url(#SVGID_5_);fill:#78B4FF;}
	.st146{clip-path:url(#SVGID_5_);fill:#77B3FF;}
	.st147{clip-path:url(#SVGID_5_);fill:#76B2FF;}
	.st148{clip-path:url(#SVGID_5_);fill:#74B1FF;}
	.st149{clip-path:url(#SVGID_5_);fill:#73B0FF;}
	.st150{clip-path:url(#SVGID_5_);fill:#72B0FF;}
	.st151{clip-path:url(#SVGID_5_);fill:#71AFFF;}
	.st152{clip-path:url(#SVGID_5_);fill:#70AEFF;}
	.st153{clip-path:url(#SVGID_5_);fill:#6FADFF;}
	.st154{clip-path:url(#SVGID_5_);fill:#6EADFF;}
	.st155{clip-path:url(#SVGID_5_);fill:#6DACFF;}
	.st156{clip-path:url(#SVGID_5_);fill:#6CABFF;}
	.st157{clip-path:url(#SVGID_5_);fill:#6BAAFF;}
	.st158{clip-path:url(#SVGID_5_);fill:#6AA9FF;}
	.st159{clip-path:url(#SVGID_5_);fill:#69A9FF;}
	.st160{clip-path:url(#SVGID_5_);fill:#68A8FF;}
	.st161{clip-path:url(#SVGID_5_);fill:#67A7FF;}
	.st162{clip-path:url(#SVGID_5_);fill:#66A6FF;}
	.st163{clip-path:url(#SVGID_5_);fill:#65A6FF;}
	.st164{clip-path:url(#SVGID_5_);fill:#64A5FF;}
	.st165{clip-path:url(#SVGID_5_);fill:#63A4FF;}
	.st166{clip-path:url(#SVGID_5_);fill:#62A3FF;}
	.st167{clip-path:url(#SVGID_5_);fill:#61A2FF;}
	.st168{clip-path:url(#SVGID_5_);fill:#60A2FF;}
	.st169{clip-path:url(#SVGID_5_);fill:#5FA1FF;}
	.st170{clip-path:url(#SVGID_5_);fill:#5EA0FF;}
	.st171{clip-path:url(#SVGID_5_);fill:#5D9FFF;}
	.st172{clip-path:url(#SVGID_5_);fill:#5C9EFF;}
	.st173{clip-path:url(#SVGID_5_);fill:#5B9EFF;}
	.st174{clip-path:url(#SVGID_5_);fill:#5A9DFF;}
	.st175{clip-path:url(#SVGID_5_);fill:#599CFF;}
	.st176{clip-path:url(#SVGID_5_);fill:#589BFF;}
	.st177{clip-path:url(#SVGID_5_);fill:#579BFF;}
	.st178{clip-path:url(#SVGID_5_);fill:#569AFF;}
	.st179{clip-path:url(#SVGID_5_);fill:#5599FF;}
	.st180{fill:#293B57;}
</style>
<path class="st0" d="M76,482.9c42.5-42.5,45.8-95.1,33-144.4C74.5,205.2,212.5,87.2,362.1,121.8c2.8,0.7,5.7,1.4,8.6,2.1
	c44.9,10.8,90.6,17.9,136.7,21.1c1.3,0.1,2.7,0.2,4.1,0.3l0,0c46.6,3.1,93.4,2.2,139.8-2.5c2.9-0.3,5.8-0.6,8.7-0.9
	c87.7-9.8,155.1-31.3,191.9-45.3c28.7-10.9,59.2-15.9,89.9-14.7c79.7,3.2,200.6,30.3,88.4,180.1c-120.8,161,24.2,336.7,99.7,411
	c9.2,9.1,17.5,16.7,24,22.5c9.1,8.2,15,12.9,16,13.7l0.1,0.1H58.6l-0.1-0.1c-3.6-4.4-6.9-8.9-9.9-13.7c-6.4-10-11.9-20.6-16.4-31.6
	C14.8,620.8,6.3,552.4,76,482.9z"/>
<linearGradient id="SVGID_1_" gradientUnits="userSpaceOnUse" x1="727.2936" y1="470.3" x2="1091.9492" y2="470.3">
	<stop  offset="0" style="stop-color:#96CBFF"/>
	<stop  offset="1" style="stop-color:#5599FF"/>
</linearGradient>
<path class="st1" d="M1044.2,551.2c7.6-12.7,13.3-26.2,17-40.1l30.1-5.8l0.3-33.3l0.3-33.3l-30-6.3c-3.5-14-8.9-27.6-16.3-40.4
	l17.2-25.4l-23.3-23.8l-23.3-23.8l-25.7,16.7c-12.7-7.6-26.2-13.3-40.1-17l-5.8-30.1l-33.3-0.3L878,288l-6.3,30
	c-14,3.5-27.6,8.9-40.4,16.3L805.9,317l-23.8,23.3l-23.8,23.3l16.7,25.7c-7.6,12.7-13.3,26.2-17,40.1l-30.1,5.8l-0.3,33.3l-0.3,33.3
	l30,6.3c3.5,14,8.9,27.6,16.3,40.4L756.4,574l23.3,23.8l23.3,23.8l25.7-16.7c12.7,7.6,26.2,13.3,40.1,17l5.8,30.1l33.3,0.3l33.3,0.3
	l6.3-30c14-3.5,27.6-8.9,40.4-16.3l25.4,17.2l23.8-23.3l23.8-23.3L1044.2,551.2z M851.3,527.5c-31.6-32.2-31.1-83.9,1.1-115.6
	c32.2-31.6,83.9-31.1,115.6,1.1c31.6,32.2,31.1,83.9-1.1,115.6C934.7,560.2,882.9,559.7,851.3,527.5z"/>
<path class="st2" d="M16.2,695.4h1105.3c-3,4.8-6.3,9.3-9.9,13.7H0.1C1.1,708.3,7,703.5,16.2,695.4z"/>
<g>
	<path class="st3" d="M1167.8,663.9c-4.5,11-10,21.6-16.4,31.6c-3,4.8-6.3,9.3-9.9,13.7H30.1c1-0.8,6.9-5.5,16-13.7
		c6.5-5.8,14.8-13.4,24-22.5l117.2-24.3c1.5-0.3,3.1-0.5,4.6-0.5l124.9-0.2h0.1l61.9-0.1h0.1l52.2-0.1h34.2l0,0h35l143.4-0.2h0.2
		H655h19.5h24.4h6.5l24.6-0.3h8.1l71.6-0.1h22.9l0,0h11l0,0l82.8-0.1H951l78.4-0.1l66.2-0.1c1.8,0,3.7,0.2,5.5,0.7L1167.8,663.9z"/>
	<path class="st4" d="M46.2,695.4h1105.3c-3,4.8-6.3,9.3-9.9,13.7H30.1C31.1,708.3,37,703.5,46.2,695.4z"/>
</g>
<g>
	<path class="st3" d="M692.2,384.4l-2.2,0.4l-100.4,19.3c-29.2,5.6-58.7,11.2-88.3,9.1c-21.5-1.6-41.5-7.9-62.1-13.5
		c-11.6-3.2-24-4.4-28-17.5c-5.5-18,3.4-44.7,5.5-62.9c2-17.9,3.2-36.3-0.4-53.9c-0.8-4-1.8-7.9-3.1-11.7
		c-3.6-10.6-9.2-21.6-6.1-32.4c2.4-8.5,9.7-14.6,16.5-20.3c13.4-11,27-23.3,32.3-39.8c2.6-8,3.1-16.6,5.9-24.6
		c5.3-15.1,18.7-26.4,33.5-32.4c14.8-6,31.2-7.3,47.2-7.3c14.1,0,28.3,0.9,42.3,2.8c15.3,2,30.7,5.3,44.1,12.9s24.8,20,27.9,35.1
		c4.4,21.4-7.9,44.2-1.3,65c3.3,10.5,11,19,16.3,28.6c8.8,16.3,10.6,35.4,5,53c-6.4,19.8-22,39.8-14,58.9
		c5.1,12.2,18.1,18.7,27.2,28.4C690.8,382.7,691.5,383.6,692.2,384.4z"/>
	<path class="st5" d="M690,381.9v3l-100.4,19.3c-29.2,5.6-58.7,11.2-88.3,9.1c-21.5-1.6-41.5-7.9-62.1-13.5
		c-11.6-3.2-24-4.4-28-17.5c-5.5-18,3.4-44.7,5.5-62.9c2-17.9,32.8-83.3,29.2-100.9l184,8c1.2,9.8,49.9,58.8,46.8,68.2
		c-6.4,19.8-22,39.8-14,58.9C667.9,365.7,680.9,372.3,690,381.9z"/>
	<path class="st6" d="M502,332.4c1.1,6.2,1.7,13-1.5,18.4c-4.2,7.2-13.4,9.5-21.6,11.2l-28.5,5.7c-1.9,0.4-4,0.8-5.5,2.2
		c-1.7,1.5-2.3,4-2.5,6.2c-1.1,10.3,2.5,20.5,5.8,30.3c6.7,19.9,12.4,40.2,20.9,59.4c8.5,19.2,20.2,37.5,36.9,50.4
		c16.7,12.9,38.7,19.7,59.1,14.7c17.8-4.4,32.4-16.9,44.9-30.2c10.4-11,20.1-23,25.1-37.3c3.5-9.8,4.6-20.2,5.7-30.6
		c1.7-15.9,3.4-31.7,5.1-47.6c0.8-7.4,1.3-15.8-3.5-21.5c-2.1-2.5-5-4.2-7.9-5.7c-10.9-5.8-22.5-10.6-32.6-17.6
		c-10.2-7-19.2-16.6-22.3-28.6c-1.8-7.2-1.5-15-4.7-21.7c-3.5-7.5-11-12.6-19-14.8c-8-2.2-16.4-1.9-24.7-1s-40,3.3-43.4,12.6
		c-1.8,5,5.8,15.7,7.6,20.6C498.3,315.7,500.5,324,502,332.4z"/>
	<path class="st5" d="M502,332.4c1.1,6.2,1.7,13-1.5,18.4c-4.2,7.2-13.4,9.5-21.6,11.2l-28.5,5.7c-1.9,0.4-4,0.8-5.5,2.2
		c-1.7,1.5-2.3,4-2.5,6.2c-1.1,10.3,2.5,20.5,5.8,30.3c6.7,19.9,12.4,40.2,20.9,59.4c8.5,19.2,20.2,37.5,36.9,50.4
		c16.7,12.9,38.7,19.7,59.1,14.7c17.8-4.4,32.4-16.9,44.9-30.2c10.4-11,20.1-23,25.1-37.3c3.5-9.8,4.6-20.2,5.7-30.6
		c1.7-15.9,3.4-31.7,5.1-47.6c0.8-7.4,1.3-15.8-3.5-21.5c-2.1-2.5-5-4.2-7.9-5.7c-10.9-5.8-22.5-10.6-32.6-17.6
		c-10.2-7-19.2-16.6-22.3-28.6c-1.8-7.2-1.5-15-4.7-21.7c-3.5-7.5-11-12.6-19-14.8c-8-2.2-16.4-1.9-24.7-1s-40,3.3-43.4,12.6
		c-1.8,5,5.8,15.7,7.6,20.6C498.3,315.7,500.5,324,502,332.4z"/>
	<path class="st7" d="M570.6,441.2l16.7-35.4c7.8-16.6,15.8-34,15-52.3c-0.2-3.6-0.2-8.2,3-9.8c1.4-0.6,2.9-0.8,4.4-0.6
		c17.6,0.9,35,4.4,51.5,10.4c3.2,1.2,6.5,2.5,8.8,5.1s3.2,6,3.9,9.3c2.6,11.2,4.5,22.5,5.7,33.9c3,28.2,1.5,56.7,0,85l-4.4,86.4
		c0,1.2-0.2,2.4-0.7,3.6c-1.1,2-3.6,2.7-5.8,3c-8.6,1.5-17.4,1.2-26.1,0.8c-61.2-2.3-122.7-5.9-183.5,1.5c0.3-9,0.1-18-0.4-27
		c-2.4-38.9-12.5-76.8-22.4-114.5c-5.8-22-11.4-46-2.1-66.7c1.4-3.3,3.3-6.3,5.8-8.8c4-3.9,9.3-5.9,14.7-7.4
		c9.2-2.5,18.8-3.6,28.3-3.2l63,137.3c2.9,6.3,5.3,12.9,8.1,19.1c2.6-10.7-0.5-23.3,2.6-34.9C560,464,565.3,452.4,570.6,441.2z"/>
	<path class="st8" d="M564,535.6c11.3,0.7,22.2-5.1,30-13.2c7.8-8.1,12.9-18.5,17.2-29c6.2-14.9,11.2-30.3,14.8-46.1
		c3-13.4,5.1-27.3,3.1-40.9c-2.9-18.8-13.5-35.8-15.3-54.7c-0.3-3.3-0.1-7.2,2.5-9.1c1.6-1.2,3.8-1.4,5.8-1.5
		c18.9-1.1,39.6-0.9,54.2,11.1c4.5,3.6,8.1,8.2,12.4,11.9c10.4,9,25,13.6,31.7,25.5c2.3,4.2,3.4,8.9,5,13.3
		c3.8,10.6,10.4,19.9,17,29.1c-6.4,26.9-13.7,53.8-20.1,80.7c-3.7,15.8-7.5,31.6-13.3,46.7c-3.8,9.9-8.7,20-7.5,30.6
		c0.5,4.2,1.9,8.2,3.1,12.2c4.2,14.1,6.2,28.8,5.9,43.5l-285.3,0.7c13.7-19.6,17.7-43.6,16.3-67.5c-0.7-11.4-3.3-22.9-9-32.8
		c-9.1-15.5-25-25.6-40.7-34.3c-11-6-22.8,27.8-34.7,23.9c1.9-13.6,2.8-66,2-79.7c-0.3-4.5-0.7-9.1,0.7-13.4
		c0.9-2.9,2.7-5.5,3.8-8.4c4.7-11.4,0.2-26,7.8-35.7c5.2-6.8,14.4-8.7,21.9-12.8c7.7-4.3,13.6-11,20.3-16.7
		c13.1-11.1,29.1-18.3,46.2-20.6c5,7.8,8,16.8,8.8,26c0.5,5.8,0.1,11.7,1,17.5c1.1,7.8,4.3,15.2,7.6,22.4
		c13.4,30.2,26.8,60.5,43.7,88.8c4.8,8,10,16,16.9,22.2S554.7,536.1,564,535.6z"/>
	<path class="st9" d="M564,535.6c11.3,0.7,22.2-5.1,30-13.2c7.8-8.1,12.9-18.5,17.2-29c6.2-14.9,11.2-30.3,14.8-46.1
		c3-13.4,5.1-27.3,3.1-40.9c-2.9-18.8-13.5-35.8-15.3-54.7c-0.3-3.3-0.1-7.2,2.5-9.1c1.6-1.2,3.8-1.4,5.8-1.5
		c18.9-1.1,39.6-0.9,54.2,11.1c4.5,3.6,8.1,8.2,12.4,11.9c10.4,9,25,13.6,31.7,25.5c2.3,4.2,3.4,8.9,5,13.3
		c3.8,10.6,10.4,19.9,17,29.1c-6.4,26.9-13.7,53.8-20.1,80.7c-3.7,15.8-7.5,31.6-13.3,46.7c-3.8,9.9-8.7,20-7.5,30.6
		c0.5,4.2,1.9,8.2,3.1,12.2c4.2,14.1,6.2,28.8,5.9,43.5l-285.3,0.7c13.7-19.6,17.7-43.6,16.3-67.5c-0.7-11.4-3.3-22.9-9-32.8
		c-9.1-15.5-25-25.6-40.7-34.3c-11-6-22.8,27.8-34.7,23.9c1.9-13.6,2.8-66,2-79.7c-0.3-4.5-0.7-9.1,0.7-13.4
		c0.9-2.9,2.7-5.5,3.8-8.4c4.7-11.4,0.2-26,7.8-35.7c5.2-6.8,14.4-8.7,21.9-12.8c7.7-4.3,13.6-11,20.3-16.7
		c13.1-11.1,29.1-18.3,46.2-20.6c5,7.8,8,16.8,8.8,26c0.5,5.8,0.1,11.7,1,17.5c1.1,7.8,4.3,15.2,7.6,22.4
		c13.4,30.2,26.8,60.5,43.7,88.8c4.8,8,10,16,16.9,22.2S554.7,536.1,564,535.6z"/>
	<circle class="st6" cx="548.9" cy="244.5" r="85.7"/>
	<path class="st3" d="M503.9,358.7c2.3-22.2-6.9-43.9-17.3-63.6c-5-9.4-10.4-18.8-12.9-29.2s-1.8-22.1,4.6-30.6
		c5.5-7.2,14.1-11.1,22.1-15.4c22.6-12,43.3-29.6,53.2-53.2c-5.6,3.1-4.2,12.2,0.8,16.2s11.7,4.8,17.8,6.7
		c22.2,7,35.6,29.2,46.3,49.9c1.8,3.4,3.5,7,3.5,10.8s-1.8,7.2-3.6,10.4c-5.3,9.4-11.7,18.4-14.1,28.9c-2.8,12,0.2,24.6,3.9,36.4
		c4,12.5,9.3,25.1,18.9,34.1s24.5,13.4,36.3,7.6c-11.8-20.3-24-42.9-19.4-65.9c2.2-11,8.2-21,10.7-31.9c4.8-20.9-3.2-42.3-11.1-62.3
		L620,148.2c-3.6-9.1-7.7-18.8-16-23.9c-5.6-3.5-12.4-4.4-18.9-5c-21.1-1.9-43-1.3-62.7,6.6c-35.8,14.3-58.3,49.6-76.1,83.8
		c-5.3,10.3-10.6,21.1-10.4,32.7c0.1,6.3,1.9,12.5,3.3,18.7c5.9,25.2,6.2,51.2,6.5,77.1c0.2,19.8-0.8,38.5-9.5,56.5
		c11.9,2.4,29.1,8.7,40.9,4.1C492.6,392.8,502,374.1,503.9,358.7z"/>
	<g class="st10">
		<path d="M445.8,337.8c0-2.8,0-5.7,0-8.5c-0.3-25.8-0.6-51.9-6.5-77.1c-1.3-4.9-2.3-9.9-3.1-14.9c-0.2,1.7-0.3,3.5-0.3,5.2
			c0.1,6.3,1.9,12.5,3.3,18.7C445.1,286.2,445.5,312.1,445.8,337.8z"/>
		<path d="M654.9,270c1.3-5.8,1.8-11.8,1.3-17.8c-0.2,3-0.6,5.9-1.3,8.8c-2.5,11-8.5,20.9-10.7,31.9c-1,4.9-1.2,9.8-0.8,14.8
			c0.2-1.9,0.4-3.9,0.8-5.8C646.4,290.9,652.3,281,654.9,270z"/>
		<path d="M621.4,245.7c0.5-1.4,0.8-2.9,0.8-4.4c0-3.8-1.8-7.4-3.5-10.8c-10.7-20.7-24-42.9-46.3-49.9c-6.1-1.9-12.8-2.7-17.8-6.7
			c-2.6-2.2-4.2-5.4-4.4-8.8c-10.8,19.9-29.5,35.1-49.6,45.8c-8,4.3-16.7,8.2-22.1,15.4c-5.1,6.8-6.6,15.6-5.7,24.2
			c0.5-5.5,2.5-10.7,5.7-15.2c5.5-7.2,14.1-11.1,22.1-15.4c20.2-10.7,38.8-25.9,49.6-45.8c0.2,3.4,1.8,6.6,4.4,8.8
			c5,4,11.7,4.8,17.8,6.7c22.2,7,35.6,29.2,46.3,49.9C619.7,241.5,620.6,243.6,621.4,245.7z"/>
		<path d="M627.3,351.2c-9.6-9-14.9-21.6-18.9-34.1c-2.4-7-4-14.3-4.8-21.7c-0.9,10.3,1.6,20.8,4.8,30.7c4,12.5,9.3,25.1,18.9,34.1
			c9.6,9,24.5,13.4,36.3,7.6c-1.4-2.4-2.8-4.9-4.2-7.4C648.3,363.5,635.8,359.2,627.3,351.2z"/>
		<path d="M503.9,349.7c-1.9,15.4-11.4,34.1-26.7,40.2c-10.7,4.2-25.9-0.6-37.5-3.3c-1,2.8-2.1,5.6-3.4,8.3
			c11.9,2.4,29.1,8.7,40.9,4.1c15.4-6.1,24.8-24.8,26.7-40.2c0.4-3.9,0.5-7.7,0.2-11.6C504.1,347.9,504,348.8,503.9,349.7z"/>
	</g>
	<path class="st7" d="M625.1,597.6c-15.5-2.5-31.1-7.2-46.5-4c-8.9,1.8-17,6.3-24.4,11.6c4.1,3.3,8.8,6.2,11.4,10.7
		c1.6,3.1,2.8,6.4,3.6,9.9c1.6,6,3.3,12.1,3.5,18.4s-1,12.7-4.7,17.8c19.5,1.9,38.4-2.9,57.4-7.6c2.2-0.4,4.2-1.2,6.1-2.5
		c3-2.4,3.9-6.6,3.9-10.4c0-6.8-1.9-13.5-3.9-20.1C629.2,613.5,627.4,605.4,625.1,597.6z"/>
	<path class="st8" d="M729.4,429c7.7,1,13.6,7.2,18,13.5c12.3,17.7,17.6,39.2,23.5,59.9c7.3,25.8,16,51.2,25.9,76.1
		c2.1,5.8,4.7,11.4,7.8,16.7c2.5,4.1,5.5,8.1,6.6,12.8c2.6,11.3-6.7,22-16.5,28.3c-5.2,3.5-10.9,6.2-16.8,8.1
		c-5.8,1.7-11.9,2.4-17.9,3.1l-55.5,6c-25.5,2.8-51.3,5.6-76.9,2.9c-1.6-5.6,1.5-9.6,1.3-15.4c-0.2-4.2-2-8-3.6-11.9
		c-3-6.8-5-14.1-5.9-21.5c-0.3-2.7-0.4-5.5-1.4-8.1s-3.3-4.8-6-5c15-1.5,26.4-4.3,41.4-5.8c5.6-0.6,11.4-1.2,16.1-4.2
		c5.9-3.7,9.2-10.3,11.8-16.7c6.5-15.9,10.7-33.4,7.3-50.3c-2.8-13.8-10.6-26.7-10.6-40.8c0-8.4,2.9-16.5,6.2-24.2
		c3.6-8.1,8.3-16.4,16.1-20.5S720.5,427.7,729.4,429z"/>
	<path class="st9" d="M729.4,429c7.7,1,13.6,7.2,18,13.5c12.3,17.7,17.6,39.2,23.5,59.9c7.3,25.8,16,51.2,25.9,76.1
		c2.1,5.8,4.7,11.4,7.8,16.7c2.5,4.1,5.5,8.1,6.6,12.8c2.6,11.3-6.7,22-16.5,28.3c-5.2,3.5-10.9,6.2-16.8,8.1
		c-5.8,1.7-11.9,2.4-17.9,3.1l-55.5,6c-25.5,2.8-51.3,5.6-76.9,2.9c-1.6-5.6,1.5-9.6,1.3-15.4c-0.2-4.2-2-8-3.6-11.9
		c-3-6.8-5-14.1-5.9-21.5c-0.3-2.7-0.4-5.5-1.4-8.1s-3.3-4.8-6-5c15-1.5,26.4-4.3,41.4-5.8c5.6-0.6,11.4-1.2,16.1-4.2
		c5.9-3.7,9.2-10.3,11.8-16.7c6.5-15.9,10.7-33.4,7.3-50.3c-2.8-13.8-10.6-26.7-10.6-40.8c0-8.4,2.9-16.5,6.2-24.2
		c3.6-8.1,8.3-16.4,16.1-20.5S720.5,427.7,729.4,429z"/>
	<path class="st6" d="M381.8,416c3.6-8.6,7.3-17.5,7.4-26.9c0.1-10.1-4-19.7-7.1-29.3c-3.9-11.7-6.5-23.9-7.7-36.2
		c-0.3-1.2-0.1-2.4,0.5-3.5c0.8-1.2,2.4-1.4,3.8-1.7c6.9-1.6,12.1-7.2,16.5-12.8c6.7-8.7,12.4-18.1,16.9-28.2
		c3.3-7.4,7.8-16.4,15.9-16.4c-3.3,15.3-7.3,30.4-12.1,45.3c8.5-2.2,16.5-5.3,24.9-7.5c1.7-0.5,3.4-0.8,5.1-0.7
		c5.1,0.5,8.2,7.4,5.2,11.5c4.1,4.8,11,6.1,16.4,9.5c5.4,3.4,9.3,11.5,4.5,15.7c-0.9,0.8-2.1,1.4-2.8,2.4c-2.3,3.6,3.4,7.7,2.9,11.9
		c-0.4,3.5-4.8,5.1-8.2,4.2s-6-3.4-9-5.3s-6.9-3-9.8-1.1c-0.8,9.4-1.6,19-5.7,27.6c-1.5,3.1-3.4,6.1-4.6,9.3
		c-1.1,3.5-1.9,7.2-2.1,10.9l-3.6,33.2C411.7,431.4,396.1,426.2,381.8,416z"/>
	<path class="st7" d="M377.6,445.7l-3.2-21.6c-0.3-1.8-0.5-3.5-0.5-5.3c0-5,2.2-9.8,4.3-14.3c17.6,8.2,36.7,11.2,56.2,11.2
		c2.6,0,5.5-0.2,7.1-2.3c3.3,3.8,3.4,9.9,2,14.8c-1.4,4.8-4.1,9.2-5.9,13.9c-0.9,2.4-1.6,5-3.4,6.8c-2.7,2.9-7.1,3.4-11.1,3.4
		c-4.2,0-8.4-0.4-12.5-1.2C400,449.2,388.2,443.8,377.6,445.7z"/>
	<path class="st9" d="M443.4,444.8c-13.7-1.6-27.3-3.8-40.8-6.6c-6.6-1.4-13.3-2.9-20.1-2.7c-4.4,0.2-9.1,1.1-13-1.1
		c3.8,12.8,4,26.3-0.5,38.9c-2.7,7.5-6.7,14.5-8.7,22.2c-4.1,16.2,1.5,33.8-3.6,49.6c-0.5,2.1-1.6,4-3.1,5.5
		c-1.6,1.4-3.7,2.2-5.1,3.7c-2.1,2.3-2.3,5.7-2.3,8.8l-0.1,27.5c-0.1,17.5,0.2,36.1,9.4,51c10.6,17,32.8,25.8,52.1,20.6
		c5.1-1.3,10-3.7,14.2-6.9c6.7-5.3,11-13.1,15.2-20.6c5-9,10-18.2,11.6-28.3c1.1-7.2,0.5-14.5-0.3-21.7
		c-4.5-40-14.3-79.7-12.2-119.8C436.5,457.8,439,450.7,443.4,444.8z"/>
	<path class="st6" d="M500.7,610.8c-7,0.4-14,0.8-20.9,0c-5-0.6-9.9-1.8-14.8-2.7c-27.4-4.4-55.4,3.3-76.6,21.3
		c-3.8,3.3-7.7,8.3-5.6,12.9c2.3,4.9,9.3,4.8,14.6,3.9c-5.8,2.8-10.9,6.8-15,11.7c-1.5,1.8-2.9,4-2.6,6.4c0.6,5,7.3,5.8,12.3,5.4
		c-1.6,1.7-0.5,4.8,1.5,6s4.6,0.9,7,0.5c5.2-0.9,10.1-2.7,14.8-5.1c-0.9,2.5,0.7,5.3,3,6.5s5.1,1.1,7.7,0.7
		c12.2-2,22.4-10.5,34.3-13.8c19.1-5.3,39,3.2,58.8,3.8c6.2,0.2,12.6-0.4,18.2-3c6.9-3.2,12.5-9.1,19.8-11.2
		c8.1-2.3,17.5,0.3,24.9-3.7c5.4-2.9,0.5-25.3-0.8-29.7c-2.5-7.9-5.1-13.1-13.5-13.9C546.4,604.8,522.2,609.6,500.7,610.8z"/>
	<path class="st7" d="M553.9,604.7c0,0,32.3,27.3,13.7,57.2l36-12.4v-26.1c0-1.2-13.7-19.9-13.7-19.9l-16.2-2.5L553.9,604.7z"/>
</g>
<g>
	<polygon class="st11" points="871.8,669.5 727.7,688.6 720.5,689.5 650,651.9 650,643.1 870.2,619.1 	"/>
	<polygon class="st12" points="690.8,655.9 847,637.5 845.4,666.3 723.8,675.2 	"/>
	<path class="st4" d="M727.7,679.1v9.5l-7.2,1L650,651.9v-8.8l67.3,36C717.3,679.1,726.1,679.9,727.7,679.1z"/>
	<path class="st13" d="M755.4,529L723,679c-1.1,5.2,2.2,10.3,7.3,11.4c1.1,0.2,2.2,0.3,3.3,0.1l204.7-27.1c3.6-0.5,6.7-3,7.8-6.5
		l44.2-133.2c1.7-5-1.1-10.5-6.1-12.1c-1.1-0.4-2.3-0.5-3.5-0.5l-216.5,10.3C759.9,521.6,756.3,524.7,755.4,529z"/>
	<ellipse transform="matrix(0.2913 -0.9566 0.9566 0.2913 36.2545 1256.402)" class="st7" cx="866.1" cy="603.7" rx="15" ry="9.2"/>
</g>
<rect x="-368.6" y="79.1" class="st14" width="163.6" height="88.9"/>
<rect x="-368.6" y="186.2" class="st15" width="163.6" height="88.9"/>
<rect x="-368.6" y="293.2" class="st9" width="163.6" height="88.9"/>
<rect x="-368.6" y="400.2" class="st16" width="163.6" height="88.9"/>
<rect x="-368.6" y="507.3" class="st17" width="163.6" height="88.9"/>
<g>
	<path class="st18" d="M780,16.8l0,4.3c-8.6,0.1-17.2,0.3-25.7,0.7l-0.2-4.3C762.6,17.1,771.3,16.9,780,16.8z M805.8,17.1
		c8.5,0.2,17.2,0.6,25.9,1.2l-0.3,4.3c-8.6-0.5-17.3-0.9-25.7-1.2L805.8,17.1z M728.2,19.2l0.4,4.3c-8.5,0.7-17.1,1.7-25.6,2.7
		l-0.5-4.3C711,20.9,719.7,20,728.2,19.2z M857.5,20.3c8.8,0.9,17.5,2,25.7,3.3l-0.7,4.2c-8.1-1.3-16.7-2.4-25.4-3.3L857.5,20.3z
		 M676.9,25.8l0.7,4.2c-8.3,1.4-16.8,3-25.3,4.7l-0.9-4.2C660,28.8,668.5,27.2,676.9,25.8z M908.7,28.8c8.7,2.1,17.1,4.5,25,7.3
		l-1.4,4.1c-7.8-2.7-16-5.1-24.6-7.1L908.7,28.8z M626.2,36.2l1,4.2c-7.9,1.9-16.1,4-25,6.3l-1.1-4.2
		C610.1,40.2,618.3,38.1,626.2,36.2z M957.7,45.8c8.1,3.9,15.7,8.2,22.7,12.8l-2.4,3.6c-6.8-4.5-14.3-8.7-22.2-12.5L957.7,45.8z
		 M576.2,49.4l1.2,4.1c-3.6,1-7.2,2-10.7,3c-4.8,1.4-9.5,2.7-14.2,4l-1.2-4.1c4.7-1.3,9.4-2.6,14.1-4
		C569,51.4,572.6,50.4,576.2,49.4z M351.9,53c7.9,3.8,15.9,7.1,23.6,9.8l-1.5,4.1c-7.9-2.8-16-6.2-24-10L351.9,53z M526.5,63.1
		l1.1,4.2c-9.3,2.4-17.5,4.3-25.2,5.9l-0.9-4.2C509.1,67.4,517.3,65.5,526.5,63.1z M400,70c8.3,1.9,16.8,3.3,25.2,4.2l-0.4,4.3
		c-8.6-0.9-17.2-2.3-25.7-4.3L400,70z M476.2,73.2l0.5,4.3c-9,1.2-17.5,1.8-25.9,2l-0.1-4.3C459,75,467.3,74.4,476.2,73.2z
		 M1001,74.7c6.4,6,12.3,12.5,17.5,19.4l-3.5,2.6c-5-6.7-10.7-13-17-18.9L1001,74.7z M1032.1,116.5c3.8,7.7,6.9,15.9,9.4,24.4
		l-4.1,1.2c-2.4-8.3-5.5-16.2-9.1-23.7L1032.1,116.5z M1046.9,166.5c1.1,8.3,1.7,17.1,1.8,26l-4.3,0c0-8.7-0.6-17.3-1.7-25.5
		L1046.9,166.5z M1043.1,218l4.3,0.4c-0.9,8.4-2.2,17.1-3.9,25.7l-4.2-0.8C1040.9,234.9,1042.2,226.3,1043.1,218z M1033.2,268.3
		l4.1,1.2c-4.4,15.1-8.3,24.3-8.5,24.7l-4-1.7C1025,292.4,1028.9,283.1,1033.2,268.3z"/>
</g>
<g>
	<g>
		<g>
			<g>
				<polygon class="st19" points="202.1,5.8 310.3,37.2 277.9,47 				"/>
			</g>
		</g>
	</g>
	<g>
		<g>
			<g>
				<polygon class="st20" points="202.1,5.8 242.6,46.4 267.5,41.3 				"/>
			</g>
		</g>
	</g>
	<g>
		<g>
			<g>
				<polygon class="st21" points="285.4,30 284.6,17.5 202.1,5.8 				"/>
			</g>
		</g>
	</g>
</g>
<g>
	<g>
		<path class="st22" d="M829.6,247.3c0,0-8,6.6-8.1,7.5c-0.1,0.9,0.3,1.3,1.1,0.7c0.8-0.6,7.9-6.1,7.9-6.1s-8,9.4-8.2,10.1
			c-0.2,0.4,0.6,1.3,1.1,1c0.4-0.3,8.9-9.1,8.9-9.1s-7.4,8.8-7.5,9.5c0,0.6,0.9,1.2,1.5,0.6c0.6-0.6,8-8.4,8-8.4s-5,6.8-4.7,7.4
			c0.2,0.4,0.8,1.1,2-0.7c1.2-1.8,4.6-5.7,4.6-5.7L829.6,247.3z"/>
	</g>
	<g>
		<g>
			<g>
				<g>
					<polygon class="st23" points="967.5,361.4 969.1,374 970,374 969.7,365 					"/>
				</g>
			</g>
		</g>
		<g>
			<g>
				<g>
					<polygon class="st23" points="906.3,361.4 907.9,374 908.7,374 908.5,365 					"/>
				</g>
			</g>
		</g>
		<g>
			<g>
				<g>
					<g>
						<path class="st23" d="M977.3,359.4c0,0,6.2,10.5,8.8,12.2c3.5,2.3,1.3,4.7-0.4,4.7c-1.7,0-10.3,0.6-12.2-1.5
							c-1.9-2.1-2.8-8.6-4.6-10.3c-1.8-1.7-3.6-8.4,0.9-10C973.8,353,977.3,359.4,977.3,359.4z"/>
					</g>
				</g>
			</g>
			<g>
				<g>
					<g>
						<path class="st24" d="M974.7,354.8c0,0,7.1,12.3,8.3,14.1c1.2,1.8-2.3,1.8-4.5,0.9c-2.2-0.9-7.7-9.7-8.4-11.3
							c-0.9-1.9-0.2-4.1-0.2-4.1L974.7,354.8z"/>
					</g>
				</g>
			</g>
			<g>
				<g>
					<g>
						<path class="st23" d="M916.1,359.4c0,0,6.2,10.5,8.8,12.2c3.5,2.3,1.3,4.7-0.4,4.7c-1.7,0-10.3,0.6-12.2-1.5
							c-1.9-2.1-2.8-8.6-4.6-10.3c-1.8-1.7-3.6-8.5,0.9-10C912.6,353.2,916.1,359.4,916.1,359.4z"/>
					</g>
				</g>
			</g>
			<g>
				<g>
					<g>
						<path class="st24" d="M913.8,354.8c0,0,6.7,12.2,7.9,14.1c1.2,1.8-2.3,1.8-4.5,0.9c-2.2-0.9-7.7-9.7-8.4-11.3
							c-0.9-1.9-0.2-4.1-0.2-4.1L913.8,354.8z"/>
					</g>
				</g>
			</g>
			<g>
				<g>
					<g>
						<path class="st24" d="M888.7,264.1l55.9,25.5c0,0,6.2,2,6.9,9c2.2,21.6,18.4,55.9,18.4,55.9c5.2,2.5,4.8,0.3,4.8,0.3
							c-3.3-10.5-7.3-53.8-8.7-71.2c-0.3-3.7-0.5-6.2-0.5-7c0-0.5-0.6-1.3-1.7-2.1c-7.7-6.2-39.2-19.1-39.2-19.1
							C900.9,254.8,888.7,264.1,888.7,264.1z"/>
					</g>
				</g>
			</g>
			<g>
				<g>
					<g>
						<path class="st24" d="M878.2,275c1.7,15.1,23.3,13.4,23.3,13.4h26.1c0,0-6.9,15.3-9.5,28.2c-2.8,13.7-9.4,37.9-9.4,37.9
							s0.4,0.8,5.2,0.4c0,0,20.5-40.9,28.4-51.2c1.7-2.2,6.5-14.2,7.4-21.4c0.3-2.4,0.1-4.3-0.8-5c-0.9-0.8-3-2.2-5.8-3.9
							c-8.2-5.2-22.4-13.1-30.3-14.9c-10.6-2.4-27.4-6.9-27.4-6.9S876.4,259.9,878.2,275z"/>
					</g>
				</g>
			</g>
			<g>
				<path class="st25" d="M895.9,158.7c0,0-3.9-7.4-2-15.3c1.9-7.9,9.2-15.8,20-12.2c10.7,3.6,19.4,12,13,21.6
					c-6.4,9.7,5.8,14,2.7,18.6c-3.1,4.6-1.9,9.4-0.6,10.5c1.3,1.1,5.6,4.9,5.1,9.4c-0.5,4.5-20.9-13.1-20.9-13.1
					S902.2,155.8,895.9,158.7z"/>
			</g>
			<g>
				<path class="st26" d="M928.7,253.6c0,0-1.6,7.9-43.4-2.1C885.3,251.5,899.3,246.9,928.7,253.6z"/>
			</g>
			<g>
				<g>
					<path class="st27" d="M884.9,253.7c-0.6,1.2-1.3,2.5-1.9,3.7c15.3,0.4,30.5,0.9,45.8,1.3c-2.4-8.1-1.6-19-1.2-27.3
						c0.5-10.1,6.1-17.2,5.5-27.5c3,0.5,3.5,0.6,6.6,1c-4.6-13.2-6.2-19.7-20.6-24.8c-4.7-1.7-7.8-2-12.8-1.6
						c-16.6,1.4-21.7,1.6-29.8,16.6c12.8,2,10.7,6.6,14.6,19.4c1.9,6.2,3.9,13.1,2.9,19.7C892.8,240.8,884.9,247.9,884.9,253.7z"/>
				</g>
			</g>
			<g>
				<g>
					<path class="st22" d="M911.4,183.4c-6.8-1.3-5.4-5.1-5.4-5.1s0.3-2.1,0.4-4.8c0-0.7,0.1-1.4,0-2.2c0-1.1-0.1-2.3-0.2-3.3
						c-0.6-4.6,12.4-1.8,12.4-1.8s-0.7,9.2,1,12C921.5,181,918.2,184.7,911.4,183.4z"/>
				</g>
			</g>
			<g>
				<g>
					<path class="st22" d="M898.4,178.3c0,0,13.7,15.9,18.8,19.5c0,0,5.8-5.3,2.2-19.2C919.5,178.7,912.8,175.4,898.4,178.3z"/>
				</g>
			</g>
			<g>
				<path class="st22" d="M898.8,140.2c0,0-7.1,13.7-0.1,26.8c7.1,13,21-5.7,21.9-7.9c0.9-2.2,5.7-14.6-3.8-18.4
					C907.3,136.9,900.8,136.4,898.8,140.2z"/>
			</g>
			<g>
				<path class="st25" d="M901.2,145c0,0-4.9,6.4-5.5,11.2c0,0-2-9,3.6-17.7c5.5-8.7,19.6-0.4,21.5,3c1.9,3.5,7.4,6.5-1.9,21.4
					C918.8,163,902.2,151.4,901.2,145z"/>
			</g>
			<g>
				<path class="st28" d="M912.6,168.3c0,0-1.2,2.7-6.1,5.2c0-0.7,0.1-1.4,0-2.2C906.5,171.4,909.8,171,912.6,168.3z"/>
			</g>
			<g>
				<path class="st22" d="M840.5,241.4c0,0-3.4,1.5-5,0.8c-1.6-0.7-4.1-0.8-4.9-0.8c-1,0-4.3-1.2-4.3,0.1c0.1,1.3,5.3,2.2,6.4,2.6
					c1.1,0.4-3.2,2.8-3.6,3.8c-0.4,1.1,4.5,8,7.2,6c2.7-2,4.2-5.9,4.8-6.2c0.6-0.3,2.1-1.4,2.1-1.4L840.5,241.4z"/>
			</g>
			<g>
				<g>
					<path class="st29" d="M924.9,288.4h-23.4c0,0-21.6,1.7-23.3-13.4c-1.7-15.1,7.1-23.5,7.1-23.5s11.4,3,21.3,5.4
						c5-1.1,11-1.7,18-1.6c0,0,42.2,13.9,40.9,21.3C965.5,276.7,947.8,267.2,924.9,288.4z"/>
				</g>
			</g>
			<g>
				<polygon class="st30" points="909.6,262.3 954.3,261.6 931.7,273 				"/>
			</g>
			<g>
				<path class="st27" d="M923.5,256.5c0,0-10,3.9-22.4,0.4l-0.6-4.6l25.3,1.4L923.5,256.5z"/>
			</g>
			<g>
				<polygon class="st31" points="931.7,273 909.6,264.5 909.6,262.3 933.5,270.9 				"/>
			</g>
			<g>
				<g>
					<path class="st32" d="M923.3,258.7c-0.1,1.6,1.5,2.8,3.1,2.2l2.6-1.1c0.8-0.3,1.2-1.2,1.1-2c-1.1-6.8-3.4-33,0-37.5
						c1.3-1.7,2-3.1,2.5-4.4c2.2,5.8,5,13.2,6.1,17.2l21.1,28.1l7.1,1.8c-8.8-21.3-15.9-32.5-15.9-32.5c-1.4-3.7-5.3-14.9-8.8-24.9
						c-2.2-6.3-4.2-12.1-5.3-15.3c-0.6-1.6-1.6-2.9-3.1-3.8c-3.3-2-8.7-5-13.6-7.4c0,0,0,0-0.1,0c-0.2-0.1-0.3-0.2-0.5-0.2
						c0,0,0,0,0,0c0,0,0,0,0,0C928.8,192.9,925.2,233,923.3,258.7C923.3,258.6,923.3,258.7,923.3,258.7z"/>
				</g>
				<g>
					<path class="st32" d="M888.5,179.9c-3,0.5-10.5,7.7-14.4,15c-4.5,8.3-9.1,17.8-12.6,20.9c-6.3,5.7-24.1,26-24.9,25.5
						c-0.3-0.2,4.9,6.1,5.5,6.4c0.3,0.1,29.2-24.8,31.9-28.6c2.6-3.6,9.6-18.8,11.7-18.4c0,0,0,0,0,0c0,0,0,0,0,0
						c0.2,0.3,2.7,5.9,5.1,14c0,0.1,0.1,0.3,0.1,0.4c1.7,5.6,1.5,11.8,0.6,18.7c-0.7,5.2-4.6,13.7-6.9,17.8
						c-0.3,0.5-0.2,1.4,0.1,2.2c0,0,0,0,0,0c0.2,0.4,0.4,0.8,0.8,0.9l8.5,3.1l2,0.7c1.4,0.5,2.9,0.3,4.1-0.6
						c0.9-0.7,1.6-1.7,1.7-2.9c1.9-14.5,4.3-29.3,6.2-34.8c8.3-24.4-3.3-42.8-3.3-42.8S891.1,178.9,888.5,179.9z"/>
				</g>
			</g>
			<g>
				<polygon class="st33" points="931.7,273 945,236.8 987.8,237.5 975.1,270.9 				"/>
			</g>
			<g>
				<path class="st34" d="M958.7,252.8c-1.3,2.6-0.9,5.5,0.9,6.4c1.8,0.9,4.3-0.5,5.6-3.1c1.3-2.6,0.9-5.5-0.9-6.4
					C962.5,248.8,960,250.2,958.7,252.8z"/>
			</g>
			<g>
				<path class="st25" d="M913.6,153.9c0,0,2.7,4.3,0.2,7.9c-2.5,3.7,0.6,7.3,1.2,11.2c0.6,3.9-10.6,14.2,1.8,19.5
					c12.4,5.2,16.3-3.4,13.2-8.1c-3.2-4.7-5.4-8.6-5.7-15.3C924,162.2,921.8,151.7,913.6,153.9z"/>
			</g>
			<g>
				<polygon class="st35" points="853.1,136.1 878.9,136.1 878.9,154.9 878.9,158.8 875,154.9 853.1,154.9 				"/>
			</g>
		</g>
	</g>
</g>
<g>
	<g>
		<g>
			<g>
				<path class="st22" d="M241.7,433.7c0,0,1.7-4.2,2-4.8c0.3-0.6,1.9-1.6,3.9-2.7c2-1,5.1-1.5,5.4-1.3c0.3,0.2,0.8,0.2,1.2,1.1
					c0.4,0.9,0.3,1.9,0.3,1.9s1,0.8,0.8,2c0,0,0.9,0.8,0.4,2.1c0,0,0.9,0.8,0.5,1.8c0,0-1.6,1-2.1,1.6c-0.5,0.6-4,2.5-7.7,3.8
					C246.4,439.2,242.5,439.2,241.7,433.7z"/>
			</g>
		</g>
	</g>
	<g>
		<g>
			<g>
				<path class="st36" d="M247.7,431.4c0,0,0,2.3-0.3,2.9c-0.3,0.6,4.6,2.1,4.6,2.1S250.4,431.4,247.7,431.4z"/>
			</g>
		</g>
	</g>
	<g>
		<g>
			<g>
				<polygon class="st37" points="156.5,652 158.7,645.4 167.7,646.9 166.3,652.9 				"/>
			</g>
		</g>
	</g>
	<g>
		<g>
			<g>
				<polygon class="st38" points="230.5,651.3 231,654.9 240.9,653.3 240.4,647.8 				"/>
			</g>
		</g>
	</g>
	<g>
		<g>
			<g>
				<g>
					<path class="st39" d="M209.1,548.9c0,0-1.5,7.9-3.1,16.7c-0.3,1.5-0.6,3.1-0.9,4.6c-1.6,8.5-3.3,16.6-3.9,18.3
						c-1.4,3.8-31.7,59.3-31.7,59.3s-12.4-0.9-12.8-2.5c0,0,25.4-60.2,25.2-62.4c-0.1-2.2,3.1-63.9,3.1-63.9
						S208.5,545.3,209.1,548.9z"/>
				</g>
			</g>
		</g>
	</g>
	<g>
		<g>
			<g>
				<g>
					<path class="st39" d="M222.9,515.5c0,0,11.8,60.6,12.9,65.3c1,4.6,5.5,66.7,5.5,66.7s-2.7,5.5-12.5,3.4c0,0-13.4-66.7-14.5-69
						c-4.4-8.7-25.9-50.7-28-56.7c-2.1-6-1.5-13-1.5-13S200.8,503.3,222.9,515.5z"/>
				</g>
			</g>
		</g>
	</g>
	<g>
		<g>
			<g>
				<g>
					<path class="st40" d="M218,437c0,0,5.2,12.9,6.5,12.6c1.3-0.4,16.2-17.9,16.2-17.9s6.8,8.5,5.9,9.5
						c-1.3,1.4-18.9,30.7-21.3,30.1c-2.4-0.5-13.3-18.4-13.3-18.4S211.4,439.4,218,437z"/>
				</g>
			</g>
		</g>
	</g>
	<g>
		<g>
			<g>
				<g>
					<path class="st41" d="M195.8,412.3c0,0,13.5,10.3,17.2,14.4c3.7,4.1,14,21,13.2,26.1c-2.8,19.5-4.2,36.2-4.3,49.5
						c-0.1,11.6,3.6,14.6,1.3,14.7c-2.6,0.2-36.5,12.5-41.5,14c0,0,3.3-40.9,5-45.6C188.3,480.7,181.3,431.3,195.8,412.3z"/>
				</g>
			</g>
		</g>
	</g>
	<g>
		<g>
			<g>
				<path class="st42" d="M282.5,392.8l3,15.2l3,15.2c0,0-17.3-5.4-36.9-1.5l-1.3-6.7l-1.3-6.8C268.6,404.3,282.5,392.8,282.5,392.8
					z"/>
			</g>
		</g>
	</g>
	<g>
		<g>
			<g>
				<path class="st43" d="M231,654.9c0,0,7.5-1.4,7.7-1.7c0.3-0.2,1.9-3.2,3-2.7c1.2,0.5,1.2,4.1,2.3,4.7c1.1,0.6,10,6.6,11.1,7.7
					c1.1,1.1,7.8,0.4,8.6,2.4c0.8,1.9,0.8,6.4-9.2,5.3c-10.1-1.1-21.5,0.6-23.7-0.6C228.7,668.9,230.3,657.8,231,654.9z"/>
			</g>
		</g>
	</g>
	<g>
		<g>
			<g>
				<path class="st43" d="M156.4,651.9c0,0,7.6-0.2,7.9-0.4c0.3-0.2,2.3-2.8,3.4-2.1c1.1,0.7,0.5,4.2,1.5,5c1,0.8,8.8,8.1,9.7,9.4
					c0.9,1.3,7.7,1.7,8.1,3.7c0.5,2-0.2,6.4-10,3.8c-9.8-2.7-21.4-2.9-23.3-4.4C151.9,665.3,155.3,654.6,156.4,651.9z"/>
			</g>
		</g>
	</g>
	<g>
		<g>
			<g>
				<g>
					<path class="st44" d="M215.4,518.3c0,0,0.9,3.7,2.4,4.5c1.5,0.8-6.8,8.7-6.8,8.7s-3.3-7.3-3.3-8.1
						C207.8,522.7,215.4,518.3,215.4,518.3z"/>
				</g>
			</g>
		</g>
	</g>
	<g>
		<g>
			<g>
				<g>
					<path class="st45" d="M189.8,428.3c0,0-9.7,46-10.5,50.7c-0.8,4.5,28.3,47,28.3,47l9.7-5.7c0,0-23.5-42.7-23.4-44.6
						c0-1.9,11.3-39,11.3-39s4.7-8.1-3.6-12C193.2,420.7,189.8,428.3,189.8,428.3z"/>
				</g>
			</g>
		</g>
	</g>
	<g>
		<g>
			<g>
				<path class="st46" d="M221.1,521.5c0,0,3.1,15.6,3,20.4s-18-7.5-17.1-12.3L221.1,521.5z"/>
			</g>
		</g>
	</g>
	<g>
		<g>
			<g>
				<g>
					<g>
						<path class="st22" d="M195.8,412.3c0,0,24.5,26.8,23,23.8c-5.4-10.6-9.1-12.4-9.1-14.3c0.1-1.5,0.6-5.9,0.8-7.4
							c0.2-2.8,0.4-5.1,0.4-5.1s-12.2-17.1-11.6-11.3C199.8,403.8,195.8,412.3,195.8,412.3z"/>
					</g>
				</g>
			</g>
		</g>
	</g>
	<g>
		<g>
			<g>
				<g>
					<g>
						<path class="st22" d="M219.1,380.8c0,0,3.4,7.9,3.4,9.8c0,1.9-0.4,3.3-0.1,5.4c0.3,2.2,2.1,6.8,1.9,8.1
							c-0.3,1.6-3.5,0.7-4,3.3c-0.4,2.6-2.8,7.4-4,7.5c-3,0.2-14.7-4.5-15.4-6.9c-0.7-2.4-5-16-6.3-18.6
							c-1.3-2.6,20.5-16.7,22.5-12.6C219.1,380.8,219.1,380.8,219.1,380.8z"/>
					</g>
				</g>
			</g>
		</g>
	</g>
	<g>
		<g>
			<g>
				<path class="st47" d="M189.5,386.6c-1.5-6.7,6.2-7.5,6.2-7.5s5-5.9,17.1-5.2c12,0.7,10.2,16.4,10.2,16.4s-8.3-1.2-11.9-0.3
					c0,0-0.4,6.7-0.1,8.4l-4.5-0.4c0,0,0.5-5.9-1.7-6.2c-2.2-0.3-2.9,12.6-7,15.4c0,0,0-0.9-0.5-1.8l0,0l0,0
					c-0.8-1.4-2.1-3.8-3.2-6.6C192.3,394.9,190.3,390.1,189.5,386.6z"/>
			</g>
		</g>
	</g>
	<g>
		<g>
			<g>
				<g>
					<g>
						<path class="st22" d="M207.7,393.2c0,0-1.7-4.5-5.7-1.6c-2.9,2.1,0.1,9.8,2.9,9.8C207.8,401.3,208.9,397.1,207.7,393.2z"/>
					</g>
				</g>
			</g>
		</g>
	</g>
	<g>
		<g>
			<g>
				<path class="st48" d="M200.3,405.8c0,0,0.6,2.4,1.2,3c0.6,0.6,3.7,3,9,4.7l-0.5,4.8C210.1,418.2,199.7,414.2,200.3,405.8z"/>
			</g>
		</g>
	</g>
	<g>
		<g>
			<g>
				<g>
					<defs>
						<path id="SVGID_2_" d="M254.4,438.4l1.7-0.8l-7.8-16.6l-4.4,2.1l6.6,14.1C251.2,438.6,252.8,439.1,254.4,438.4z"/>
					</defs>
					<clipPath id="SVGID_3_">
						<use xlink:href="#SVGID_2_"  style="overflow:visible;"/>
					</clipPath>
					<path class="st49" d="M243.8,420.9v18.2V420.9z"/>
					<rect x="243.8" y="420.9" class="st49" width="0.2" height="18.2"/>
					<rect x="244" y="420.9" class="st50" width="0.2" height="18.2"/>
					<rect x="244.2" y="420.9" class="st51" width="0.2" height="18.2"/>
					<rect x="244.4" y="420.9" class="st52" width="0.2" height="18.2"/>
					<rect x="244.6" y="420.9" class="st53" width="0.2" height="18.2"/>
					<rect x="244.8" y="420.9" class="st54" width="0.2" height="18.2"/>
					<rect x="245" y="420.9" class="st55" width="0.2" height="18.2"/>
					<rect x="245.2" y="420.9" class="st56" width="0.2" height="18.2"/>
					<rect x="245.4" y="420.9" class="st57" width="0.2" height="18.2"/>
					<rect x="245.5" y="420.9" class="st58" width="0.2" height="18.2"/>
					<rect x="245.7" y="420.9" class="st59" width="0.2" height="18.2"/>
					<rect x="245.9" y="420.9" class="st60" width="0.2" height="18.2"/>
					<rect x="246.1" y="420.9" class="st61" width="0.2" height="18.2"/>
					<rect x="246.3" y="420.9" class="st62" width="0.2" height="18.2"/>
					<rect x="246.5" y="420.9" class="st63" width="0.2" height="18.2"/>
					<rect x="246.7" y="420.9" class="st64" width="0.2" height="18.2"/>
					<rect x="246.9" y="420.9" class="st65" width="0.2" height="18.2"/>
					<rect x="247" y="420.9" class="st66" width="0.2" height="18.2"/>
					<rect x="247.2" y="420.9" class="st67" width="0.2" height="18.2"/>
					<rect x="247.4" y="420.9" class="st68" width="0.2" height="18.2"/>
					<rect x="247.6" y="420.9" class="st69" width="0.2" height="18.2"/>
					<rect x="247.8" y="420.9" class="st70" width="0.2" height="18.2"/>
					<rect x="248" y="420.9" class="st71" width="0.2" height="18.2"/>
					<rect x="248.2" y="420.9" class="st72" width="0.2" height="18.2"/>
					<rect x="248.4" y="420.9" class="st73" width="0.2" height="18.2"/>
					<rect x="248.6" y="420.9" class="st74" width="0.2" height="18.2"/>
					<rect x="248.7" y="420.9" class="st75" width="0.2" height="18.2"/>
					<rect x="248.9" y="420.9" class="st76" width="0.2" height="18.2"/>
					<rect x="249.1" y="420.9" class="st77" width="0.2" height="18.2"/>
					<rect x="249.3" y="420.9" class="st78" width="0.2" height="18.2"/>
					<rect x="249.5" y="420.9" class="st79" width="0.2" height="18.2"/>
					<rect x="249.7" y="420.9" class="st80" width="0.2" height="18.2"/>
					<rect x="249.9" y="420.9" class="st81" width="0.2" height="18.2"/>
					<rect x="250.1" y="420.9" class="st82" width="0.2" height="18.2"/>
					<rect x="250.2" y="420.9" class="st83" width="0.2" height="18.2"/>
					<rect x="250.4" y="420.9" class="st84" width="0.2" height="18.2"/>
					<rect x="250.6" y="420.9" class="st85" width="0.2" height="18.2"/>
					<rect x="250.8" y="420.9" class="st86" width="0.2" height="18.2"/>
					<rect x="251" y="420.9" class="st87" width="0.2" height="18.2"/>
					<rect x="251.2" y="420.9" class="st88" width="0.2" height="18.2"/>
					<rect x="251.4" y="420.9" class="st89" width="0.2" height="18.2"/>
					<rect x="251.6" y="420.9" class="st90" width="0.2" height="18.2"/>
					<rect x="251.8" y="420.9" class="st91" width="0.2" height="18.2"/>
					<rect x="251.9" y="420.9" class="st92" width="0.2" height="18.2"/>
					<rect x="252.1" y="420.9" class="st93" width="0.2" height="18.2"/>
					<rect x="252.3" y="420.9" class="st94" width="0.2" height="18.2"/>
					<rect x="252.5" y="420.9" class="st95" width="0.2" height="18.2"/>
					<rect x="252.7" y="420.9" class="st96" width="0.2" height="18.2"/>
					<rect x="252.9" y="420.9" class="st97" width="0.2" height="18.2"/>
					<rect x="253.1" y="420.9" class="st98" width="0.2" height="18.2"/>
					<rect x="253.3" y="420.9" class="st99" width="0.2" height="18.2"/>
					<rect x="253.5" y="420.9" class="st100" width="0.2" height="18.2"/>
					<rect x="253.6" y="420.9" class="st101" width="0.2" height="18.2"/>
					<rect x="253.8" y="420.9" class="st102" width="0.2" height="18.2"/>
					<rect x="254" y="420.9" class="st103" width="0.2" height="18.2"/>
					<rect x="254.2" y="420.9" class="st104" width="0.2" height="18.2"/>
					<rect x="254.4" y="420.9" class="st105" width="0.2" height="18.2"/>
					<rect x="254.6" y="420.9" class="st106" width="0.2" height="18.2"/>
					<rect x="254.8" y="420.9" class="st107" width="0.2" height="18.2"/>
					<rect x="255" y="420.9" class="st108" width="0.2" height="18.2"/>
					<rect x="255.1" y="420.9" class="st109" width="0.2" height="18.2"/>
					<rect x="255.3" y="420.9" class="st110" width="0.2" height="18.2"/>
					<rect x="255.5" y="420.9" class="st111" width="0.2" height="18.2"/>
					<rect x="255.7" y="420.9" class="st112" width="0.2" height="18.2"/>
					<rect x="255.9" y="420.9" class="st113" width="0.2" height="18.2"/>
					<path class="st113" d="M256.1,439.1v-18.2V439.1z"/>
				</g>
			</g>
		</g>
	</g>
	<g>
		<g>
			<g>
				<path class="st114" d="M252.4,425.2c0,0-4.9,2.7-4.6,3.5c0.3,0.8,1,0.9,1,0.9l-1.5,2c0,0-0.2,1.9,1.9,1.6c0,0-0.4,1.8,1.6,1.2
					c0,0,0.2,1.3,1.2,1.2c1-0.1,4.1-1.9,4.1-1.9s0.5-0.7-0.5-1.8c0,0,0.5-1.2-0.4-2.1c0,0,0.3-1.1-0.8-2c0,0,0.5-2.4-1.5-3
					C252.9,424.9,252.6,425,252.4,425.2z"/>
			</g>
		</g>
	</g>
	<g>
		<g>
			<g>
				<g>
					<defs>
						<polygon id="SVGID_4_" points="238.1,424.5 255.4,421.3 252.5,407.1 235.4,411 						"/>
					</defs>
					<clipPath id="SVGID_5_">
						<use xlink:href="#SVGID_4_"  style="overflow:visible;"/>
					</clipPath>
					<path class="st115" d="M235.4,407.1v17.4V407.1z"/>
					<rect x="235.4" y="407.1" class="st115" width="0.3" height="17.4"/>
					<rect x="235.7" y="407.1" class="st116" width="0.3" height="17.4"/>
					<rect x="236" y="407.1" class="st117" width="0.3" height="17.4"/>
					<rect x="236.3" y="407.1" class="st118" width="0.3" height="17.4"/>
					<rect x="236.6" y="407.1" class="st119" width="0.3" height="17.4"/>
					<rect x="236.9" y="407.1" class="st120" width="0.3" height="17.4"/>
					<rect x="237.2" y="407.1" class="st121" width="0.3" height="17.4"/>
					<rect x="237.5" y="407.1" class="st122" width="0.3" height="17.4"/>
					<rect x="237.8" y="407.1" class="st123" width="0.3" height="17.4"/>
					<rect x="238.1" y="407.1" class="st124" width="0.3" height="17.4"/>
					<rect x="238.4" y="407.1" class="st125" width="0.3" height="17.4"/>
					<rect x="238.8" y="407.1" class="st126" width="0.3" height="17.4"/>
					<rect x="239.1" y="407.1" class="st127" width="0.3" height="17.4"/>
					<rect x="239.4" y="407.1" class="st128" width="0.3" height="17.4"/>
					<rect x="239.7" y="407.1" class="st129" width="0.3" height="17.4"/>
					<rect x="240" y="407.1" class="st130" width="0.3" height="17.4"/>
					<rect x="240.3" y="407.1" class="st131" width="0.3" height="17.4"/>
					<rect x="240.6" y="407.1" class="st132" width="0.3" height="17.4"/>
					<rect x="240.9" y="407.1" class="st133" width="0.3" height="17.4"/>
					<rect x="241.2" y="407.1" class="st134" width="0.3" height="17.4"/>
					<rect x="241.5" y="407.1" class="st135" width="0.3" height="17.4"/>
					<rect x="241.8" y="407.1" class="st136" width="0.3" height="17.4"/>
					<rect x="242.1" y="407.1" class="st137" width="0.3" height="17.4"/>
					<rect x="242.4" y="407.1" class="st138" width="0.3" height="17.4"/>
					<rect x="242.8" y="407.1" class="st139" width="0.3" height="17.4"/>
					<rect x="243.1" y="407.1" class="st140" width="0.3" height="17.4"/>
					<rect x="243.4" y="407.1" class="st141" width="0.3" height="17.4"/>
					<rect x="243.7" y="407.1" class="st142" width="0.3" height="17.4"/>
					<rect x="244" y="407.1" class="st143" width="0.3" height="17.4"/>
					<rect x="244.3" y="407.1" class="st144" width="0.3" height="17.4"/>
					<rect x="244.6" y="407.1" class="st145" width="0.3" height="17.4"/>
					<rect x="244.9" y="407.1" class="st146" width="0.3" height="17.4"/>
					<rect x="245.2" y="407.1" class="st147" width="0.3" height="17.4"/>
					<rect x="245.5" y="407.1" class="st148" width="0.3" height="17.4"/>
					<rect x="245.8" y="407.1" class="st149" width="0.3" height="17.4"/>
					<rect x="246.1" y="407.1" class="st150" width="0.3" height="17.4"/>
					<rect x="246.4" y="407.1" class="st151" width="0.3" height="17.4"/>
					<rect x="246.7" y="407.1" class="st152" width="0.3" height="17.4"/>
					<rect x="247.1" y="407.1" class="st153" width="0.3" height="17.4"/>
					<rect x="247.4" y="407.1" class="st154" width="0.3" height="17.4"/>
					<rect x="247.7" y="407.1" class="st155" width="0.3" height="17.4"/>
					<rect x="248" y="407.1" class="st156" width="0.3" height="17.4"/>
					<rect x="248.3" y="407.1" class="st157" width="0.3" height="17.4"/>
					<rect x="248.6" y="407.1" class="st158" width="0.3" height="17.4"/>
					<rect x="248.9" y="407.1" class="st159" width="0.3" height="17.4"/>
					<rect x="249.2" y="407.1" class="st160" width="0.3" height="17.4"/>
					<rect x="249.5" y="407.1" class="st161" width="0.3" height="17.4"/>
					<rect x="249.8" y="407.1" class="st162" width="0.3" height="17.4"/>
					<rect x="250.1" y="407.1" class="st163" width="0.3" height="17.4"/>
					<rect x="250.4" y="407.1" class="st164" width="0.3" height="17.4"/>
					<rect x="250.7" y="407.1" class="st165" width="0.3" height="17.4"/>
					<rect x="251.1" y="407.1" class="st166" width="0.3" height="17.4"/>
					<rect x="251.4" y="407.1" class="st167" width="0.3" height="17.4"/>
					<rect x="251.7" y="407.1" class="st168" width="0.3" height="17.4"/>
					<rect x="252" y="407.1" class="st169" width="0.3" height="17.4"/>
					<rect x="252.3" y="407.1" class="st170" width="0.3" height="17.4"/>
					<rect x="252.6" y="407.1" class="st171" width="0.3" height="17.4"/>
					<rect x="252.9" y="407.1" class="st172" width="0.3" height="17.4"/>
					<rect x="253.2" y="407.1" class="st173" width="0.3" height="17.4"/>
					<rect x="253.5" y="407.1" class="st174" width="0.3" height="17.4"/>
					<rect x="253.8" y="407.1" class="st175" width="0.3" height="17.4"/>
					<rect x="254.1" y="407.1" class="st176" width="0.3" height="17.4"/>
					<rect x="254.4" y="407.1" class="st177" width="0.3" height="17.4"/>
					<rect x="254.7" y="407.1" class="st178" width="0.3" height="17.4"/>
					<rect x="255.1" y="407.1" class="st179" width="0.3" height="17.4"/>
					<path class="st179" d="M255.4,424.5v-17.4V424.5z"/>
				</g>
			</g>
		</g>
	</g>
	<g>
		<g>
			<g>
				<path class="st22" d="M243.8,428.8c0,0,3.8-0.1,6,0.8c0.5,0.2,0.9,0.5,0.9,1c0,0.5-0.8,1.2-2.4,1.3c-1.7,0.1-3.7,1.1-3.7,1.1
					S242.8,432.6,243.8,428.8z"/>
			</g>
		</g>
	</g>
	<g>
		<g>
			<g>
				<path class="st180" d="M206,565.6c-0.3,1.5-0.6,3.1-0.9,4.6l-9.8-26C196.6,546.9,206,565.6,206,565.6z"/>
			</g>
		</g>
	</g>
</g>
</svg>
