<?xml version="1.0" encoding="utf-8"?>
<!-- Generator: Adobe Illustrator 24.3.0, SVG Export Plug-In . SVG Version: 6.00 Build 0)  -->
<svg version="1.1" xmlns="http://www.w3.org/2000/svg" xmlns:xlink="http://www.w3.org/1999/xlink" x="0px" y="0px"
	 viewBox="0 0 800 565.1" style="enable-background:new 0 0 800 565.1;" xml:space="preserve">
<style type="text/css">
	.st0{clip-path:url(#SVGID_2_);fill:url(#SVGID_3_);}
	.st1{opacity:0.1;clip-path:url(#SVGID_2_);}
	.st2{clip-path:url(#SVGID_2_);fill:url(#SVGID_4_);}
	.st3{clip-path:url(#SVGID_2_);fill:url(#SVGID_5_);}
	.st4{clip-path:url(#SVGID_2_);fill:url(#SVGID_6_);}
	.st5{clip-path:url(#SVGID_2_);fill:url(#SVGID_7_);}
</style>
<g id="BG">
	<g>
		<defs>
			<rect id="SVGID_1_" y="0" transform="matrix(-1 -1.224647e-16 1.224647e-16 -1 800 565.1006)" width="800" height="565.1"/>
		</defs>
		<clipPath id="SVGID_2_">
			<use xlink:href="#SVGID_1_"  style="overflow:visible;"/>
		</clipPath>
		
			<linearGradient id="SVGID_3_" gradientUnits="userSpaceOnUse" x1="397.4715" y1="14.0245" x2="402.5779" y2="556.3224" gradientTransform="matrix(-1 0 0 -1 800 565.1006)">
			<stop  offset="0" style="stop-color:#E9E5E7"/>
			<stop  offset="1" style="stop-color:#FFFFFF"/>
		</linearGradient>
		<polygon class="st0" points="0,0 800,0 800,565.1 0,565.1 		"/>
		<g class="st1">
			
				<image style="overflow:visible;" width="1509" height="375" xlink:href="43DCEA5.png"  transform="matrix(0.24 0 0 0.24 456.96 296.8703)">
			</image>
		</g>
		
			<linearGradient id="SVGID_4_" gradientUnits="userSpaceOnUse" x1="-12.8537" y1="96.2293" x2="640.5674" y2="96.2293" gradientTransform="matrix(-1 0 0 -1 800 565.1006)">
			<stop  offset="0" style="stop-color:#F2F2F2"/>
			<stop  offset="0.4781" style="stop-color:#EFEFEF"/>
			<stop  offset="0.7653" style="stop-color:#E7E7E7"/>
			<stop  offset="1" style="stop-color:#D9D9D9"/>
		</linearGradient>
		<path class="st2" d="M812.9,637V378.3c0,0-48.3-104.7-212.4-53.4s-381.6,119.8-441-24.2c0,224.5,0,336.3,0,336.3H812.9z"/>
		<g class="st1">
			
				<image style="overflow:visible;" width="1261" height="890" xlink:href="43DCEA8.png"  transform="matrix(0.24 0 0 0.24 357.36 -24.7297)">
			</image>
		</g>
		
			<linearGradient id="SVGID_5_" gradientUnits="userSpaceOnUse" x1="-29.9695" y1="469.4379" x2="495.5864" y2="469.4379" gradientTransform="matrix(-1 0 0 -1 800 565.1006)">
			<stop  offset="0" style="stop-color:#F2F2F2"/>
			<stop  offset="0.5901" style="stop-color:#F5F5F5"/>
			<stop  offset="0.9446" style="stop-color:#FDFDFD"/>
			<stop  offset="1" style="stop-color:#FFFFFF"/>
		</linearGradient>
		<path class="st3" d="M830-23.5v236.6c0,0-178.6,21.5-264.8-90.6C474.6,4.7,393-20.4,304.4-23.5C478.6-23.5,830-23.5,830-23.5z"/>
		<g class="st1">
			
				<image style="overflow:visible;" width="1111" height="566" xlink:href="43DCEA9.png"  transform="matrix(0.24 0 0 0.24 218.64 333.8303)">
			</image>
		</g>
		<g class="st1">
			
				<image style="overflow:visible;" width="1022" height="470" xlink:href="43DCEAA.png"  transform="matrix(0.24 0 0 0.24 -50.64 111.3503)">
			</image>
		</g>
		
			<linearGradient id="SVGID_6_" gradientUnits="userSpaceOnUse" x1="402.2881" y1="-44.3551" x2="405.352" y2="129.2619" gradientTransform="matrix(-1 0 0 -1 800 565.1006)">
			<stop  offset="0" style="stop-color:#D9D9D9"/>
			<stop  offset="0.2347" style="stop-color:#E7E7E7"/>
			<stop  offset="0.5219" style="stop-color:#EFEFEF"/>
			<stop  offset="1" style="stop-color:#F2F2F2"/>
		</linearGradient>
		<path class="st4" d="M843.1,618.9H-50V123.5c0,0,204-46,263.8,132.9c49.4,147.7,93.2,200.9,182.7,200.4
			c70-0.5,176.7-49.3,275.4-59.4c98.7-10.1,164.1,59.4,171.2,69.5C843.1,539.3,843.1,618.9,843.1,618.9z"/>
		<g class="st1">
			
				<image style="overflow:visible;" width="874" height="1165" xlink:href="43DCEAB.png"  transform="matrix(0.24 0 0 0.24 -28.8 186.9503)">
			</image>
		</g>
		
			<linearGradient id="SVGID_7_" gradientUnits="userSpaceOnUse" x1="2058.5349" y1="-1196.457" x2="2584.0908" y2="-1196.457" gradientTransform="matrix(0 -1 -1 0 -1119.0797 2659.2986)">
			<stop  offset="0" style="stop-color:#F2F2F2"/>
			<stop  offset="0.4781" style="stop-color:#EFEFEF"/>
			<stop  offset="0.7653" style="stop-color:#E7E7E7"/>
			<stop  offset="1" style="stop-color:#D9D9D9"/>
		</linearGradient>
		<path class="st5" d="M-41.7,600.8h236.6c0,0,21.5-178.6-90.6-264.8c-117.8-90.6-143-172.2-146-260.8
			C-41.7,249.4-41.7,600.8-41.7,600.8z"/>
	</g>
</g>
<g id="Text">
</g>
</svg>
