<svg xmlns="http://www.w3.org/2000/svg" viewBox="0 0 338.85 369.19"><path d="M33,275.05a.93.93,0,0,1-.46-.12L11,263.71a2.42,2.42,0,0,1-.05-4.27l21.43-11.73a.41.41,0,0,0,.22-.37.42.42,0,0,0-.22-.37L11.17,235.2A2.42,2.42,0,0,1,11.1,231l29.79-17.9a7.24,7.24,0,0,1,7.27-.09l16.55,9.38a1,1,0,0,1,.38,1.37,1,1,0,0,1-1.36.37l-16.55-9.38a5.23,5.23,0,0,0-5.26.07L12.13,232.72a.41.41,0,0,0-.2.37.4.4,0,0,0,.21.36l21.17,11.78a2.41,2.41,0,0,1,0,4.23L11.87,261.19a.42.42,0,0,0-.22.37.43.43,0,0,0,.23.37l21.6,11.23a1,1,0,0,1-.46,1.89Z" style="fill:#5793ce"/><rect x="29.04" y="268.26" width="5.36" height="11.57" transform="translate(285.24 382.85) rotate(119.83)" style="fill:#5793ce"/><path d="M24.81,272.27A4.19,4.19,0,0,1,26.7,269c1-.61,1.89-.12,1.9,1.09a4.19,4.19,0,0,1-1.89,3.29C25.67,274,24.82,273.48,24.81,272.27Z" style="fill:#5793ce"/><rect x="38.51" y="271.36" width="8.69" height="18.15" transform="translate(307.45 382.75) rotate(119.83)" style="fill:#5793ce"/><path d="M36.42,273.65,33,271.7a6.94,6.94,0,0,0-2.67,4.65l3.4,1.95A7,7,0,0,0,36.42,273.65Z" style="fill:#396caa"/><path d="M31.92,277.7A6.8,6.8,0,0,1,35,272.37c1.69-1,3.07-.19,3.07,1.77a6.77,6.77,0,0,1-3,5.32C33.3,280.45,31.93,279.66,31.92,277.7Z" style="fill:#5793ce"/><ellipse cx="28.87" cy="270.51" rx="1.26" ry="0.73" transform="translate(-0.81 0.09) rotate(-0.17)" style="fill:#d4ecff"/><path d="M100.9,202.26,47.91,172c-1.94-1.12-1.7-3.07.54-4.36l30.49-17.6c2.24-1.3,5.62-1.44,7.56-.32l53,30.22c1.94,1.12,1.7,3.07-.54,4.36L108.46,202C106.22,203.24,102.84,203.38,100.9,202.26Z" style="fill:#b2d3ea"/><path d="M144.22,169.81h0V46.1L95,33.23,86,28c-2.08-1.2-5.71-1.05-8.11.33l-8.45,4.88H43.18L51,152.62a2.35,2.35,0,0,0,1.39,2.17l49.08,37c2.08,1.2,5.71,1,8.11-.34l32.71-18.88C143.63,171.81,144.29,170.77,144.22,169.81Z" style="fill:#396caa"/><path d="M82.21,27.19a9.34,9.34,0,0,0-4.34,1.14l-8.45,4.88H43.18v124a2.36,2.36,0,0,0,1.4,2.17l56.84,32.42a7.47,7.47,0,0,0,3.77.8l.58-124.82Z" style="fill:#d4ecff"/><path d="M101.94,192.08a9.25,9.25,0,0,0,6.49-.07V66.34h-6.49Z" style="fill:#5793ce"/><path d="M101.42,67.83,44.58,35.41c-2.08-1.2-1.82-3.29.58-4.68L77.87,11.85c2.4-1.39,6-1.54,8.11-.34l56.84,32.42c2.08,1.2,1.82,3.29-.58,4.68L109.53,67.49C107.13,68.88,103.5,69,101.42,67.83Z" style="fill:#d4ecff"/><path d="M142.24,46.31,109.53,65.19c-2.4,1.39-6,1.54-8.11.34L44.58,33.11a3,3,0,0,1-1-.92c-.71,1.15-.39,2.4,1,3.22l56.84,32.42c2.08,1.2,5.71,1,8.11-.34l32.71-18.88c1.87-1.08,2.43-2.58,1.62-3.76A4.68,4.68,0,0,1,142.24,46.31Z" style="fill:#fafdff"/><path d="M103,54.69,65.18,32.75c-1-.56-.85-1.54.28-2.19l15.3-8.84a4.26,4.26,0,0,1,3.8-.15L122.4,43.51c1,.56.85,1.54-.27,2.19l-15.3,8.83A4.23,4.23,0,0,1,103,54.69Z" style="fill:#173d7a"/><path d="M82.6,33.74l-2.19-1.27c-.14-.08-.12-.21,0-.3L82.56,31a.62.62,0,0,1,.53,0l2.19,1.27c.13.08.12.21,0,.3l-2.12,1.23A.56.56,0,0,1,82.6,33.74Z" style="fill:#d4ecff"/><path d="M89.93,38l-2.2-1.27c-.13-.07-.12-.21,0-.3l2.12-1.22a.56.56,0,0,1,.52,0l2.2,1.26c.13.08.11.22,0,.31l-2.12,1.22A.57.57,0,0,1,89.93,38Z" style="fill:#d4ecff"/><path d="M97.25,42.16,95.06,40.9c-.14-.08-.12-.22,0-.31l2.11-1.22a.59.59,0,0,1,.53,0l2.19,1.27c.14.07.12.21,0,.3l-2.11,1.22A.59.59,0,0,1,97.25,42.16Z" style="fill:#d4ecff"/><path d="M104.58,46.38l-2.19-1.27c-.14-.08-.12-.21,0-.3l2.12-1.23a.62.62,0,0,1,.53,0l2.19,1.27c.13.08.12.21,0,.3l-2.12,1.22A.6.6,0,0,1,104.58,46.38Z" style="fill:#d4ecff"/><path d="M65.18,32.75l0,0a2.29,2.29,0,0,1,.23-.16l15.3-8.83a4.23,4.23,0,0,1,3.8-.16l37.8,21.91c.9-.64.94-1.52,0-2L84.56,21.57a4.26,4.26,0,0,0-3.8.15l-15.3,8.84C64.33,31.21,64.21,32.19,65.18,32.75Z" style="fill:#5793ce"/><path d="M115.92,92.34,137.44,80a5.26,5.26,0,0,0,2.19-4.19v-7.7c0-1.61-1-2.35-2.19-1.65L115.92,78.8A5.23,5.23,0,0,0,113.73,83v7.7C113.73,92.29,114.71,93,115.92,92.34Z" style="fill:#173d7a"/><path d="M138.5,66.24a2.15,2.15,0,0,1,.55,1.6v7.7a5.26,5.26,0,0,1-2.19,4.19L115.34,92.05a1.62,1.62,0,0,1-1.06.23,1.3,1.3,0,0,0,1.64.06L137.44,80a5.26,5.26,0,0,0,2.19-4.19v-7.7C139.63,67,139.17,66.36,138.5,66.24Z" style="fill:#fff"/><path d="M122.39,84l2-1.14a1.14,1.14,0,0,0,.47-.91V79.82c0-.35-.21-.52-.47-.36l-2,1.14a1.15,1.15,0,0,0-.48.91v2.11C121.91,84,122.13,84.13,122.39,84Z" style="fill:#396caa"/><path d="M129,80.17,131,79a1.15,1.15,0,0,0,.47-.92V76c0-.36-.21-.52-.47-.37l-2,1.14a1.19,1.19,0,0,0-.48.92v2.11C128.51,80.16,128.73,80.32,129,80.17Z" style="fill:#fff"/><path d="M115.92,147.94l21.52-12.32a5.25,5.25,0,0,0,2.19-4.19v-7.69c0-1.62-1-2.36-2.19-1.66L115.92,134.4a5.26,5.26,0,0,0-2.19,4.19v7.7C113.73,147.9,114.71,148.64,115.92,147.94Z" style="fill:#173d7a"/><path d="M138.5,121.85a2.14,2.14,0,0,1,.55,1.6v7.7a5.26,5.26,0,0,1-2.19,4.19l-21.52,12.32a1.62,1.62,0,0,1-1.06.23,1.3,1.3,0,0,0,1.64.05l21.52-12.32a5.25,5.25,0,0,0,2.19-4.19v-7.69C139.63,122.64,139.17,122,138.5,121.85Z" style="fill:#fff"/><path d="M122.39,139.58l2-1.13a1.18,1.18,0,0,0,.47-.92v-2.11c0-.35-.21-.51-.47-.36l-2,1.14a1.15,1.15,0,0,0-.48.92v2.1C121.91,139.58,122.13,139.74,122.39,139.58Z" style="fill:#396caa"/><path d="M129,135.77l2-1.14a1.14,1.14,0,0,0,.47-.91v-2.11c0-.35-.21-.51-.47-.36l-2,1.14a1.15,1.15,0,0,0-.48.91v2.11C128.51,135.76,128.73,135.93,129,135.77Z" style="fill:#fff"/><path d="M115.92,175.75l21.52-12.32a5.26,5.26,0,0,0,2.19-4.19v-7.7c0-1.61-1-2.35-2.19-1.65l-21.52,12.32a5.23,5.23,0,0,0-2.19,4.18v7.7C113.73,175.7,114.71,176.45,115.92,175.75Z" style="fill:#173d7a"/><path d="M138.5,149.65a2.15,2.15,0,0,1,.55,1.6V159a5.26,5.26,0,0,1-2.19,4.19l-21.52,12.32a1.62,1.62,0,0,1-1.06.23,1.3,1.3,0,0,0,1.64.06l21.52-12.32a5.26,5.26,0,0,0,2.19-4.19v-7.7C139.63,150.45,139.17,149.77,138.5,149.65Z" style="fill:#fff"/><path d="M122.39,167.39l2-1.14a1.14,1.14,0,0,0,.47-.91v-2.11c0-.35-.21-.52-.47-.36l-2,1.14a1.15,1.15,0,0,0-.48.91V167C121.91,167.38,122.13,167.54,122.39,167.39Z" style="fill:#396caa"/><path d="M129,163.58l2-1.14a1.15,1.15,0,0,0,.47-.92v-2.1c0-.36-.21-.52-.47-.36l-2,1.13a1.19,1.19,0,0,0-.48.92v2.11C128.51,163.57,128.73,163.73,129,163.58Z" style="fill:#fff"/><path d="M115.92,120.14l21.52-12.32a5.25,5.25,0,0,0,2.19-4.19V95.94c0-1.62-1-2.36-2.19-1.66L115.92,106.6a5.25,5.25,0,0,0-2.19,4.19v7.69C113.73,120.1,114.71,120.84,115.92,120.14Z" style="fill:#173d7a"/><path d="M138.5,94.05a2.14,2.14,0,0,1,.55,1.6v7.69a5.25,5.25,0,0,1-2.19,4.19l-21.52,12.32a1.51,1.51,0,0,1-1.06.23,1.3,1.3,0,0,0,1.64.06l21.52-12.32a5.25,5.25,0,0,0,2.19-4.19V95.94C139.63,94.84,139.17,94.16,138.5,94.05Z" style="fill:#fff"/><path d="M122.39,111.78l2-1.14a1.14,1.14,0,0,0,.47-.91v-2.11c0-.35-.21-.51-.47-.36l-2,1.14a1.15,1.15,0,0,0-.48.91v2.11C121.91,111.77,122.13,111.93,122.39,111.78Z" style="fill:#396caa"/><path d="M129,108l2-1.14a1.14,1.14,0,0,0,.47-.91v-2.11c0-.35-.21-.51-.47-.36l-2,1.14a1.15,1.15,0,0,0-.48.91v2.11C128.51,108,128.73,108.12,129,108Z" style="fill:#fff"/><path d="M97.28,84.46,47.64,55.8a4.82,4.82,0,0,1-2-3.85V42.49c0-1.48.91-2.17,2-1.52L97.28,69.63a4.81,4.81,0,0,1,2,3.84v9.47C99.29,84.42,98.39,85.1,97.28,84.46Z" style="fill:#5793ce"/><path d="M95.86,81.14l-46.8-27a2.43,2.43,0,0,1-1-1.95V45.06c0-.75.46-1.1,1-.77l46.8,27a2.46,2.46,0,0,1,1,2v7.12C96.88,81.12,96.42,81.47,95.86,81.14Z" style="fill:#d4ecff;opacity:0.4"/><path d="M58.81,56.16l-7-4a2.35,2.35,0,0,1-1-1.89h0c0-.73.44-1.06,1-.75l7,4a2.39,2.39,0,0,1,1,1.9h0C59.81,56.14,59.36,56.47,58.81,56.16Z" style="fill:#d4ecff"/><ellipse cx="63.62" cy="57.61" rx="0.93" ry="1.62" transform="translate(-20.28 39.53) rotate(-30)" style="fill:#173d7a"/><path d="M68.8,60.6c0,.73-.51,1-1.14.66a2.53,2.53,0,0,1-1.15-2c0-.73.52-1,1.15-.66A2.52,2.52,0,0,1,68.8,60.6Z" style="fill:#173d7a"/><path d="M72.84,62.93c0,.73-.51,1-1.14.66a2.5,2.5,0,0,1-1.15-2c0-.73.51-1,1.15-.66A2.53,2.53,0,0,1,72.84,62.93Z" style="fill:#d4ecff"/><path d="M76.88,65.26c0,.73-.51,1-1.15.67a2.55,2.55,0,0,1-1.14-2c0-.73.51-1,1.14-.66A2.52,2.52,0,0,1,76.88,65.26Z" style="fill:#173d7a"/><path d="M93.89,77.18l-2.35-1.36a1.51,1.51,0,0,1-.64-1.22V72.12c0-.47.28-.69.64-.49L93.89,73a1.54,1.54,0,0,1,.63,1.22V76.7C94.52,77.17,94.24,77.38,93.89,77.18Z" style="fill:#173d7a"/><path d="M97.28,101.15,47.64,72.49a4.82,4.82,0,0,1-2-3.84V59.18c0-1.48.91-2.16,2-1.52L97.28,86.32a4.82,4.82,0,0,1,2,3.85v9.46C99.29,101.11,98.39,101.79,97.28,101.15Z" style="fill:#5793ce"/><path d="M95.86,97.83l-46.8-27a2.46,2.46,0,0,1-1-1.95V61.75c0-.75.46-1.1,1-.77l46.8,27a2.43,2.43,0,0,1,1,2v7.11C96.88,97.81,96.42,98.16,95.86,97.83Z" style="fill:#d4ecff;opacity:0.4"/><path d="M58.81,72.85l-7-4a2.38,2.38,0,0,1-1-1.9h0c0-.73.44-1.06,1-.75l7,4a2.36,2.36,0,0,1,1,1.89h0C59.81,72.83,59.36,73.17,58.81,72.85Z" style="fill:#d4ecff"/><path d="M64.77,75c0,.73-.52,1-1.15.66a2.52,2.52,0,0,1-1.14-2c0-.73.51-1,1.14-.66A2.54,2.54,0,0,1,64.77,75Z" style="fill:#fff"/><path d="M68.8,77.3c0,.73-.51,1-1.14.66a2.56,2.56,0,0,1-1.15-2c0-.73.52-1,1.15-.66A2.55,2.55,0,0,1,68.8,77.3Z" style="fill:#173d7a"/><path d="M72.84,79.63c0,.73-.51,1-1.14.66a2.54,2.54,0,0,1-1.15-2c0-.72.51-1,1.15-.66A2.55,2.55,0,0,1,72.84,79.63Z" style="fill:#d4ecff"/><ellipse cx="75.73" cy="81.3" rx="0.93" ry="1.62" transform="translate(-30.5 48.76) rotate(-30)" style="fill:#173d7a"/><path d="M93.89,93.87l-2.35-1.36a1.49,1.49,0,0,1-.64-1.21V88.81c0-.47.28-.69.64-.48l2.35,1.36a1.5,1.5,0,0,1,.63,1.21v2.49C94.52,93.86,94.24,94.07,93.89,93.87Z" style="fill:#173d7a"/><path d="M97.28,117.85,47.64,89.18a4.82,4.82,0,0,1-2-3.84V75.87c0-1.48.91-2.16,2-1.52L97.28,103a4.85,4.85,0,0,1,2,3.85v9.47C99.29,117.81,98.39,118.49,97.28,117.85Z" style="fill:#5793ce"/><path d="M95.86,114.53l-46.8-27a2.46,2.46,0,0,1-1-2V78.44c0-.75.46-1.09,1-.77l46.8,27a2.45,2.45,0,0,1,1,2v7.12C96.88,114.51,96.42,114.85,95.86,114.53Z" style="fill:#d4ecff;opacity:0.4"/><path d="M58.81,89.54l-7-4a2.36,2.36,0,0,1-1-1.89h0c0-.73.44-1.07,1-.75l7,4a2.37,2.37,0,0,1,1,1.89h0C59.81,89.52,59.36,89.86,58.81,89.54Z" style="fill:#d4ecff"/><path d="M64.77,91.66c0,.73-.52,1-1.15.66a2.53,2.53,0,0,1-1.14-2c0-.73.51-1,1.14-.67A2.56,2.56,0,0,1,64.77,91.66Z" style="fill:#fff"/><path d="M68.8,94c0,.73-.51,1-1.14.66a2.54,2.54,0,0,1-1.15-2c0-.73.52-1,1.15-.66A2.52,2.52,0,0,1,68.8,94Z" style="fill:#173d7a"/><path d="M72.84,96.32c0,.73-.51,1-1.14.66a2.5,2.5,0,0,1-1.15-2c0-.73.51-1,1.15-.66A2.52,2.52,0,0,1,72.84,96.32Z" style="fill:#d4ecff"/><path d="M76.88,98.65c0,.73-.51,1-1.15.66a2.52,2.52,0,0,1-1.14-2c0-.73.51-1,1.14-.66A2.5,2.5,0,0,1,76.88,98.65Z" style="fill:#173d7a"/><path d="M93.89,110.56l-2.35-1.35A1.52,1.52,0,0,1,90.9,108V105.5c0-.47.28-.68.64-.48l2.35,1.36a1.52,1.52,0,0,1,.63,1.21v2.49C94.52,110.55,94.24,110.77,93.89,110.56Z" style="fill:#173d7a"/><path d="M97.28,134.54,47.64,105.88a4.84,4.84,0,0,1-2-3.85V92.57c0-1.48.91-2.17,2-1.52l49.64,28.66a4.81,4.81,0,0,1,2,3.84V133C99.29,134.5,98.39,135.18,97.28,134.54Z" style="fill:#5793ce"/><path d="M95.86,131.22l-46.8-27a2.45,2.45,0,0,1-1-2V95.14c0-.76.46-1.1,1-.78l46.8,27a2.46,2.46,0,0,1,1,2v7.12C96.88,131.2,96.42,131.55,95.86,131.22Z" style="fill:#d4ecff;opacity:0.4"/><path d="M58.81,106.24l-7-4a2.35,2.35,0,0,1-1-1.89h0c0-.73.44-1.07,1-.75l7,4a2.39,2.39,0,0,1,1,1.9h0C59.81,106.22,59.36,106.55,58.81,106.24Z" style="fill:#d4ecff"/><path d="M64.77,108.35c0,.73-.52,1-1.15.66a2.52,2.52,0,0,1-1.14-2c0-.73.51-1,1.14-.66A2.53,2.53,0,0,1,64.77,108.35Z" style="fill:#173d7a"/><ellipse cx="67.66" cy="110.02" rx="0.93" ry="1.62" transform="translate(-45.95 48.57) rotate(-30)" style="fill:#173d7a"/><path d="M72.84,113c0,.73-.51,1-1.14.66a2.5,2.5,0,0,1-1.15-2c0-.73.51-1,1.15-.66A2.53,2.53,0,0,1,72.84,113Z" style="fill:#d4ecff"/><path d="M76.88,115.34c0,.73-.51,1-1.15.67a2.55,2.55,0,0,1-1.14-2c0-.73.51-1,1.14-.66A2.52,2.52,0,0,1,76.88,115.34Z" style="fill:#173d7a"/><path d="M93.89,127.26l-2.35-1.36a1.51,1.51,0,0,1-.64-1.22V122.2c0-.47.28-.69.64-.49l2.35,1.36a1.54,1.54,0,0,1,.63,1.22v2.49C94.52,127.24,94.24,127.46,93.89,127.26Z" style="fill:#d4ecff"/><path d="M97.28,151.23,47.64,122.57a4.82,4.82,0,0,1-2-3.84v-9.47c0-1.48.91-2.16,2-1.52L97.28,136.4a4.82,4.82,0,0,1,2,3.85v9.46C99.29,151.19,98.39,151.87,97.28,151.23Z" style="fill:#5793ce"/><path d="M95.86,147.91l-46.8-27a2.46,2.46,0,0,1-1-2v-7.12c0-.75.46-1.1,1-.77l46.8,27a2.47,2.47,0,0,1,1,2v7.11C96.88,147.89,96.42,148.24,95.86,147.91Z" style="fill:#d4ecff;opacity:0.4"/><path d="M58.81,122.93l-7-4a2.38,2.38,0,0,1-1-1.9h0c0-.73.44-1.06,1-.75l7,4a2.36,2.36,0,0,1,1,1.89h0C59.81,122.91,59.36,123.25,58.81,122.93Z" style="fill:#d4ecff"/><path d="M64.77,125c0,.73-.52,1-1.15.66a2.52,2.52,0,0,1-1.14-2c0-.73.51-1,1.14-.66A2.54,2.54,0,0,1,64.77,125Z" style="fill:#173d7a"/><path d="M68.8,127.37c0,.73-.51,1-1.14.67a2.56,2.56,0,0,1-1.15-2c0-.73.52-1,1.15-.66A2.53,2.53,0,0,1,68.8,127.37Z" style="fill:#fff"/><path d="M72.84,129.71c0,.73-.51,1-1.14.66a2.54,2.54,0,0,1-1.15-2c0-.73.51-1,1.15-.66A2.55,2.55,0,0,1,72.84,129.71Z" style="fill:#d4ecff"/><path d="M76.88,132c0,.73-.51,1-1.15.66a2.53,2.53,0,0,1-1.14-2c0-.73.51-1,1.14-.67A2.54,2.54,0,0,1,76.88,132Z" style="fill:#fff"/><path d="M93.89,144l-2.35-1.36a1.49,1.49,0,0,1-.64-1.21v-2.49c0-.47.28-.69.64-.48l2.35,1.36a1.5,1.5,0,0,1,.63,1.21v2.49C94.52,143.94,94.24,144.15,93.89,144Z" style="fill:#d4ecff"/><path d="M97.28,167.93,47.64,139.26a4.82,4.82,0,0,1-2-3.84V126c0-1.48.91-2.16,2-1.52l49.64,28.66a4.85,4.85,0,0,1,2,3.85v9.47C99.29,167.89,98.39,168.57,97.28,167.93Z" style="fill:#5793ce"/><path d="M95.86,164.61l-46.8-27a2.46,2.46,0,0,1-1-2v-7.12c0-.75.46-1.09,1-.77l46.8,27a2.45,2.45,0,0,1,1,1.95v7.12C96.88,164.59,96.42,164.93,95.86,164.61Z" style="fill:#d4ecff;opacity:0.4"/><path d="M58.81,139.62l-7-4a2.36,2.36,0,0,1-1-1.89h0c0-.73.44-1.07,1-.75l7,4a2.37,2.37,0,0,1,1,1.89h0C59.81,139.6,59.36,139.94,58.81,139.62Z" style="fill:#d4ecff"/><ellipse cx="63.62" cy="141.08" rx="0.93" ry="1.62" transform="translate(-62.02 50.72) rotate(-30)" style="fill:#173d7a"/><path d="M68.8,144.07c0,.73-.51,1-1.14.66a2.54,2.54,0,0,1-1.15-2c0-.73.52-1,1.15-.66A2.52,2.52,0,0,1,68.8,144.07Z" style="fill:#173d7a"/><path d="M72.84,146.4c0,.73-.51,1-1.14.66a2.5,2.5,0,0,1-1.15-2c0-.73.51-1,1.15-.66A2.52,2.52,0,0,1,72.84,146.4Z" style="fill:#d4ecff"/><path d="M76.88,148.73c0,.73-.51,1-1.15.66a2.52,2.52,0,0,1-1.14-2c0-.73.51-1,1.14-.66A2.5,2.5,0,0,1,76.88,148.73Z" style="fill:#173d7a"/><path d="M93.89,160.64l-2.35-1.35a1.52,1.52,0,0,1-.64-1.22v-2.49c0-.47.28-.68.64-.48l2.35,1.36a1.52,1.52,0,0,1,.63,1.21v2.49C94.52,160.63,94.24,160.85,93.89,160.64Z" style="fill:#173d7a"/><path d="M97.28,184.62,47.64,156a4.84,4.84,0,0,1-2-3.85v-9.46c0-1.49.91-2.17,2-1.52l49.64,28.66a4.81,4.81,0,0,1,2,3.84v9.47C99.29,184.58,98.39,185.26,97.28,184.62Z" style="fill:#5793ce"/><path d="M95.86,181.3l-46.8-27a2.45,2.45,0,0,1-1-1.95v-7.11c0-.76.46-1.1,1-.78l46.8,27a2.46,2.46,0,0,1,1,1.95v7.12C96.88,181.28,96.42,181.63,95.86,181.3Z" style="fill:#d4ecff;opacity:0.4"/><path d="M58.81,156.32l-7-4a2.35,2.35,0,0,1-1-1.89h0c0-.73.44-1.07,1-.75l7,4a2.39,2.39,0,0,1,1,1.9h0C59.81,156.3,59.36,156.63,58.81,156.32Z" style="fill:#d4ecff"/><path d="M66,159.33c0,1.38-1,1.94-2.16,1.25a4.78,4.78,0,0,1-2.16-3.74c0-1.38,1-1.94,2.16-1.25A4.78,4.78,0,0,1,66,159.33Z" style="fill:#fff"/><path d="M74.4,164.23c0,.73-.51,1-1.14.66a2.53,2.53,0,0,1-1.14-2c0-.73.51-1,1.14-.67A2.55,2.55,0,0,1,74.4,164.23Z" style="fill:#173d7a"/><path d="M78.44,166.56c0,.73-.51,1-1.14.66a2.54,2.54,0,0,1-1.15-2c0-.73.52-1,1.15-.66A2.52,2.52,0,0,1,78.44,166.56Z" style="fill:#d4ecff"/><path d="M82.48,168.89c0,.73-.51,1-1.14.66a2.5,2.5,0,0,1-1.15-2c0-.73.51-1,1.15-.66A2.52,2.52,0,0,1,82.48,168.89Z" style="fill:#173d7a"/><path d="M93.89,177.34,91.54,176a1.51,1.51,0,0,1-.64-1.22v-2.49c0-.46.28-.68.64-.48l2.35,1.36a1.52,1.52,0,0,1,.63,1.22v2.49C94.52,177.32,94.24,177.54,93.89,177.34Z" style="fill:#d4ecff"/><path d="M94,226.54a1,1,0,0,1-.5-.14L37.06,194.33a2.18,2.18,0,0,1,0-3.78l24.21-14.29a2.85,2.85,0,0,0,1.38-2.43V158.09a1,1,0,0,1,2,0v15.74A4.84,4.84,0,0,1,62.25,178L38,192.27a.17.17,0,0,0-.09.16.16.16,0,0,0,.1.16l56.43,32.08a1,1,0,0,1,.38,1.36A1,1,0,0,1,94,226.54Z" style="fill:#5793ce"/><rect x="76.87" y="211.65" width="5.36" height="11.57" transform="translate(307.75 256.58) rotate(119.83)" style="fill:#5793ce"/><path d="M72.64,215.65a4.18,4.18,0,0,1,1.89-3.28c1-.61,1.89-.12,1.9,1.08a4.21,4.21,0,0,1-1.89,3.29C73.49,217.35,72.64,216.86,72.64,215.65Z" style="fill:#5793ce"/><rect x="86.34" y="214.74" width="8.69" height="18.15" transform="translate(329.96 256.48) rotate(119.83)" style="fill:#5793ce"/><path d="M84.25,217l-3.39-1.95a6.94,6.94,0,0,0-2.67,4.65l3.4,1.95A7,7,0,0,0,84.25,217Z" style="fill:#396caa"/><path d="M79.75,221.09a6.76,6.76,0,0,1,3.06-5.33c1.69-1,3.07-.2,3.07,1.76a6.77,6.77,0,0,1-3,5.33C81.13,223.84,79.76,223.05,79.75,221.09Z" style="fill:#5793ce"/><path d="M75.81,214.41c-.5-.28-.5-.74,0-1a2,2,0,0,1,1.78,0,.54.54,0,0,1,0,1A2,2,0,0,1,75.81,214.41Z" style="fill:#d4ecff"/><rect x="64.67" y="219.02" width="5.36" height="11.57" transform="translate(295.87 278.21) rotate(119.83)" style="fill:#5793ce"/><path d="M60.44,223a4.18,4.18,0,0,1,1.88-3.29c1-.61,1.9-.12,1.9,1.09a4.18,4.18,0,0,1-1.88,3.29C61.29,224.73,60.44,224.24,60.44,223Z" style="fill:#5793ce"/><rect x="74.14" y="222.12" width="8.69" height="18.15" transform="translate(318.08 278.11) rotate(119.83)" style="fill:#5793ce"/><path d="M72.05,224.41l-3.4-1.94A6.93,6.93,0,0,0,66,227.12l3.4,1.94A6.89,6.89,0,0,0,72.05,224.41Z" style="fill:#396caa"/><path d="M67.55,228.46a6.79,6.79,0,0,1,3-5.33c1.7-1,3.07-.19,3.08,1.77a6.8,6.8,0,0,1-3.06,5.33C68.93,231.21,67.55,230.42,67.55,228.46Z" style="fill:#5793ce"/><path d="M63.6,221.79c-.49-.28-.49-.74,0-1a2,2,0,0,1,1.78,0,.54.54,0,0,1,0,1A2,2,0,0,1,63.6,221.79Z" style="fill:#d4ecff"/><path d="M266.06,136.71l-.22,0a1,1,0,0,1-.75-1.2l9.75-42.35a1,1,0,0,1,2,.45L267,135.94A1,1,0,0,1,266.06,136.71Z" style="fill:#5793ce"/><path d="M253.1,133.72a.82.82,0,0,1-.22,0,1,1,0,0,1-.75-1.2l9.75-42.34a1,1,0,1,1,1.95.45L254.07,133A1,1,0,0,1,253.1,133.72Z" style="fill:#5793ce"/><path d="M240.14,130.74a.91.91,0,0,1-.23,0,1,1,0,0,1-.75-1.2l9.75-42.34a1,1,0,1,1,2,.45L241.11,130A1,1,0,0,1,240.14,130.74Z" style="fill:#5793ce"/><rect x="243.58" y="97.76" width="5.36" height="11.57" transform="translate(30.13 -53.46) rotate(13.19)" style="fill:#5793ce"/><path d="M246.53,110.68a4.18,4.18,0,0,1-3.69-.87,1.16,1.16,0,0,1,.5-2.13,4.18,4.18,0,0,1,3.69.87A1.15,1.15,0,0,1,246.53,110.68Z" style="fill:#5793ce"/><rect x="244.84" y="81.98" width="8.69" height="18.15" transform="translate(27.35 -54.46) rotate(13.19)" style="fill:#5793ce"/><path d="M244.53,99.16l-.89,3.81a6.93,6.93,0,0,0,5.22,1.22l.89-3.81A6.92,6.92,0,0,0,244.53,99.16Z" style="fill:#396caa"/><path d="M249.7,102.31a6.78,6.78,0,0,1-6-1.4c-1.43-1.34-1.06-2.89.81-3.45a6.78,6.78,0,0,1,6,1.4C251.94,100.2,251.58,101.74,249.7,102.31Z" style="fill:#5793ce"/><path d="M244.44,108a.55.55,0,0,1-1,.3,2,2,0,0,1-.51-1.71c.13-.55.57-.68,1-.29A2,2,0,0,1,244.44,108Z" style="fill:#d4ecff"/><rect x="255.6" y="104.92" width="5.36" height="11.57" transform="translate(32.08 -56.02) rotate(13.19)" style="fill:#5793ce"/><path d="M258.55,117.84a4.18,4.18,0,0,1-3.69-.87,1.16,1.16,0,0,1,.5-2.13,4.2,4.2,0,0,1,3.69.86A1.16,1.16,0,0,1,258.55,117.84Z" style="fill:#5793ce"/><rect x="256.86" y="89.13" width="8.69" height="18.15" transform="translate(29.31 -57.02) rotate(13.19)" style="fill:#5793ce"/><path d="M256.55,106.31l-.89,3.82a6.94,6.94,0,0,0,5.22,1.22l.89-3.81A6.92,6.92,0,0,0,256.55,106.31Z" style="fill:#396caa"/><path d="M261.72,109.47a6.78,6.78,0,0,1-6-1.4c-1.43-1.34-1.06-2.89.81-3.46a6.78,6.78,0,0,1,6,1.41C264,107.36,263.6,108.9,261.72,109.47Z" style="fill:#5793ce"/><path d="M256.46,115.16c-.13.55-.57.68-1,.29a2,2,0,0,1-.51-1.7c.13-.55.57-.68,1-.29A1.94,1.94,0,0,1,256.46,115.16Z" style="fill:#d4ecff"/><rect x="267.75" y="112.02" width="5.36" height="11.57" transform="translate(34.02 -58.6) rotate(13.19)" style="fill:#5793ce"/><path d="M270.71,124.94a4.18,4.18,0,0,1-3.69-.87,1.15,1.15,0,0,1,.5-2.13,4.18,4.18,0,0,1,3.69.87A1.15,1.15,0,0,1,270.71,124.94Z" style="fill:#5793ce"/><rect x="269.02" y="96.24" width="8.69" height="18.15" transform="translate(31.25 -59.61) rotate(13.19)" style="fill:#5793ce"/><path d="M268.71,113.42l-.89,3.81a6.92,6.92,0,0,0,5.22,1.22l.89-3.81A6.94,6.94,0,0,0,268.71,113.42Z" style="fill:#396caa"/><path d="M273.88,116.57a6.77,6.77,0,0,1-6-1.4c-1.43-1.34-1.07-2.89.81-3.45a6.78,6.78,0,0,1,6,1.4C276.12,114.46,275.75,116,273.88,116.57Z" style="fill:#5793ce"/><path d="M268.61,122.26c-.13.55-.57.69-1,.3a2,2,0,0,1-.52-1.71c.13-.55.57-.68,1-.29A2,2,0,0,1,268.61,122.26Z" style="fill:#d4ecff"/><path d="M186.5,323.34l-116.15-67c-3.28-1.9-2.87-5.21.92-7.4l79.09-45.65c3.79-2.19,9.53-2.42,12.82-.53l116.14,67.06c3.28,1.89,2.87,5.21-.92,7.4l-79.09,45.64C195.52,325,189.78,325.24,186.5,323.34Z" style="fill:#b2d3ea"/><path d="M306.52,151l-116.14-67a4.72,4.72,0,0,0-3.94-.49h0l-.21.08-.05,0L182,85.14,185.76,87l-.06.21L166.79,173.3c-.95,4.31.94,9.34,4.23,11.24L284.37,250l-.41,4.8,4.59-1.78a6.45,6.45,0,0,0,3.29-4.67l18.91-86.11C311.7,157.91,309.81,152.88,306.52,151Z" style="fill:#173d7a"/><path d="M306.52,151l-116.14-67a4.72,4.72,0,0,0-3.94-.49h0l-.21.08-.05,0L182,85.14,185.76,87l-.06.21-12.46,56.75,56.82,44.27,80.13-32.6A9,9,0,0,0,306.52,151Z" style="fill:#396caa"/><path d="M302.14,164.22l8.84-3.77a11.07,11.07,0,0,0-3.58-8.85l-14,5.89Z" style="fill:#274f89"/><path d="M279.93,254.33,163.79,187.27c-3.29-1.9-5.18-6.93-4.24-11.24l18.92-86.11c.95-4.31,4.38-6.26,7.66-4.37l116.15,67.06c3.28,1.89,5.18,6.93,4.23,11.23L287.59,250C286.65,254.27,283.22,256.22,279.93,254.33Z" style="fill:#d4ecff"/><path d="M277.41,247.92l-109.23-63c-3-1.74-4.74-6.34-3.87-10.29l17.31-78.8c.87-3.94,4-5.73,7-4l109.23,63c3,1.74,4.74,6.34,3.88,10.28l-17.32,78.8C283.56,247.87,280.42,249.66,277.41,247.92Z" style="fill:#fff"/><path d="M277.41,247.92l-109.23-63c-3-1.74-4.74-6.34-3.87-10.29l17.31-78.8c.87-3.94,4-5.73,7-4l109.23,63c3,1.74,4.74,6.34,3.88,10.28l-17.32,78.8C283.56,247.87,280.42,249.66,277.41,247.92Z" style="fill:#fff"/><path d="M281.53,257.25l-15.87-2.1L163.18,196c-3.29-1.9-9-1.66-12.82.53L77.74,238.42l-9.6-1.26v5.44h0a3.75,3.75,0,0,0,2.2,3.37L186.5,313c3.28,1.9,9,1.66,12.81-.53l79.09-45.64c2.13-1.23,3.2-2.82,3.13-4.31h0Z" style="fill:#173d7a"/><path d="M204.53,219.86l-7.28-4.21h-80L77.74,238.42l-9.6-1.26v5.44h0a3.75,3.75,0,0,0,2.2,3.37L186.5,313a11.86,11.86,0,0,0,6.61,1.24Z" style="fill:#396caa"/><path d="M72.4,237.72l-4.26-.56v5.44h0a3.75,3.75,0,0,0,2.2,3.37l2.05,1.18Z" style="fill:#5793ce"/><path d="M187.67,313.57a14.88,14.88,0,0,0,10.89-.68V300.74H187.67Z" style="fill:#274f89"/><path d="M186.5,307.58l-116.15-67c-3.28-1.9-2.87-5.21.92-7.4l79.09-45.65c3.79-2.19,9.53-2.42,12.82-.53L279.32,254c3.28,1.89,2.87,5.21-.92,7.4l-79.09,45.64C195.52,309.24,189.78,309.48,186.5,307.58Z" style="fill:#d4ecff"/><path d="M278.4,259.42l-79.09,45.64c-3.79,2.19-9.53,2.43-12.81.53l-116.15-67a4.33,4.33,0,0,1-2-2.24c-.51,1.56.14,3.13,2,4.23l116.15,67c3.28,1.9,9,1.66,12.81-.53l79.09-45.64c2.55-1.47,3.56-3.45,3-5.17A6.15,6.15,0,0,1,278.4,259.42Z" style="fill:#fff"/><path d="M119.75,218.33l-5.25-3c-.43-.25-.37-.67.11-1l6.21-3.58a1.8,1.8,0,0,1,1.64-.06l5.26,3c.42.24.37.67-.12,1l-6.2,3.58A1.85,1.85,0,0,1,119.75,218.33Z" style="fill:#173d7a"/><path d="M127.87,223l-5.26-3c-.42-.24-.37-.67.12-.95l6.2-3.58a1.85,1.85,0,0,1,1.65-.07l5.25,3c.42.25.37.67-.12,1l-6.2,3.58A1.8,1.8,0,0,1,127.87,223Z" style="fill:#173d7a"/><path d="M136,227.7l-5.25-3c-.43-.25-.37-.67.11-.95l6.21-3.59a1.8,1.8,0,0,1,1.64-.06l5.26,3c.42.24.37.67-.12,1l-6.2,3.58A1.85,1.85,0,0,1,136,227.7Z" style="fill:#173d7a"/><path d="M147.2,223.83l-5.25-3c-.42-.25-.37-.67.12-1l5.2-3a1.85,1.85,0,0,1,1.65-.07l5.26,3c.42.24.36.66-.12.95l-5.21,3A1.85,1.85,0,0,1,147.2,223.83Z" style="fill:#173d7a"/><path d="M155.32,228.52l-5.26-3c-.42-.24-.36-.67.12-.95l5.21-3a1.79,1.79,0,0,1,1.65-.07l5.25,3c.42.24.37.67-.12.95l-5.2,3A1.85,1.85,0,0,1,155.32,228.52Z" style="fill:#173d7a"/><path d="M163.43,233.2l-5.25-3c-.42-.25-.37-.67.12-.95l5.2-3a1.85,1.85,0,0,1,1.65-.07l5.26,3c.42.24.37.67-.12.95l-5.21,3A1.85,1.85,0,0,1,163.43,233.2Z" style="fill:#173d7a"/><path d="M171.55,237.89l-5.25-3c-.43-.24-.37-.67.11-.95l5.21-3a1.79,1.79,0,0,1,1.65-.07l5.25,3c.42.25.37.67-.12.95l-5.2,3A1.85,1.85,0,0,1,171.55,237.89Z" style="fill:#173d7a"/><path d="M179.67,242.57l-5.26-3c-.42-.25-.37-.67.12-.95l5.21-3a1.83,1.83,0,0,1,1.64-.07l5.26,3c.42.24.37.67-.12.95l-5.21,3A1.8,1.8,0,0,1,179.67,242.57Z" style="fill:#173d7a"/><path d="M187.78,247.26l-5.25-3c-.43-.24-.37-.67.11-.95l5.21-3a1.82,1.82,0,0,1,1.65-.07l5.25,3c.42.25.37.67-.12,1l-5.2,3A1.85,1.85,0,0,1,187.78,247.26Z" style="fill:#173d7a"/><path d="M195.9,251.94l-5.26-3c-.42-.25-.37-.67.12-.95l5.21-3a1.83,1.83,0,0,1,1.64-.07l5.26,3c.42.24.37.67-.12,1l-5.21,3A1.77,1.77,0,0,1,195.9,251.94Z" style="fill:#173d7a"/><path d="M204,256.63l-5.25-3c-.43-.24-.37-.67.11-1l5.21-3a1.85,1.85,0,0,1,1.65-.07l5.25,3c.42.25.37.67-.12,1l-5.2,3A1.85,1.85,0,0,1,204,256.63Z" style="fill:#173d7a"/><path d="M212.13,261.31l-5.26-3c-.42-.24-.37-.67.12-.95l5.21-3a1.83,1.83,0,0,1,1.64-.07l5.26,3c.42.24.37.67-.12.95l-5.21,3A1.77,1.77,0,0,1,212.13,261.31Z" style="fill:#173d7a"/><path d="M220.24,266,215,263c-.43-.24-.37-.66.11-.95l5.21-3a1.85,1.85,0,0,1,1.65-.07l5.25,3c.42.25.37.67-.12.95l-5.2,3A1.85,1.85,0,0,1,220.24,266Z" style="fill:#173d7a"/><path d="M159.16,221.61l-5.25-3c-.43-.25-.37-.67.11-1l5.21-3a1.85,1.85,0,0,1,1.65-.07l5.25,3c.42.24.37.67-.12.95l-5.2,3A1.79,1.79,0,0,1,159.16,221.61Z" style="fill:#396caa"/><path d="M150.93,216.86l-5.26-3c-.42-.24-.37-.67.12-.95l5.21-3a1.8,1.8,0,0,1,1.64-.07l5.26,3c.42.25.37.67-.12.95l-5.21,3A1.83,1.83,0,0,1,150.93,216.86Z" style="fill:#396caa"/><path d="M142.68,212.09l-11.32-6.53c-.42-.24-.37-.67.12-.95l5.2-3a1.85,1.85,0,0,1,1.65-.07l11.32,6.54c.42.24.37.67-.12,1l-5.21,3A1.8,1.8,0,0,1,142.68,212.09Z" style="fill:#173d7a"/><path d="M148.44,206.3l-9.18-5.3c-.42-.24-.37-.67.12-.95l5.2-3a1.85,1.85,0,0,1,1.65-.07l9.18,5.31c.43.24.37.67-.11.95l-5.21,3A1.82,1.82,0,0,1,148.44,206.3Z" style="fill:#173d7a"/><path d="M167.28,226.3l-5.26-3c-.42-.24-.37-.67.12-.95l5.21-3a1.83,1.83,0,0,1,1.64-.07l5.26,3c.42.25.37.67-.12.95l-5.21,3A1.83,1.83,0,0,1,167.28,226.3Z" style="fill:#396caa"/><path d="M175.39,231l-5.25-3c-.42-.24-.37-.67.12-.95l5.2-3a1.85,1.85,0,0,1,1.65-.07l5.25,3c.43.24.37.67-.11.95l-5.21,3A1.79,1.79,0,0,1,175.39,231Z" style="fill:#173d7a"/><path d="M183.51,235.67l-5.26-3c-.42-.24-.37-.66.12-.95l5.21-3a1.83,1.83,0,0,1,1.64-.07l5.26,3c.42.25.37.67-.12,1l-5.21,3A1.83,1.83,0,0,1,183.51,235.67Z" style="fill:#173d7a"/><path d="M191.62,240.35l-5.25-3c-.42-.24-.37-.67.12-.95l5.2-3a1.85,1.85,0,0,1,1.65-.07l5.25,3c.43.24.37.67-.11.95l-5.21,3A1.82,1.82,0,0,1,191.62,240.35Z" style="fill:#173d7a"/><path d="M199.74,245l-5.26-3c-.42-.24-.37-.66.12-.95l5.21-3a1.83,1.83,0,0,1,1.64-.07l5.26,3c.42.25.37.67-.12,1l-5.21,3A1.83,1.83,0,0,1,199.74,245Z" style="fill:#173d7a"/><path d="M207.85,249.72l-5.25-3c-.42-.24-.37-.67.12-.95l5.2-3a1.82,1.82,0,0,1,1.65-.06l5.25,3c.43.24.37.67-.11,1l-5.21,3A1.82,1.82,0,0,1,207.85,249.72Z" style="fill:#173d7a"/><path d="M216,254.41l-5.26-3c-.42-.25-.37-.67.12-.95l5.21-3a1.83,1.83,0,0,1,1.64-.07l5.26,3c.42.25.37.67-.12,1l-5.21,3A1.83,1.83,0,0,1,216,254.41Z" style="fill:#173d7a"/><path d="M224.08,259.09l-5.25-3c-.42-.24-.37-.67.12-.95l5.2-3a1.82,1.82,0,0,1,1.65-.06l5.25,3c.43.24.37.67-.11.95l-5.21,3A1.82,1.82,0,0,1,224.08,259.09Z" style="fill:#173d7a"/><path d="M232.2,263.78l-5.26-3c-.42-.25-.37-.67.12-.95l5.21-3a1.85,1.85,0,0,1,1.65-.07l5.25,3c.42.24.37.66-.12.95l-5.2,3A1.85,1.85,0,0,1,232.2,263.78Z" style="fill:#173d7a"/><path d="M246.63,272.11l-11.47-6.62c-.42-.24-.37-.67.12-.95l5.21-3a1.8,1.8,0,0,1,1.64-.06l11.47,6.61c.42.25.37.67-.12,1l-5.21,3A1.83,1.83,0,0,1,246.63,272.11Z" style="fill:#173d7a"/><path d="M262.43,263l-9.68-5.59c-.42-.24-.37-.67.12-.95l5.2-3a1.82,1.82,0,0,1,1.65-.06L269.4,259c.42.25.37.67-.12,1l-5.21,3A1.83,1.83,0,0,1,262.43,263Z" style="fill:#173d7a"/><path d="M181.49,225.38l-5.26-3c-.42-.25-.37-.67.12-.95l5.21-3a1.83,1.83,0,0,1,1.64-.07l5.26,3c.42.24.37.67-.12.95l-5.21,3A1.83,1.83,0,0,1,181.49,225.38Z" style="fill:#173d7a"/><path d="M173.17,220.58l-5.25-3c-.43-.24-.37-.66.11-.95l5.21-3a1.85,1.85,0,0,1,1.65-.07l5.25,3c.42.25.37.67-.12.95l-5.2,3A1.85,1.85,0,0,1,173.17,220.58Z" style="fill:#173d7a"/><path d="M164.85,215.78l-5.25-3c-.42-.24-.37-.67.12-1l5.2-3a1.82,1.82,0,0,1,1.65-.07l5.26,3c.42.25.36.67-.12.95l-5.21,3A1.85,1.85,0,0,1,164.85,215.78Z" style="fill:#396caa"/><path d="M156.54,211l-5.26-3c-.42-.24-.37-.67.12-.95l5.21-3a1.8,1.8,0,0,1,1.64-.06l5.26,3c.42.24.37.67-.12,1l-5.21,3A1.83,1.83,0,0,1,156.54,211Z" style="fill:#173d7a"/><path d="M189.6,230.07l-5.25-3c-.42-.24-.37-.67.12-.95l5.2-3a1.79,1.79,0,0,1,1.65-.07l5.25,3c.43.24.37.67-.11,1l-5.21,3A1.85,1.85,0,0,1,189.6,230.07Z" style="fill:#173d7a"/><path d="M197.72,234.75l-5.26-3c-.42-.25-.36-.67.12-.95l5.21-3a1.85,1.85,0,0,1,1.65-.07l5.25,3c.42.24.37.67-.12,1l-5.2,3A1.82,1.82,0,0,1,197.72,234.75Z" style="fill:#173d7a"/><path d="M205.83,239.44l-5.25-3c-.42-.24-.37-.67.12-1l5.2-3a1.82,1.82,0,0,1,1.65-.07l5.26,3c.42.25.36.67-.12,1l-5.21,3A1.85,1.85,0,0,1,205.83,239.44Z" style="fill:#173d7a"/><path d="M214,244.12l-5.26-3c-.42-.25-.36-.67.12-1l5.21-3a1.85,1.85,0,0,1,1.65-.07l5.25,3c.42.24.37.67-.12,1l-5.2,3A1.79,1.79,0,0,1,214,244.12Z" style="fill:#173d7a"/><path d="M222.06,248.81l-5.25-3c-.42-.24-.37-.67.12-1l5.2-3a1.85,1.85,0,0,1,1.65-.07l5.26,3c.42.25.36.67-.12.95l-5.21,3A1.85,1.85,0,0,1,222.06,248.81Z" style="fill:#173d7a"/><path d="M230.18,253.49l-5.25-3c-.43-.24-.37-.67.11-1l5.21-3a1.85,1.85,0,0,1,1.65-.07l5.25,3c.42.24.37.67-.12.95l-5.2,3A1.79,1.79,0,0,1,230.18,253.49Z" style="fill:#173d7a"/><path d="M238.3,258.18l-5.26-3c-.42-.24-.37-.66.12-.95l5.21-3a1.83,1.83,0,0,1,1.64-.07l5.26,3c.42.25.37.67-.12.95l-5.21,3A1.83,1.83,0,0,1,238.3,258.18Z" style="fill:#173d7a"/><path d="M246.41,262.86l-5.25-3c-.43-.24-.37-.67.11-.95l5.21-3a1.85,1.85,0,0,1,1.65-.07l5.25,3c.42.24.37.67-.12,1l-5.2,3A1.82,1.82,0,0,1,246.41,262.86Z" style="fill:#173d7a"/><path d="M254.53,267.55l-5.26-3c-.42-.24-.37-.66.12-.95l5.21-3a1.83,1.83,0,0,1,1.64-.07l5.26,3c.42.25.37.67-.12,1l-5.21,3A1.83,1.83,0,0,1,254.53,267.55Z" style="fill:#173d7a"/><path d="M177.22,213.79l-5.26-3c-.42-.25-.37-.67.12-.95l5.21-3a1.83,1.83,0,0,1,1.64-.07l5.26,3c.42.24.37.67-.12.95l-5.21,3A1.8,1.8,0,0,1,177.22,213.79Z" style="fill:#173d7a"/><path d="M169.14,209.13l-5.25-3c-.43-.25-.37-.67.11-.95l5.21-3a1.85,1.85,0,0,1,1.65-.07l5.25,3c.42.24.37.66-.12.95l-5.2,3A1.85,1.85,0,0,1,169.14,209.13Z" style="fill:#173d7a"/><path d="M161.07,204.47l-5.26-3c-.42-.24-.37-.67.12-1l5.21-3a1.83,1.83,0,0,1,1.64-.07l5.26,3c.42.25.37.67-.12.95l-5.21,3A1.83,1.83,0,0,1,161.07,204.47Z" style="fill:#173d7a"/><path d="M153,199.81l-5.25-3c-.43-.24-.37-.67.11-1l5.21-3a1.79,1.79,0,0,1,1.65-.07l5.25,3c.42.24.37.67-.12.95l-5.2,3A1.85,1.85,0,0,1,153,199.81Z" style="fill:#173d7a"/><path d="M161.29,195,156,192c-.42-.25-.37-.67.12-.95l1.72-1a1.8,1.8,0,0,1,1.64-.06l5.26,3c.42.24.37.67-.12.95l-1.72,1A1.82,1.82,0,0,1,161.29,195Z" style="fill:#173d7a"/><path d="M171.83,201.1l-5.25-3c-.43-.24-.37-.67.12-.95l1.72-1a1.83,1.83,0,0,1,1.64-.07l5.26,3c.42.25.37.67-.12.95l-1.72,1A1.85,1.85,0,0,1,171.83,201.1Z" style="fill:#173d7a"/><path d="M179.87,205.74l-5.25-3c-.42-.24-.37-.66.12-.95l1.72-1a1.83,1.83,0,0,1,1.64-.07l5.26,3c.42.24.37.67-.12,1l-1.72,1A1.85,1.85,0,0,1,179.87,205.74Z" style="fill:#173d7a"/><path d="M187.91,210.38l-5.25-3c-.42-.25-.37-.67.12-.95l1.72-1a1.83,1.83,0,0,1,1.64-.07l5.26,3c.42.24.37.67-.12.95l-1.72,1A1.85,1.85,0,0,1,187.91,210.38Z" style="fill:#173d7a"/><path d="M196,215l-5.26-3c-.42-.24-.37-.67.12-1l1.72-1a1.79,1.79,0,0,1,1.65-.07l5.25,3c.42.24.37.67-.12,1l-1.72,1A1.8,1.8,0,0,1,196,215Z" style="fill:#173d7a"/><path d="M240.85,240.94l-5.26-3c-.42-.25-.37-.67.12-.95l1.72-1a1.82,1.82,0,0,1,1.65-.06l5.25,3c.43.24.37.67-.11.95l-1.73,1A1.77,1.77,0,0,1,240.85,240.94Z" style="fill:#173d7a"/><path d="M248.89,245.59l-5.26-3c-.42-.24-.36-.67.12-1l1.72-1a1.85,1.85,0,0,1,1.65-.07l5.26,3c.42.25.36.67-.12,1l-1.72,1A1.85,1.85,0,0,1,248.89,245.59Z" style="fill:#173d7a"/><path d="M256.93,250.23l-5.25-3c-.43-.24-.37-.67.11-.95l1.73-1a1.83,1.83,0,0,1,1.64-.07l5.26,3c.42.24.37.66-.12.95l-1.72,1A1.85,1.85,0,0,1,256.93,250.23Z" style="fill:#173d7a"/><path d="M265,254.87l-5.25-3c-.42-.25-.37-.67.12-1l1.72-1a1.83,1.83,0,0,1,1.64-.07l5.26,3c.42.24.37.67-.12.95l-1.72,1A1.85,1.85,0,0,1,265,254.87Z" style="fill:#173d7a"/><path d="M185.33,218.48l-5.25-3c-.43-.24-.37-.67.11-.95l5.21-3a1.82,1.82,0,0,1,1.65-.07l5.25,3c.42.25.37.67-.12,1l-5.2,3A1.85,1.85,0,0,1,185.33,218.48Z" style="fill:#173d7a"/><path d="M193.45,223.16l-5.26-3c-.42-.24-.37-.67.12-.95l5.21-3a1.83,1.83,0,0,1,1.64-.07l5.26,3c.42.24.37.67-.12,1l-5.21,3A1.77,1.77,0,0,1,193.45,223.16Z" style="fill:#173d7a"/><path d="M201.56,227.85l-5.25-3c-.43-.24-.37-.67.11-.95l5.21-3a1.85,1.85,0,0,1,1.65-.07l5.25,3c.42.25.37.67-.12,1l-5.2,3A1.85,1.85,0,0,1,201.56,227.85Z" style="fill:#173d7a"/><path d="M209.68,232.53l-5.26-3c-.42-.24-.37-.67.12-.95l5.21-3a1.83,1.83,0,0,1,1.64-.07l5.26,3c.42.24.37.67-.12,1l-5.21,3A1.8,1.8,0,0,1,209.68,232.53Z" style="fill:#173d7a"/><path d="M217.79,237.22l-5.25-3c-.43-.24-.37-.66.11-1l5.21-3a1.85,1.85,0,0,1,1.65-.07l5.25,3c.42.25.37.67-.12.95l-5.2,3A1.85,1.85,0,0,1,217.79,237.22Z" style="fill:#173d7a"/><path d="M225.91,241.9l-5.26-3c-.42-.24-.37-.67.12-1l5.21-3a1.8,1.8,0,0,1,1.64-.06l5.26,3c.42.24.37.67-.12,1l-5.21,3A1.8,1.8,0,0,1,225.91,241.9Z" style="fill:#173d7a"/><path d="M234,246.59l-5.25-3c-.42-.25-.37-.67.12-1l5.2-3a1.85,1.85,0,0,1,1.65-.07l5.25,3c.43.25.37.67-.12.95l-5.2,3A1.85,1.85,0,0,1,234,246.59Z" style="fill:#173d7a"/><path d="M242.14,251.27l-5.26-3c-.42-.24-.37-.67.12-1l5.21-3a1.8,1.8,0,0,1,1.64-.06l5.26,3c.42.24.37.67-.12.95l-5.21,3A1.8,1.8,0,0,1,242.14,251.27Z" style="fill:#173d7a"/><path d="M250.25,256l-5.25-3c-.42-.25-.37-.67.12-1l5.2-3a1.85,1.85,0,0,1,1.65-.07l5.25,3c.43.24.37.66-.11.95l-5.21,3A1.85,1.85,0,0,1,250.25,256Z" style="fill:#173d7a"/><path d="M138.93,219.06l-15.47-8.94c-.42-.24-.37-.67.12-1l5.2-3a1.82,1.82,0,0,1,1.65-.06L145.91,215c.42.24.36.67-.12.95l-5.21,3A1.85,1.85,0,0,1,138.93,219.06Z" style="fill:#173d7a"/><path d="M238.63,276.62l-15.47-8.94c-.43-.24-.37-.67.11-.95l5.21-3a1.82,1.82,0,0,1,1.65-.06l15.47,8.93c.43.25.37.67-.11,1l-5.21,3A1.85,1.85,0,0,1,238.63,276.62Z" style="fill:#173d7a"/><path d="M206.18,268.23l-5.26-3c-.42-.24-.37-.66.12-.95l6.2-3.58a1.85,1.85,0,0,1,1.65-.07l5.26,3c.42.24.36.67-.12.95l-6.21,3.58A1.83,1.83,0,0,1,206.18,268.23Z" style="fill:#173d7a"/><path d="M147.25,234.2l-8.41-4.85c-.42-.24-.37-.67.12-.95l6.2-3.58a1.85,1.85,0,0,1,1.65-.07l8.4,4.85c.42.25.37.67-.12,1l-6.2,3.59A1.8,1.8,0,0,1,147.25,234.2Z" style="fill:#173d7a"/><path d="M198.36,263.71,190,258.86c-.42-.24-.36-.67.12-.95l6.21-3.58a1.83,1.83,0,0,1,1.64-.07l8.41,4.85c.42.25.36.67-.12.95l-6.2,3.59A1.82,1.82,0,0,1,198.36,263.71Z" style="fill:#173d7a"/><path d="M159,241l-8.4-4.85c-.42-.24-.37-.67.12-1l6.2-3.58a1.85,1.85,0,0,1,1.65-.07l8.4,4.85c.42.25.37.67-.12.95l-6.2,3.58A1.79,1.79,0,0,1,159,241Z" style="fill:#173d7a"/><path d="M158.57,231.54l36.54,21.1a.5.5,0,0,1,0,1l-6.32,3.65a1.82,1.82,0,0,1-1.64,0l-36.54-21.1Z" style="fill:#173d7a"/><path d="M228.86,276.72l5.85,3.38c.35.2.3.55-.09.78l-2.54,1.47a1.5,1.5,0,0,1-1.35,0L224.88,279c-.35-.2-.31-.55.09-.78l2.54-1.46A1.5,1.5,0,0,1,228.86,276.72Z" style="fill:#173d7a"/><path d="M220.68,272l5.85,3.38c.35.2.3.55-.1.78l-2.53,1.46a1.5,1.5,0,0,1-1.35.06l-5.86-3.38c-.34-.2-.3-.55.1-.78l2.54-1.46A1.47,1.47,0,0,1,220.68,272Z" style="fill:#173d7a"/><path d="M212.56,267.31l5.85,3.38c.35.2.31.55-.09.78l-2.54,1.47a1.5,1.5,0,0,1-1.35.05l-5.85-3.38c-.35-.2-.3-.54.09-.78l2.54-1.46A1.5,1.5,0,0,1,212.56,267.31Z" style="fill:#173d7a"/><path d="M225.16,269.41l5.85,3.38c.35.2.3.55-.1.78L228.38,275a1.5,1.5,0,0,1-1.35,0l-5.86-3.38c-.34-.2-.3-.55.1-.78l2.54-1.46A1.5,1.5,0,0,1,225.16,269.41Z" style="fill:#173d7a"/><path d="M214.41,125.79l-7.77-4.48a2.24,2.24,0,0,1-.95-2.3h0a1.07,1.07,0,0,1,1.66-.79l7.77,4.48a2.23,2.23,0,0,1,.95,2.3h0A1.08,1.08,0,0,1,214.41,125.79Z" style="fill:#d4ecff"/><path d="M232.9,136.47l-11.45-6.61a2.21,2.21,0,0,1-.94-2.3h0a1.08,1.08,0,0,1,1.66-.79l11.45,6.61a2.23,2.23,0,0,1,.95,2.3h0A1.09,1.09,0,0,1,232.9,136.47Z" style="fill:#d4ecff"/><path d="M200.87,162l-7.77-4.48a2.22,2.22,0,0,1-.94-2.3h0a1.08,1.08,0,0,1,1.66-.8l7.76,4.49a2.21,2.21,0,0,1,.95,2.3h0A1.08,1.08,0,0,1,200.87,162Z" style="fill:#d4ecff"/><path d="M217.36,171.56,205.91,165a2.22,2.22,0,0,1-.95-2.3h0a1.08,1.08,0,0,1,1.66-.79l11.45,6.61a2.21,2.21,0,0,1,1,2.3h0A1.08,1.08,0,0,1,217.36,171.56Z" style="fill:#d4ecff"/><path d="M191.5,119.91l-4.85-2.8a2.22,2.22,0,0,1-1-2.3h0a1.07,1.07,0,0,1,1.66-.79l4.85,2.8a2.21,2.21,0,0,1,.95,2.3h0A1.08,1.08,0,0,1,191.5,119.91Z" style="fill:#d4ecff"/><path d="M206.45,135.89l-14.82-8.56a2.22,2.22,0,0,1-.95-2.3h0a1.07,1.07,0,0,1,1.66-.79l14.82,8.55a2.22,2.22,0,0,1,1,2.3h0A1.08,1.08,0,0,1,206.45,135.89Z" style="fill:#d4ecff"/><path d="M193.49,143.09l-4.86-2.8a2.22,2.22,0,0,1-.94-2.3h0a1.08,1.08,0,0,1,1.66-.79l4.85,2.8a2.23,2.23,0,0,1,1,2.3h0A1.08,1.08,0,0,1,193.49,143.09Z" style="fill:#d4ecff"/><path d="M219.85,187.69l-12.95-7.48a2.22,2.22,0,0,1-1-2.3h0a1.08,1.08,0,0,1,1.66-.79l13,7.48a2.23,2.23,0,0,1,1,2.3h0A1.09,1.09,0,0,1,219.85,187.69Z" style="fill:#d4ecff"/><path d="M188.76,155.05l-3.12-1.8a2.22,2.22,0,0,1-.94-2.3h0a1.08,1.08,0,0,1,1.66-.79l3.11,1.79a2.22,2.22,0,0,1,.95,2.3h0A1.08,1.08,0,0,1,188.76,155.05Z" style="fill:#d4ecff"/><path d="M186.52,168.44l-3.87-2.23a2.23,2.23,0,0,1-1-2.3h0a1.09,1.09,0,0,1,1.67-.79l3.86,2.23a2.22,2.22,0,0,1,1,2.3h0A1.08,1.08,0,0,1,186.52,168.44Z" style="fill:#d4ecff"/><path d="M201.56,177.13l-10.19-5.89a2.21,2.21,0,0,1-1-2.3h0a1.08,1.08,0,0,1,1.66-.79l10.2,5.89a2.2,2.2,0,0,1,.94,2.3h0A1.08,1.08,0,0,1,201.56,177.13Z" style="fill:#d4ecff"/><path d="M188.49,176.92l-7.33-4.23a2.19,2.19,0,0,1-.95-2.3h0a1.08,1.08,0,0,1,1.66-.79l7.33,4.23a2.24,2.24,0,0,1,1,2.3h0A1.08,1.08,0,0,1,188.49,176.92Z" style="fill:#d4ecff"/><path d="M231,194.14l-4.71-2.72a2.2,2.2,0,0,1-.94-2.3h0a1.08,1.08,0,0,1,1.66-.79l4.71,2.72a2.2,2.2,0,0,1,.94,2.3h0A1.08,1.08,0,0,1,231,194.14Z" style="fill:#d4ecff"/><path d="M211.53,153.51l-13-7.48a2.22,2.22,0,0,1-.94-2.3h0a1.08,1.08,0,0,1,1.66-.8l13,7.49a2.2,2.2,0,0,1,.94,2.3h0A1.08,1.08,0,0,1,211.53,153.51Z" style="fill:#d4ecff"/><path d="M212.71,146.85l-22.58-13a2.24,2.24,0,0,1-.95-2.3h0a1.07,1.07,0,0,1,1.66-.79l22.59,13a2.22,2.22,0,0,1,.94,2.3h0A1.08,1.08,0,0,1,212.71,146.85Z" style="fill:#d4ecff"/><path d="M200.1,154.25l-13-7.48a2.22,2.22,0,0,1-.95-2.3h0a1.08,1.08,0,0,1,1.66-.79l13,7.48a2.23,2.23,0,0,1,.95,2.3h0A1.08,1.08,0,0,1,200.1,154.25Z" style="fill:#d4ecff"/><path d="M221.36,159.18l-4.71-2.72a2.22,2.22,0,0,1-1-2.29h0a1.09,1.09,0,0,1,1.67-.8l4.7,2.72a2.22,2.22,0,0,1,1,2.3h0A1.08,1.08,0,0,1,221.36,159.18Z" style="fill:#d4ecff"/><path d="M267.83,156.64,240,140.54a2.23,2.23,0,0,1-.95-2.3h0a1.09,1.09,0,0,1,1.67-.79l27.87,16.09a2.22,2.22,0,0,1,.95,2.3h0A1.08,1.08,0,0,1,267.83,156.64Z" style="fill:#d4ecff"/><path d="M199.72,168.72l-15.57-9a2.22,2.22,0,0,1-1-2.3h0a1.08,1.08,0,0,1,1.66-.79l15.58,9a2.22,2.22,0,0,1,.94,2.3h0A1.08,1.08,0,0,1,199.72,168.72Z" style="fill:#d4ecff"/><path d="M199.59,117.24l-11.45-6.61a2.24,2.24,0,0,1-.95-2.3h0a1.08,1.08,0,0,1,1.67-.79l11.45,6.61a2.2,2.2,0,0,1,.94,2.3h0A1.08,1.08,0,0,1,199.59,117.24Z" style="fill:#d4ecff"/><path d="M186.45,183.09l-13.27-7.66a2.2,2.2,0,0,1-.94-2.3h0a1.08,1.08,0,0,1,1.66-.79L187.16,180a2.23,2.23,0,0,1,1,2.3h0A1.08,1.08,0,0,1,186.45,183.09Z" style="fill:#d4ecff"/><path d="M276.2,211l-7.77-4.48a2.24,2.24,0,0,1-.95-2.3h0a1.07,1.07,0,0,1,1.66-.79l7.77,4.48a2.21,2.21,0,0,1,.95,2.3h0A1.08,1.08,0,0,1,276.2,211Z" style="fill:#d4ecff"/><path d="M281.78,184.89,267,176.33A2.22,2.22,0,0,1,266,174h0a1.08,1.08,0,0,1,1.66-.79l14.82,8.55a2.24,2.24,0,0,1,.95,2.3h0A1.08,1.08,0,0,1,281.78,184.89Z" style="fill:#d4ecff"/><path d="M268.81,192.09l-4.85-2.8A2.24,2.24,0,0,1,263,187h0a1.09,1.09,0,0,1,1.67-.79l4.85,2.8a2.2,2.2,0,0,1,.94,2.3h0A1.08,1.08,0,0,1,268.81,192.09Z" style="fill:#d4ecff"/><path d="M264.08,204.05l-3.11-1.8a2.23,2.23,0,0,1-1-2.3h0a1.08,1.08,0,0,1,1.66-.79l3.12,1.8a2.23,2.23,0,0,1,.95,2.3h0A1.09,1.09,0,0,1,264.08,204.05Z" style="fill:#d4ecff"/><path d="M286.86,202.51l-13-7.48a2.24,2.24,0,0,1-.95-2.3h0a1.08,1.08,0,0,1,1.67-.79l12.95,7.48a2.21,2.21,0,0,1,.95,2.3h0A1.08,1.08,0,0,1,286.86,202.51Z" style="fill:#d4ecff"/><path d="M288,195.85l-22.58-13a2.22,2.22,0,0,1-.95-2.3h0a1.08,1.08,0,0,1,1.66-.79l22.58,13a2.19,2.19,0,0,1,.95,2.29h0A1.08,1.08,0,0,1,288,195.85Z" style="fill:#d4ecff"/><path d="M275.42,203.25l-12.95-7.48a2.22,2.22,0,0,1-1-2.3h0a1.08,1.08,0,0,1,1.66-.79l13,7.48a2.2,2.2,0,0,1,.94,2.3h0A1.08,1.08,0,0,1,275.42,203.25Z" style="fill:#d4ecff"/><path d="M275.05,217.72l-15.58-9a2.2,2.2,0,0,1-.94-2.3h0a1.08,1.08,0,0,1,1.66-.79l15.57,9a2.22,2.22,0,0,1,.95,2.3h0A1.08,1.08,0,0,1,275.05,217.72Z" style="fill:#d4ecff"/><polygon points="309.91 124.42 322.15 119.55 319.4 101.55 313.46 106.81 309.91 124.42" style="fill:#5793ce"/><path d="M228,40.48l29.56-11.82s-5.45,11.79-5.45,11.82-15.79,3.65-15.79,3.65Z" style="fill:#5793ce"/><path d="M320.73,89.47a13.2,13.2,0,0,0-4.8-1.65c1.64-10.88-3.06-22.36-12.09-27.58a19.6,19.6,0,0,0-8.45-2.65c3.53-13.19-1.93-28.18-13.05-34.61a20.49,20.49,0,0,0-17.64-1.7h0l-.27.11-.42.17-9.27,3.64,3.7,3.18C253.43,30,249.09,34,246.81,40c-4.22,11,.11,24.47,9.66,30l56.81,47.89c7.18,4.14,11.54,2.41,14.7-5.88S327.9,93.62,320.73,89.47Z" style="fill:#5793ce"/><path d="M249.39,35.13l31.87-12.74a20.37,20.37,0,0,0-16.56-1.11h0l-.27.11-.42.17-9.27,3.64,3.7,3.18A17.66,17.66,0,0,0,249.39,35.13Z" style="fill:#5793ce"/><path d="M293.76,82.9l21-8.4a25.34,25.34,0,0,0-11.08-14.33,22.17,22.17,0,0,0-2.12-1.07l-29,11.58Z" style="fill:#5793ce"/><path d="M261.2,26.52l9,5.22,15.67-6.24A25.28,25.28,0,0,0,282.34,23a22.08,22.08,0,0,0-6.13-2.43Z" style="fill:#d4ecff"/><path d="M313.41,71l-15.15,6,4.47,6.28,13-5.17A29.4,29.4,0,0,0,313.41,71Z" style="fill:#d4ecff"/><path d="M310.6,93.45a13.16,13.16,0,0,0-4.79-1.65c1.63-10.88-3.2-22.43-12.22-27.65a19.13,19.13,0,0,0-8.33-2.58c3.54-13.19-1.93-28.18-13.05-34.61-12-6.92-26-1.31-31.24,12.52-.18.47-.34.94-.5,1.42-9.13-4.07-19.23.51-23.19,10.89-4.22,11,.11,24.47,9.67,30l72.17,41.7c7.18,4.15,15.57.78,18.73-7.51S317.77,97.6,310.6,93.45Z" style="fill:#d4ecff"/><path d="M312.09,92.62a13,13,0,0,0-4.8-1.65c1.64-10.88-3.19-22.44-12.21-27.65a19,19,0,0,0-8.33-2.59c3.53-13.19-1.93-28.17-13.05-34.6a20.38,20.38,0,0,0-21.32.09,20.42,20.42,0,0,1,19.83.74c11.12,6.43,16.59,21.42,13.05,34.61a19.13,19.13,0,0,1,8.33,2.58c9,5.22,13.85,16.77,12.22,27.65a13.16,13.16,0,0,1,4.79,1.65c7.17,4.15,10.42,14.23,7.25,22.52a14.88,14.88,0,0,1-5.64,7.25,14.44,14.44,0,0,0,7.13-8.08C322.51,106.85,319.26,96.76,312.09,92.62Z" style="fill:#fff"/><path d="M240.47,40.9c.14-.42.28-.83.44-1.24a16.08,16.08,0,0,0-14.34,1.46A16.1,16.1,0,0,1,240.47,40.9Z" style="fill:#fff"/><path d="M232.31,43.06a9.36,9.36,0,0,0-3.8.77c-2.87,1.25-5.35,4.15-6.8,8-3.71,9.7.25,22,8.65,26.84l72.18,41.71a7.53,7.53,0,0,0,6.44.91c1.82-.73,3.45-2.66,4.45-5.28,2.67-7-.19-15.87-6.25-19.38a9.39,9.39,0,0,0-3.43-1.2l-2.93-.4.38-2.51c1.5-10-3.13-20.62-11-25.18a15.14,15.14,0,0,0-6.64-2.11L279.91,65l.81-3c3.24-12.1-2-26.07-11.93-31.81-4.62-2.67-9.48-3.2-13.7-1.52s-7.65,5.56-9.69,10.9c-.16.41-.31.83-.44,1.25l-2,6-5.66-2.52A12.53,12.53,0,0,0,232.31,43.06Z" style="fill:#396caa"/><polygon points="267.68 89.44 270.17 88.44 268.24 86.95 267.68 89.44" style="fill:#5793ce"/><polygon points="266.44 62.5 268.86 61.52 268.69 62.53 266.44 62.5" style="fill:#5793ce"/><polygon points="275.49 83.14 278.01 82.13 274.34 78.43 275.49 83.14" style="fill:#5793ce"/><path d="M269.52,88.38l-9.64-5.56a1.58,1.58,0,0,1-.65-1.59l2.3-10.93,11.41,6.58-2.31,10.93A.72.72,0,0,1,269.52,88.38Z" style="fill:#5793ce"/><path d="M268.83,61.53l-13,6.57c-.55.27-.37,1.31.31,1.7l10.62,6.13,10.63,6.14c.67.39,1.2-.24.87-1l-7.72-18.54C270.19,61.71,269.39,61.25,268.83,61.53Z" style="fill:#5793ce"/><path d="M267,89.4l-9.63-5.57a1.56,1.56,0,0,1-.66-1.58L259,71.32l11.4,6.58L268.1,88.83A.72.72,0,0,1,267,89.4Z" style="fill:#d4ecff"/><path d="M266.3,62.55l-13,6.57c-.55.27-.37,1.31.3,1.7L264.21,77l10.63,6.14c.67.38,1.2-.24.88-1L268,63.53C267.67,62.73,266.87,62.27,266.3,62.55Z" style="fill:#d4ecff"/><path d="M22.65,307.33,61.16,285.2c3-1.74,8.34-1.51,11.84.52l79,45.82c3.5,2,3.87,5.09.84,6.83L114.3,360.5c-3,1.74-8.34,1.51-11.84-.52l-79-45.81C20,312.14,19.62,309.08,22.65,307.33Z" style="fill:#b2d3ea"/><path d="M115.83,353.18l39.44-22.65a4.56,4.56,0,0,0,2.63-3.71h0l0-6.79-1.27,2.19a9.52,9.52,0,0,0-2.47-2L74.79,274.15c-4.5-2.61-11.32-2.9-15.22-.66L20.13,296.15a7.34,7.34,0,0,0-1.1.77L17.52,295l0,6.38h0c-.06,1.75,1.2,3.62,3.71,5.08l79.41,46.07C105.11,355.13,111.93,355.43,115.83,353.18Z" style="fill:#396caa"/><path d="M20.16,291.1l39.43-22.66c3.91-2.24,10.72-1.94,15.22.67l79.42,46.07c4.5,2.61,5,6.54,1.07,8.79l-39.43,22.66c-3.91,2.24-10.72,1.94-15.22-.67L21.23,299.89C16.73,297.28,16.25,293.35,20.16,291.1Z" style="fill:#d4ecff"/><path d="M155.3,324l-39.43,22.66c-3.91,2.24-10.72,1.94-15.22-.67L21.23,299.89c-2.18-1.26-3.4-2.84-3.65-4.38-.32,1.89.92,4,3.65,5.54l79.42,46.08c4.5,2.61,11.31,2.9,15.22.66l39.43-22.66c2-1.16,2.85-2.76,2.58-4.41A4.77,4.77,0,0,1,155.3,324Z" style="fill:#fff"/><path d="M22.65,292l38.51-22.12c3-1.75,8.34-1.52,11.84.51l79,45.82c3.5,2,3.87,5.09.84,6.84L114.3,345.18c-3,1.75-8.34,1.52-11.84-.51l-79-45.82C20,296.82,19.62,293.76,22.65,292Z" style="fill:#fff"/><path d="M84.7,300.06l-14.26-8.23c-.53-.3-.46-.83.15-1.19h0a2.28,2.28,0,0,1,2.06-.08l14.26,8.23c.52.3.46.84-.15,1.19h0A2.28,2.28,0,0,1,84.7,300.06Z" style="fill:#b2d3ea"/><path d="M71.18,297.28l-5.08-2.94c-.53-.3-.46-.84.15-1.19h0a2.31,2.31,0,0,1,2.06-.09L73.39,296c.53.31.47.84-.14,1.19h0A2.33,2.33,0,0,1,71.18,297.28Z" style="fill:#b2d3ea"/><path d="M79.72,302.2l-5.09-2.93c-.53-.31-.46-.84.15-1.19h0a2.28,2.28,0,0,1,2.06-.09l5.09,2.94c.53.3.46.84-.15,1.19h0A2.28,2.28,0,0,1,79.72,302.2Z" style="fill:#396caa"/><path d="M97,312.17l-13.8-8c-.53-.3-.47-.83.14-1.19h0a2.3,2.3,0,0,1,2.07-.08l13.8,8c.53.31.47.84-.14,1.19h0A2.33,2.33,0,0,1,97,312.17Z" style="fill:#b2d3ea"/><path d="M79.57,307.13,61.76,296.85c-.53-.31-.47-.84.14-1.19h0a2.3,2.3,0,0,1,2.07-.09l17.81,10.28c.53.31.46.84-.15,1.2h0A2.28,2.28,0,0,1,79.57,307.13Z" style="fill:#b2d3ea"/><path d="M101,324.51,57.41,299.35c-.52-.3-.46-.83.15-1.19h0a2.28,2.28,0,0,1,2.06-.08l43.58,25.16c.53.3.46.84-.15,1.19h0A2.28,2.28,0,0,1,101,324.51Z" style="fill:#396caa"/><path d="M113.7,316.81,88.63,302.34c-.53-.31-.46-.84.15-1.19h0a2.25,2.25,0,0,1,2.06-.09l25.07,14.48c.53.3.47.83-.14,1.19h0A2.3,2.3,0,0,1,113.7,316.81Z" style="fill:#b2d3ea"/><path d="M83,340.45l-3.67-2.12a1.58,1.58,0,0,1-.66-1.26h0c0-.48.3-.71.66-.5L83,338.69a1.58,1.58,0,0,1,.66,1.26h0C83.65,340.44,83.35,340.66,83,340.45Z" style="fill:#d4ecff"/><path d="M88.76,343.79l-3.67-2.11a1.6,1.6,0,0,1-.66-1.27h0c0-.48.3-.71.66-.5L88.76,342a1.58,1.58,0,0,1,.66,1.26h0C89.42,343.78,89.12,344,88.76,343.79Z" style="fill:#d4ecff"/></svg>