<?xml version="1.0" encoding="utf-8"?>
<!-- Generator: Adobe Illustrator 24.3.0, SVG Export Plug-In . SVG Version: 6.00 Build 0)  -->
<svg version="1.1" xmlns="http://www.w3.org/2000/svg" xmlns:xlink="http://www.w3.org/1999/xlink" x="0px" y="0px"
	 viewBox="0 0 452.5 385.1" style="enable-background:new 0 0 452.5 385.1;" xml:space="preserve">
<style type="text/css">
	.st0{fill:#DCEDF9;}
	.st1{fill:#008EFF;}
	.st2{fill:#EC6D05;}
	.st3{fill:#F8AD00;}
	.st4{fill:#FDCC50;}
	.st5{fill:#0077EB;}
	.st6{fill:#F9AF8B;}
	.st7{fill:#001030;}
	.st8{fill:#1F2232;}
	.st9{fill:#2E3052;}
	.st10{fill:#FC8664;}
	.st11{fill:#FD664D;}
	.st12{fill:#241507;}
	.st13{fill:#FFFFFF;}
	.st14{fill:#524E84;}
	.st15{fill:#004483;}
	.st16{fill:#0F0F13;}
	.st17{fill:#000B29;}
	.st18{fill:#0059D3;}
	.st19{fill:#F08800;}
	.st20{fill:#35435E;}
</style>
<g id="BACKGROUND">
</g>
<g id="OBJECTS">
	<g>
		<g>
			<g>
				<path class="st0" d="M408.8,363.6c-22.7-17.3-61.6-60.1-10.4-127.3c63.3-83.2-12.5-117.3-85.1-113.7
					c-58.4,2.9-124.2-70.6-189.8-57.5c-87.1,17.4-30.5,92.4-89.6,132.8c-50.4,34.5-28.7,139.5,36.8,165.7H408.8z"/>
			</g>
			<path class="st0" d="M449.9,211.1c-0.4-12.3-11.8-17.1-19.5-8.2c-4.4,5.1-8.6,12.5-9.4,22.3c-1.8,22,17.5,15.6,24.7,3.8
				C448.7,224,450,217.3,449.9,211.1z"/>
			<path class="st0" d="M238.2,60.7c-12.1-2.3-19.2,7.9-12.2,17.3c4.1,5.4,10.3,11.1,19.8,13.9c21.1,6.4,19-13.7,9-23.3
				C250.6,64.6,244.3,61.9,238.2,60.7z"/>
			<path class="st0" d="M37.9,173.7c4.8-11.3-3.6-20.5-14.3-15.6c-6.1,2.8-13,7.7-17.9,16.3c-10.8,19.2,9.3,21.5,20.8,13.8
				C31.4,185,35.4,179.4,37.9,173.7z"/>
		</g>
		<g>
			<ellipse class="st0" cx="231" cy="367" rx="207.8" ry="13.7"/>
		</g>
		<g>
			<g>
				<path class="st1" d="M125.6,137.2c5.8-4,20.4,5.8,28,17.8l-6.7-18.9c-2.4-2.1-6.7-5.1-13.4-7.5c-10.4-3.7-20.8-9.5-15-13.4
					c5.5-3.7,18.6,4.7,26.5,15.6l-8.7-24.3c-1.6-1.2-4.1-2.7-7.6-4c-6.6-2.3-13.1-6-9.4-8.5c3.2-2.2,10.5,2.2,15.5,8.3l-2.8-7.9
					c-1.3-2.3-3.1-5.6-6-8.5c-6.7-6.9-11.7-14.7-6.6-15.8c5.2-1.1,13.6,12.4,14.9,24.6l1.4,4c-1.1-8.9,2.1-19.7,6.5-20
					c4.4-0.4,1.7,6.6-1.9,12.5c-2.7,4.5-3.5,8.1-3.7,10l6.8,19.1c-1.7-14.1,3.3-31.1,10.4-31.7c7-0.6,2.6,10.5-3.1,19.9
					c-4.3,7.1-5.5,12.8-5.9,15.8l8.2,22.9c-1.5-13.9,3.5-30.8,10.5-30.9c5.4,0,3.7,7.5-2.7,18.2c-4.3,7.3-5.7,13.8-6.2,17.2
					l3.9,10.8c-0.6,0.5-1.3,0.7-2,0.7l-1.5-4.3c-2.2-2.1-6.7-5.7-14.4-8.4C130.2,147,119.7,141.2,125.6,137.2z"/>
			</g>
			<g>
				<path class="st1" d="M74.5,297.5c-6,3.7-2.7,21,5.2,32.7L65,316.5c-1-3.1-2-8.2-1.5-15.3c0.8-11-0.4-22.9-6.4-19.1
					c-5.6,3.5-3.1,18.9,3.8,30.5L42,295c-0.5-2-0.9-4.8-0.7-8.5c0.5-6.9-0.3-14.4-4-12c-3.3,2.1-2.2,10.5,1.5,17.6l-6.1-5.7
					c-1.6-2.1-3.9-5.1-5.4-8.9c-3.7-8.9-8.8-16.6-11.9-12.3c-3.1,4.3,6,17.4,16.7,23.5l3.1,2.9c-7.7-4.6-18.9-5.9-21-2
					c-2.1,3.9,5.4,4.1,12.3,3.2c5.2-0.7,8.8,0,10.6,0.6l14.8,13.9c-12.2-7.2-29.8-9.3-33.2-3.1c-3.3,6.2,8.6,6.6,19.5,5.1
					c8.3-1.1,13.9,0,16.8,0.9l17.8,16.6c-12.2-6.9-29.7-9-32.5-2.7c-2.2,4.9,5.4,6.4,17.8,4.8c8.4-1.1,14.9,0.2,18.2,1.2l8.4,7.8
					c0.7-0.4,1.2-0.9,1.4-1.5l-3.3-3.1c-1.1-2.8-2.5-8.4-2-16.6C81.6,305.6,80.4,293.7,74.5,297.5z"/>
			</g>
		</g>
		<g>
			<rect x="57.1" y="142.9" class="st2" width="318.1" height="219.7"/>
			<polygon class="st3" points="375.2,142.9 375.2,157 216.2,297.9 57.1,157 57.1,142.9 216.2,284.3 			"/>
			<g>
				<polygon class="st3" points="185.5,256.6 66.4,362.6 57.1,362.6 57.1,357 178.7,248.9 				"/>
			</g>
			<g>
				<polygon class="st3" points="375.2,357.7 375.2,362.6 365.2,362.6 246,256.6 252.8,248.9 				"/>
			</g>
			<polygon class="st4" points="57.1,142.9 216.2,284.3 375.2,142.9 			"/>
		</g>
		<g>
			<g>
				<g>
					<g>
						<path class="st5" d="M287.2,69.4c-11.6,4.7-20.8,7.1-28.7,8.1c0,0,0,0,0,0c-0.1,0-2,0.2-2.7,0.1c-2.1-0.1-5-0.6-7.9-1.9
							c-2.1-1-5-3.5-8.1-6.4c-3.8-3.7-7.9-8.1-10.7-11.3c-2.2-2.5-3.6-4.2-3.6-4.2c1.9-2.9,6.2-5.5,9.9-6.9c0,0,7.8,12.9,19.5,19.3
							c0.6,0.3,1.3,0.7,2,1c2.7-0.4,9.9-0.8,13.1-1c8.5-0.6,15.5-2.1,15.5-2.1L287.2,69.4z"/>
					</g>
				</g>
				<g>
					<g>
						<g>
							<path class="st6" d="M285.2,63.6c0,0,1.6-4.1,3.8-5.2c2.2-1.2,8.4-5.2,9.8-4c1.3,1.2,1.1,7.1-4.5,12c-3.6,3.1-7.1,3-7.1,3
								L285.2,63.6z"/>
						</g>
						<g>
							<g>
								<path class="st7" d="M299.2,58.1l-9.2,8.6c-0.3,0.3-1,0.4-1.4,0.2l-5.6-2.7c-0.2-0.1-0.3-0.2-0.3-0.3l0,0l-0.3-0.9l1.5-0.6
									l14.5-5.5l0.8-0.3l0.3,1l0,0.1c0,0,0,0,0,0C299.4,57.7,299.3,57.9,299.2,58.1z"/>
							</g>
							<g>
								<path class="st8" d="M298.3,56.8l-14.5,5.5l8.2-7.7c0.3-0.3,1-0.4,1.4-0.2L298.3,56.8z"/>
							</g>
							<g>
								<g>
									<path class="st9" d="M288.3,65.9l-5.6-2.7c-0.4-0.2-0.5-0.6-0.1-1l9.2-8.6c0.3-0.3,1-0.4,1.4-0.2l5.6,2.7
										c0.4,0.2,0.5,0.6,0.1,1l-9.2,8.6C289.3,66,288.7,66.1,288.3,65.9z"/>
								</g>
							</g>
							<g>
								<path class="st9" d="M289,64.4l-4.4-2.1c-0.4-0.2-0.5-0.6-0.1-1l7.2-6.7c0.3-0.3,1-0.4,1.4-0.2l4.4,2.1
									c0.4,0.2,0.5,0.6,0.1,1l-7.2,6.7C290,64.5,289.4,64.6,289,64.4z"/>
							</g>
							<g>
								<path class="st8" d="M299.4,57.6L299.4,57.6C299.4,57.5,299.4,57.5,299.4,57.6L299.4,57.6z"/>
							</g>
						</g>
						<g>
							<path class="st6" d="M288.8,56.3c0,0,1.3,0.2,1.4,1.3c0.1,1.1-1.1,0.7-1.9,0.4c-0.8-0.2-1.5,0-1.6,0.1
								C286.5,58.6,286.5,56,288.8,56.3z"/>
						</g>
						<g>
							<path class="st6" d="M294.7,62.4c0,0,2.1-3.4,3.6-5.2c1.1-1.2,1.6,0.6,0.9,1.8C298.5,60.2,297.1,62.8,294.7,62.4z"/>
						</g>
					</g>
				</g>
			</g>
			<g>
				<g>
					<g>
						<g>
							<g>
								<path class="st1" d="M198.8,123.4L194.3,94l-0.3-1.7l0-1.3l1-41.6l11.6-3.9l0.6-0.2l2.6-0.9l2.1-0.7l12.2,1.7l2,0.3l0.7,0.1
									l8.7,1.2c0.1,27.6-2.6,33.6,2.5,56C240.6,111.4,231.2,141.4,198.8,123.4z"/>
							</g>
						</g>
					</g>
				</g>
				<g>
					<g>
						<path class="st5" d="M205.3,115.9C205.3,115.9,205.3,115.9,205.3,115.9c9.1-2.6,15.8-8.9,19.8-13.7c4.3-5.2,6.5-9.9,6.5-10
							c0.1-0.2,0-0.5-0.2-0.6c-0.2-0.1-0.5,0-0.6,0.2c0,0-2.2,4.7-6.4,9.8c-3.9,4.7-10.4,10.9-19.3,13.4c-0.2,0.1-0.4,0.3-0.3,0.6
							C204.8,115.8,205.1,115.9,205.3,115.9z"/>
					</g>
				</g>
				<g>
					<g>
						<path class="st5" d="M215.7,116.4c7.9-2.2,14.6-8.9,14.9-9.2c0.2-0.2,0.2-0.5,0-0.6c-0.2-0.2-0.5-0.2-0.6,0
							c-0.1,0.1-7.9,8-16.4,9.4c-0.3,0-0.4,0.3-0.4,0.5c0,0.2,0.3,0.4,0.5,0.4C214.4,116.7,215.1,116.5,215.7,116.4z"/>
					</g>
				</g>
				<g>
					<g>
						<path class="st5" d="M210.1,57.6c7.9-2.2,14.6-8.9,14.9-9.2c0.2-0.2,0.2-0.5,0-0.6c-0.2-0.2-0.5-0.2-0.6,0
							c-0.1,0.1-7.9,8-16.4,9.4c-0.3,0-0.4,0.3-0.4,0.5c0,0.2,0.3,0.4,0.5,0.4C208.8,58,209.4,57.8,210.1,57.6z"/>
					</g>
				</g>
			</g>
			<g>
				<path class="st6" d="M186.3,134.3c0,0,3.6,4.9,3.3,7.4c-0.3,2.5-3.5,7.2-6.1,7.5c-2.6,0.2,3-6.1,1.7-5.9
					c-1.6,0.2-12.3,9.1-14.6,9.1c-2.3,0,2.7-4.1,4.6-5.1c0,0-5.1,2.3-6.3,3.5c-1.2,1.2-2-1.4,3.9-4.9c0,0-5.4,3.1-5.8,3.1
					c-1.2,0.2,2.2-3.9,5.2-5.3c0,0-4.3,2.1-4.8,2.1c-0.6,0,0.7-1.4,3.9-3.2c2.9-1.6,7.7-9,7.7-9L186.3,134.3z"/>
				<g>
					<path class="st5" d="M195.1,49.3c0,0-12,23.1-14.8,47.3l-1.3,36.8c0,0,1.2,2.6,7.4,0.9l5.9-36.7l4.5-16.8
						C196.8,80.7,198.9,60,195.1,49.3z"/>
				</g>
			</g>
			<g>
				
					<ellipse transform="matrix(0.2837 -0.9589 0.9589 0.2837 135.7626 225.6805)" class="st9" cx="218.9" cy="22" rx="13.3" ry="13.3"/>
				<path class="st9" d="M232.3,21.9c0,0,3.9-0.4,4-4.1c0.1-3.1-3.8-1.8-3.1-4.1c0.7-2.3,1.8-4.4-1.2-5.5c-2.6-1-3,0.8-6.1-2.5
					c-3.6-3.9-8.2,2.9-12,2.4c-5.6-0.7-6.8,2.4-7.8,4.8c-1,2.4,0.8,4.5,0.8,4.5L232.3,21.9z"/>
				<g>
					<path class="st10" d="M229.2,27.6c0,0,2.6-2.4,3.7,0.2c1.1,2.6-2.2,8.9-5.7,6.6L229.2,27.6z"/>
					<g>
						<path class="st11" d="M228.4,32.4c0.1,0,0.3,0,0.3-0.2c1-2,3.3-2.4,3.3-2.5c0.2,0,0.3-0.2,0.3-0.4c0-0.2-0.2-0.3-0.4-0.3
							c-0.1,0-2.7,0.5-3.8,2.8C228.1,32.1,228.1,32.3,228.4,32.4C228.3,32.4,228.3,32.4,228.4,32.4z"/>
					</g>
					<g>
						<g>
							<path class="st11" d="M230.7,31.7c0.1,0,0.1,0,0.2,0c0.2-0.1,0.2-0.3,0.2-0.4c0,0-0.3-0.7-1-1.2c-0.1-0.1-0.3-0.1-0.5,0.1
								c-0.1,0.1-0.1,0.3,0.1,0.5c0.6,0.4,0.8,0.9,0.8,0.9C230.5,31.6,230.6,31.7,230.7,31.7z"/>
						</g>
					</g>
				</g>
				<path class="st6" d="M211.9,37.6l-1.2,6.7c0,0,2.2,3.5,4.9,4.2c2.7,0.7,4.9-2.2,4.9-2.2l1.1-6.5L211.9,37.6z"/>
				<path class="st10" d="M211.9,37.6l-0.5,3c1.5,2.3,4.6,3.4,9.5,3.6l0.8-4.3L211.9,37.6z"/>
				<path class="st6" d="M207.9,19c-0.3,2.6-0.7,5.9-0.6,8.6c0,0.7,0,1.3,0.1,1.9c0.5,5.2,2.6,14.3,13.1,12.5
					c4.7-0.8,7.5-5.3,9.3-10.1c1.2-3.3,1.9-6.6,2.3-9.1c0.4-2.5-0.6-5-2.5-6.6c-5.3-4.3-11.7-4.2-16-3.4
					C210.6,13.5,208.3,16,207.9,19z"/>
				<path class="st9" d="M229.2,29.7c0.5-1.3,1-2.9,1-3.8c0-1.6-1.2-2.7-0.5-4.1c0.7-1.4-0.6-3.3-1.7-3.8c-1.1-0.5-3.9-0.4-6.4-2.1
					c-2.3-1.7-6.9-1.6-7.9-0.1c-1.2,1.8-0.1,2.2-2.8,3.9c-1.1,0.7-0.4,3.1-0.5,4.6c0,0.7-0.1,1-0.2,1.7l-0.1,0.4l-2.8-0.5
					c0.1-2.3,0.3-4.8,0.6-6.8c0.4-3,2.7-5.5,5.7-6.1c4.3-0.8,10.7-1,16,3.4c1.9,1.6,2.9,4.1,2.5,6.6c-0.3,1.9-0.8,4.5-1.6,7.1
					L229.2,29.7z"/>
				<g>
					<path class="st6" d="M208.3,27.3c0.1-0.7,0.2-1.5,0.2-2.3c0-1-0.1-2-1.1-2.6c-0.8-0.5-1.6-0.6-2.4,0.2c-1.9,2-1.5,9.4,2.6,8.5
						L208.3,27.3z"/>
					<g>
						<g>
							<path class="st10" d="M207.2,28.9c-0.1-0.1-0.2-0.2-0.2-0.3c0.2-2.2-1.5-3.8-1.5-3.8c-0.1-0.1-0.1-0.3,0-0.5
								c0.1-0.1,0.3-0.1,0.5,0c0.1,0.1,2,1.8,1.7,4.4C207.7,28.8,207.5,29,207.2,28.9C207.3,28.9,207.3,28.9,207.2,28.9z"/>
						</g>
					</g>
					<g>
						<path class="st10" d="M205.6,27.1c-0.1,0-0.1-0.1-0.1-0.1c-0.1-0.1-0.1-0.3,0.1-0.5c0,0,0.6-0.4,1.5-0.5
							c0.2,0,0.3,0.1,0.3,0.3c0,0.2-0.1,0.3-0.3,0.3c-0.7,0-1.1,0.3-1.1,0.3C205.8,27.1,205.7,27.2,205.6,27.1z"/>
					</g>
				</g>
			</g>
			<g>
				<g>
					<polygon class="st6" points="291.5,123.1 295.5,131.8 287,131.9 283.6,124 					"/>
					<g>
						<g>
							<g>
								<path class="st12" d="M292.8,131.2c0,0,1.8-2.4,3.2-2.3c1.4,0.1,12.2,8.7,15.9,9.4c3.7,0.7,3.4,4.5,1.8,4.5
									c-4.5,0-29.1,0-29.1,0s-0.7-8.8,0.2-11.4C285.8,128.8,289.9,131.8,292.8,131.2z"/>
							</g>
							<g>
								<g>
									<path class="st13" d="M298.8,137.2c-0.1,0-0.3,0-0.4,0c-0.2-0.1-0.3-0.5-0.2-0.7c0-0.1,1.2-2,2.7-2.8c2-1,3.6,0.1,3.7,0.2
										c0.2,0.2,0.3,0.5,0.1,0.7c-0.2,0.2-0.5,0.3-0.7,0.1c0,0-1.1-0.8-2.6-0.1c-1.2,0.6-2.3,2.4-2.3,2.4
										C299,137.1,298.9,137.2,298.8,137.2z"/>
								</g>
								<g>
									<path class="st13" d="M297.3,135.8c-0.1,0-0.3,0-0.4,0c-0.2-0.1-0.3-0.5-0.2-0.7c0-0.1,1.2-2,2.7-2.8c2-1,3.6,0.1,3.7,0.2
										c0.2,0.2,0.3,0.5,0.1,0.7c-0.2,0.2-0.5,0.3-0.7,0.1c0,0-1.1-0.8-2.6-0.1c-1.2,0.6-2.3,2.4-2.3,2.4
										C297.5,135.6,297.4,135.7,297.3,135.8z"/>
								</g>
								<g>
									<path class="st13" d="M300.9,138.4c-0.1,0-0.3,0-0.4,0c-0.2-0.1-0.3-0.5-0.2-0.7c0-0.1,1.2-2,2.7-2.8c2-1,3.6,0.1,3.7,0.2
										c0.2,0.2,0.3,0.5,0.1,0.7c-0.2,0.2-0.5,0.3-0.7,0.1c0,0-1.1-0.8-2.6-0.1c-1.2,0.6-2.3,2.4-2.3,2.4
										C301.1,138.3,301,138.4,300.9,138.4z"/>
								</g>
							</g>
						</g>
					</g>
				</g>
				<g>
					<g>
						<g>
							<g>
								<g>
									<path class="st9" d="M293.9,125.9l-3.8,1.2l-2.1,0.1l-3.6,0.2c-4.8-3.8-17.7-15.2-20.3-22c0,0-16.7,38.7-39.7,38.7
										c-1.5,0,2.5-19.3,6.2-23.3c0,0,21.2-39.6,35-35.4C271.8,87.5,278,96.5,293.9,125.9z"/>
								</g>
							</g>
						</g>
					</g>
					<g>
						<path class="st7" d="M290.1,127.2l-2.1,0.1c-14.1-10.7-20.7-19.8-23.7-25.6c-0.1-0.2-0.3-0.3-0.4-0.3c-0.1,0-0.2,0.1-0.2,0.2
							c-6.8,15.9-14.9,25.5-20.5,30.7c-6.1,5.7-10.6,7.6-10.8,7.6l-0.3-0.6l-0.3-0.6c0,0,4.5-1.9,10.4-7.4
							c5.5-5.1,13.5-14.5,20.1-30.2c0.3-0.6,0.8-1,1.4-1c0.7,0,1.3,0.4,1.6,1C268.6,106.9,275.3,116.2,290.1,127.2z"/>
					</g>
					<path class="st14" d="M280.6,124.9c0.6,1.1,1.6,2.7,2.6,3.5c0,0,8.1-0.4,12.1-2.4l-1.8-4.1C293.5,121.9,287,124.3,280.6,124.9z
						"/>
				</g>
			</g>
			<g>
				<g>
					<polygon class="st6" points="279.7,199.5 282.9,206.6 276.3,209.4 272.5,202.1 					"/>
					<g>
						<g>
							<g>
								<path class="st12" d="M281.5,206.4c0,0,0.7-2.9,2-3.3c1.3-0.5,14.7,3.1,18.3,2.3c3.7-0.8,4.1,2,4,3.5
									c-0.1,1.5-27.3,11.3-27.3,11.3s-4.2-7.6-4.3-10.3C274,207.1,279.1,208.2,281.5,206.4z"/>
							</g>
							<g>
								<g>
									<path class="st13" d="M289.3,209.5c-0.1,0.1-0.2,0.1-0.4,0.1c-0.3,0-0.5-0.3-0.5-0.6c0-0.1,0.3-2.3,1.4-3.7
										c1.4-1.7,3.3-1.3,3.4-1.3c0.3,0.1,0.5,0.3,0.4,0.6c-0.1,0.3-0.3,0.5-0.6,0.4c-0.1,0-1.4-0.3-2.4,1
										c-0.9,1.1-1.1,3.1-1.1,3.1C289.5,209.3,289.4,209.5,289.3,209.5z"/>
								</g>
								<g>
									<path class="st13" d="M287.3,208.8c-0.1,0.1-0.2,0.1-0.4,0.1c-0.3,0-0.5-0.3-0.5-0.6c0-0.1,0.3-2.3,1.4-3.7
										c1.4-1.7,3.3-1.3,3.4-1.3c0.3,0.1,0.5,0.3,0.4,0.6c-0.1,0.3-0.3,0.5-0.6,0.4c-0.1,0-1.4-0.3-2.4,1
										c-0.9,1.1-1.1,3.1-1.1,3.1C287.5,208.6,287.4,208.7,287.3,208.8z"/>
								</g>
								<g>
									<path class="st13" d="M291.7,209.8c-0.1,0.1-0.2,0.1-0.4,0.1c-0.3,0-0.5-0.3-0.5-0.6c0-0.1,0.3-2.3,1.4-3.7
										c1.4-1.7,3.3-1.3,3.4-1.3c0.3,0.1,0.5,0.3,0.4,0.6c-0.1,0.3-0.3,0.5-0.6,0.4c-0.1,0-1.4-0.3-2.4,1
										c-0.9,1.1-1.1,3.1-1.1,3.1C291.9,209.6,291.8,209.7,291.7,209.8z"/>
								</g>
							</g>
						</g>
					</g>
				</g>
				<g>
					<g>
						<g>
							<g>
								<g>
									<path class="st9" d="M281.4,200.9c-0.7,0.8-2.8,1.9-5.1,3c-0.4,0.2-0.8,0.4-1.3,0.5c-0.7,0.3-1.5,0.6-2.2,0.8
										c0,0-15.5-28.6-21.5-49.4c0,0-52.6-6.5-54.4-24.9c-0.1-0.6-0.1-1.2,0-1.9c0.2-1.8,0.8-3.6,1.9-5.6
										c1.2-2.1,19.2-0.1,28.9,2.7c0,0,26.4,10.3,36.1,20.9C268.8,152.3,281.4,200.9,281.4,200.9z"/>
								</g>
							</g>
						</g>
						<g>
							<path class="st7" d="M276.3,203.8c-0.4,0.2-0.8,0.4-1.3,0.5c-7.9-13-18.8-43.4-21.2-50.7c-0.2-0.5-0.6-0.9-1.1-1
								c-25.6-4.8-40.3-11.5-48.1-16.3c-3.5-2.1-5.9-4-7.7-5.6c-0.1-0.6-0.1-1.2,0-1.9c1.7,1.6,4.4,3.9,8.5,6.4
								c7.8,4.7,22.3,11.3,47.5,16c1,0.2,1.8,0.9,2.1,1.9C257.6,160.5,268.5,191.1,276.3,203.8z"/>
						</g>
					</g>
					<path class="st14" d="M270.1,202.2l2.5,4c0,0,6.2-1.1,10.4-5.3l-1.5-3.5C281.4,197.3,273.8,201,270.1,202.2z"/>
				</g>
			</g>
		</g>
		<g>
			<g>
				<path class="st6" d="M358.6,181c0,0-4.4,8.3-9.5,14.9c-1.5,1.9-3.1,3.7-4.7,5.1c-2.5,2.2-5,3.4-7,2.4
					c-7.5-3.7-24.1-33.1-24.1-33.1l4.1-4.8c0,0,7.4,8.4,12.8,13.4c5,4.6,8.8,8.1,8.8,8.1c0.7-1,1.4-2.2,2.2-3.4
					c0.8-1.3,1.7-2.6,2.5-4c6.2-10,13.8-21,13.8-21L358.6,181z"/>
				<path class="st6" d="M318.4,168.5c0,0,1.7-2.8,1-5.3c-0.7-2.5-1.3-8.1-4-8c-1,0.1,0.5,2.4-0.2,4.6c0,0-2.9-1.4-4.9-2.8
					c-1.7-1.3-5.3-3.3-6.9-4.3c-0.5-0.3-1,0.2-0.7,0.7c0.4,0.7,1.5,1.8,3.8,3.3c0,0-5.9-3.3-6.9-2.6s6.5,4.8,6.5,4.8
					s-6.1-2.4-6.6-1.6c-0.3,0.5,5.6,4,5.6,4s-5.9-1.8-4.8-0.4c0.3,0.4,11.5,5.5,13.9,11.4C314.3,172.3,317.6,170.5,318.4,168.5z"/>
				<path class="st10" d="M349,195.9c-1.5,1.9-3.1,3.7-4.7,5.1l-3.2-17.3c0.8-1.3,1.7-2.6,2.5-4L349,195.9z"/>
				<path class="st15" d="M357.7,158l-15.8,22.8l5,20.3l12.4-19.8C359.3,181.3,361.6,168.1,357.7,158z"/>
			</g>
			<g>
				<g>
					<path class="st6" d="M365.5,351.6c0.1,2.5,0.1,5,0.2,7.5c2.2-0.2,4.5-0.3,6.7-0.5c0.1-2.6,0.2-5.3,0.3-7.9
						C370.3,351,367.9,351.3,365.5,351.6z"/>
					<g>
						<path class="st9" d="M382.5,241.6c-0.2,4.7-0.2,5.7-0.6,11.2c-1,15.2-2.5,36-4.2,51c-1.7,15-0.3,26.9,0.1,41
							c0.1,2.4-0.6,3.4-1.8,5.2c-0.4,0.6-0.9,0.9-1.5,1.3c-1.1,0.6-2,1.1-3.4,1.1c-1.4,0-3.7,0.5-5,0.2c-4.2-0.7-6.9-1.9-7-7.2
							c-0.2-13,0.2-28.6-0.5-42c-0.7-12.8,0.9-40.6,1.3-48.7c0.4-6.8,0.1-1.6,0.1-1.6c3.1-5.3,1.3-7.3,0.7-12.2
							C368,241.2,375.2,241.6,382.5,241.6z"/>
					</g>
					<path class="st7" d="M360.7,241c7.2,0.2,14.5,0.5,21.7,0.7c-0.1,3.6-0.3,7.2-0.6,10.7c-7.3,0.7-14.6,0.9-21.9,0.2
						C360.3,248.7,360.5,244.9,360.7,241z"/>
					<g>
						<path class="st7" d="M375.5,324.4c0.2,6.7,0.6,14.4,0.6,21.1c0,1.9,0,2.8-0.1,4.6c-0.5,0.5-1,0.9-1.5,1.3
							c0.1-2.3,0.1-3.3,0.1-5.9c0-6.6-0.4-14.3-0.6-21c-0.2-8.2-0.9-13,0-21.8c1.9-19.3,3.5-41.3,4.4-61.3c0.5,0,1,0,1.5,0.1
							c-0.9,20.1-2.5,41.9-4.4,61.4C374.6,311.4,375.3,316.3,375.5,324.4z"/>
					</g>
					<g>
						<g>
							<g>
								<g>
									<path class="st16" d="M367.5,358.7c-1.3-0.2-0.6-2.4-3-1.4c-2.3,1-10,6.8-12.2,7.8c-2.2,1-5.1,2.1-1.4,4
										c3.7,1.9,17.6-0.6,23-1.2c0.4-2.8,0.9-6.6-0.1-9.1C372.9,356.4,369.1,359.1,367.5,358.7z"/>
								</g>
								<g>
									<g>
										<path class="st13" d="M362.5,363.8c0.2,0.1,0.2,0.1,0.3-0.1c0.1-0.2,0.4-0.1,0.1-0.6s-1.4-1.8-2.1-2.1
											c-0.9-0.5-2.4-0.2-2.9,0.2c-0.5,0.4-0.3,0.4-0.2,0.6c0.1,0.2,0.2,0.3,0.6,0c0.4-0.3,1.4-0.4,2-0.1
											c0.6,0.3,1.5,1.4,1.8,1.8S362.4,363.7,362.5,363.8z"/>
									</g>
									<g>
										<path class="st13" d="M363.8,362.6c0.2,0.1,0.2,0.1,0.3-0.1c0.1-0.2,0.4-0.1,0.1-0.6c-0.3-0.5-1.4-1.8-2.1-2.1
											c-0.9-0.5-2.4-0.2-2.9,0.2c-0.5,0.4-0.3,0.4-0.2,0.6c0.1,0.2,0.2,0.3,0.6,0s1.4-0.4,2-0.1c0.6,0.3,1.5,1.4,1.8,1.8
											S363.6,362.5,363.8,362.6z"/>
									</g>
									<g>
										<path class="st13" d="M360.8,364.9c0.2,0.1,0.2,0.1,0.3-0.1c0.1-0.2,0.4-0.1,0.1-0.6s-1.4-1.8-2.1-2.1
											c-0.9-0.5-2.4-0.2-2.9,0.2s-0.3,0.4-0.2,0.6c0.1,0.2,0.2,0.3,0.6,0c0.4-0.3,1.4-0.4,2-0.1c0.6,0.3,1.5,1.4,1.8,1.8
											C360.8,365,360.7,364.8,360.8,364.9z"/>
									</g>
								</g>
							</g>
						</g>
					</g>
				</g>
				<g>
					<path class="st6" d="M399.1,351.2c0.1,2.5,0.3,5,0.4,7.6c2,0.1,4,0.2,6,0.3c0.2-2.7,0.5-5.4,0.7-8.1
						C403.9,351.1,401.5,351.2,399.1,351.2z"/>
					<g>
						<path class="st9" d="M412.3,302.3c-0.3,16-0.4,28.6-0.7,42.8c-0.1,5.8-2.9,6.3-7.1,7.4c-1.4,0.4-3.7-0.3-5-0.2s-2.1-0.4-3.1-1
							c-0.6-0.3-1-0.6-1.5-1.3c-1.4-1.8-2-2.8-2-5.4c0.5-14.2,2.1-26.1,0.3-41.3c-1.8-15.2-3.7-35.9-5.3-51.3
							c-0.5-5.1-0.5-6.1-0.9-10.5c7.9-0.1,15.1-3.7,22.9-4c0.2,2.6,0.5,2.5,0.5,5.7C410.8,261.5,412.7,284.8,412.3,302.3z"/>
					</g>
					<path class="st7" d="M410.4,243c-7.8,3.5-14,7-22.5,8.7c-0.3-3.3-0.6-6.7-0.9-10c7.9-0.3,15.1-3.8,22.8-4
						C410.1,239.5,410.3,241.2,410.4,243z"/>
					<g>
						<path class="st7" d="M396.3,345.3c0,2.7,0,3.7,0.1,6.1c-0.6-0.4-1-0.8-1.5-1.3c-0.1-1.8-0.1-2.8,0-4.8
							c0-6.8,0.6-14.6,0.8-21.3c0.2-8.1,1-13.1,0.1-21.6c-2-19.5-4.4-41.1-5.8-61.2c0.5-0.1,1-0.2,1.5-0.2
							c1.3,19.9,3.8,41.8,5.8,61.1c0.9,8.8,0.2,13.7-0.1,21.9C396.9,330.8,396.3,338.7,396.3,345.3z"/>
					</g>
					<g>
						<g>
							<path class="st16" d="M402,357.8c1-0.2,2.2-1.1,4-0.4c1.8,0.7,5.8,6.5,7.7,7.1c3.3,1,3.8,6,1.6,6.3c-6.1,0.9-11-1.3-16.6-2.5
								c-0.1-2.8-0.8-6.8-0.1-9.2S400.1,358.2,402,357.8z"/>
						</g>
						<g>
							<g>
								<path class="st13" d="M406.7,364.1c-0.2,0.1-0.2,0.1-0.3-0.1c-0.1-0.2-0.4-0.1,0-0.7c0.3-0.5,1.6-1.6,2.3-1.9
									c1-0.4,2.4,0,2.9,0.5c0.5,0.4,0.2,0.5,0.1,0.7s-0.3,0.3-0.6,0s-1.4-0.6-2-0.3c-0.7,0.3-1.7,1.2-2,1.6
									C406.8,364.3,406.9,364.1,406.7,364.1z"/>
							</g>
							<g>
								<path class="st13" d="M405.6,362.7c-0.2,0.1-0.2,0.1-0.3-0.1c-0.1-0.2-0.4-0.1,0-0.7c0.3-0.5,1.6-1.6,2.3-1.9
									c1-0.4,2.4,0,2.9,0.5s0.2,0.5,0.1,0.7c-0.1,0.2-0.3,0.3-0.6,0c-0.4-0.3-1.4-0.6-2-0.3s-1.7,1.2-2,1.6
									S405.8,362.7,405.6,362.7z"/>
							</g>
							<g>
								<path class="st13" d="M408.3,365.4c-0.2,0.1-0.2,0.1-0.3-0.1c-0.1-0.2-0.4-0.1,0-0.7c0.3-0.5,1.6-1.6,2.3-1.9
									c1-0.4,2.4,0,2.8,0.5c0.5,0.5,0.2,0.5,0.1,0.7c-0.1,0.2-0.3,0.3-0.6,0c-0.4-0.3-1.3-0.6-2-0.3s-1.7,1.2-2,1.6
									S408.5,365.3,408.3,365.4z"/>
							</g>
						</g>
					</g>
				</g>
			</g>
			<g>
				<g>
					<g>
						<path class="st15" d="M415.9,233.9c-24.5,15.2-31.3,15.1-58.4,7.1c-0.3-16.8-0.1-33.5,0.9-50.3c0-0.3,0-1.1,0-1.4s0-0.6,0-0.8
							s0-0.1,0-0.2c-0.1-0.1,0.1-1.1,0.1-1.2c-0.6-7.5-1-22.7-0.9-28.2s0.4-1,0.2-4.4c4.9-8.1,13-10.2,21.9-12.8
							c1.4,1.6,2.6,3.4,4.8,3.8c2.2,0.4,3.6-1,5.3-2.3c0.1-0.5,0-0.8,0.1-1.3c12.9,10.7,20-2.8,21.3,18.9
							C412.5,184.7,407.8,210.4,415.9,233.9z"/>
					</g>
				</g>
				<g>
					<g>
						<path class="st5" d="M361.5,179.3c-1.7,2.2-4.2,7.3-5.3,9.7c-0.2,0.3-0.3,0.6-0.4,0.8c-0.1,0.3-0.2,0.4-0.2,0.4
							c0,0.1-0.1,0.1-0.2,0.2c0-0.5,0-0.9,0-1.4c0-0.2,0-0.5,0-0.7v0c0.2-0.5,0.5-1,0.8-1.7c1.3-2.6,3.1-6.1,4.4-7.9
							c0.1-0.2,0.4-0.2,0.6-0.1C361.6,178.9,361.6,179.1,361.5,179.3z"/>
					</g>
				</g>
				<g>
					<g>
						<path class="st5" d="M399.2,161.9C399.2,161.9,399.2,161.9,399.2,161.9c-7.8-0.2-13.9-3.4-17.6-6.1c-4-2.9-6.1-5.6-6.2-5.7
							c-0.2-0.2-0.1-0.5,0.1-0.6c0.2-0.1,0.5-0.1,0.6,0.1c0.1,0.1,8.5,11,23.1,11.4c0.3,0,0.4,0.2,0.4,0.5
							C399.6,161.8,399.4,161.9,399.2,161.9z"/>
					</g>
				</g>
				<g>
					<g>
						<path class="st5" d="M372.8,235c-0.2,0-0.4-0.2-0.5-0.4c0-0.2,0.2-0.5,0.4-0.5c12.8-0.8,20.5-7.2,24.7-12.4
							c4.5-5.7,6-11.2,6-11.3c0.1-0.2,0.3-0.4,0.6-0.3c0.2,0.1,0.4,0.3,0.3,0.5c-0.1,0.2-1.6,5.8-6.2,11.6
							C393.9,227.6,386.1,234.1,372.8,235C372.8,235,372.8,235,372.8,235z"/>
					</g>
				</g>
				<g>
					<g>
						<path class="st5" d="M379.7,227c-0.2,0-0.4-0.1-0.4-0.3c-0.1-0.2,0.1-0.5,0.3-0.5c11.2-3,13.3-12.1,13.3-12.2
							c0.1-0.2,0.3-0.4,0.5-0.3c0.2,0.1,0.4,0.3,0.3,0.5c0,0.1-0.6,2.5-2.6,5.3c-1.8,2.6-5.3,6-11.4,7.6
							C379.8,227,379.8,227,379.7,227z"/>
					</g>
				</g>
			</g>
			<g>
				<path class="st6" d="M428.6,249.2c-0.3,3.9-2.7,6.8-2.7,9.4c0,2.6-3,0.9-1.6-4.2c1.4-5.1-0.7-10-1.8-10c-1.1,0,0.4,5.7-0.8,7.6
					c-1.2,1.9-2.1-2.1-3.1-4.5c-1.1-2.5-0.5-7.8,0.5-11.6c1-3.7-3.8-27.3-3.1-34l-1.7-8.6l-1-5l-0.2-5.3l9.1-3.5
					c0.3,1.7,0.7,3.4,1,5.2c0.2,0.8,0.3,1.6,0.5,2.3c1.2,6.3,2.3,12.5,2.8,16.5c1.2,11-0.8,33.4-0.8,33.4S428.9,245.5,428.6,249.2z"
					/>
				<path class="st10" d="M423.7,187.1c-2.1,2.3-5.3,5.2-9.4,6.3l-1-5l-0.2-5.3l9.1-3.5c0.3,1.7,0.7,3.4,1,5.2
					C423.4,185.5,423.5,186.3,423.7,187.1z"/>
				<g>
					<g>
						<path class="st15" d="M426.1,182.1c-1.5,1.5-1.4,1.6-3.7,2.8c-2.8,1.5-7.9,3.1-11.6,3c0.1-9.6,1.4-20.6,0.2-30.1
							C416.3,165.6,421.3,174,426.1,182.1z"/>
					</g>
				</g>
			</g>
			<g>
				<g>
					<path class="st5" d="M407,177.9c1.7,2.2,4.2,7.3,5.3,9.7c0.2,0.3,0.3,0.6,0.4,0.8c0.1,0.3,0.2,0.4,0.2,0.4
						c0.1,0.2,0.2,0.3,0.4,0.3h0c0-0.2,0-0.5,0-0.7c0.1,0,0.3,0,0.4,0c-0.1-0.1-0.2-0.5-0.4-0.9c-0.3-0.6-0.6-1.4-1.1-2.2
						c-1.3-2.6-3.1-6.1-4.4-7.9c-0.2-0.2-0.4-0.2-0.6-0.1C406.9,177.4,406.8,177.7,407,177.9z"/>
				</g>
			</g>
			<g>
				<path class="st9" d="M398.7,121c0,7.9-5,13.3-13,13.3c-8.1,0-13.7-5.8-13.7-13.7s4.8-13.9,12.8-13.9
					C394.5,106.7,398.7,113.1,398.7,121z"/>
				<g>
					<path class="st10" d="M396.9,124.4c0,0,2.2-2.9,3.9-0.5c1.7,2.4-0.7,9.6-4.8,7.8L396.9,124.4z"/>
					<g>
						<g>
							<g>
								<path class="st11" d="M396.9,129.5c0.2,0,0.3-0.1,0.3-0.2c0.6-2.2,3-3.1,3-3.1c0.2-0.1,0.3-0.3,0.2-0.4
									c-0.1-0.2-0.3-0.3-0.4-0.2c-0.1,0-2.7,1-3.4,3.6C396.6,129.2,396.7,129.4,396.9,129.5C396.9,129.5,396.9,129.5,396.9,129.5z
									"/>
							</g>
						</g>
					</g>
					<g>
						<g>
							<g>
								<path class="st11" d="M399.3,128.4c0.1,0,0.1,0,0.2-0.1c0.2-0.1,0.2-0.3,0.1-0.5c0,0-0.4-0.6-1.3-1c-0.2-0.1-0.4,0-0.5,0.2
									c-0.1,0.2,0,0.4,0.2,0.4c0.7,0.3,1,0.8,1,0.8C399.1,128.3,399.2,128.4,399.3,128.4z"/>
							</g>
						</g>
					</g>
				</g>
				<g>
					<path class="st10" d="M373.9,124.4c0,0-2.2-2.9-3.9-0.5c-1.7,2.4,0.7,9.6,4.8,7.8L373.9,124.4z"/>
					<g>
						<path class="st11" d="M373.8,129.5c-0.2,0-0.3-0.1-0.3-0.2c-0.6-2.2-3-3.1-3-3.1c-0.2-0.1-0.3-0.3-0.2-0.4
							c0.1-0.2,0.3-0.3,0.4-0.2c0.1,0,2.7,1,3.4,3.6C374.2,129.2,374.1,129.4,373.8,129.5C373.9,129.5,373.9,129.5,373.8,129.5z"/>
					</g>
					<g>
						<g>
							<g>
								<path class="st11" d="M371.5,128.4c-0.1,0-0.1,0-0.2-0.1c-0.2-0.1-0.2-0.3-0.1-0.5c0,0,0.4-0.6,1.3-1c0.2-0.1,0.4,0,0.5,0.2
									c0.1,0.2,0,0.4-0.2,0.4c-0.7,0.3-1,0.8-1,0.8C371.7,128.3,371.6,128.4,371.5,128.4z"/>
							</g>
						</g>
					</g>
				</g>
				<path class="st6" d="M379.9,137.7v7.1c0,0,2.2,3.6,5.1,3.9c2.9,0.2,5.5-3.1,5.5-3.1v-7.3L379.9,137.7z"/>
				<path class="st10" d="M379.9,137.7v3.1c2,2.1,5.4,2.7,10.6,1.9v-4.6L379.9,137.7z"/>
				<path class="st6" d="M398.1,124.2c-0.1,1.5-0.3,3.1-0.6,4.7c-1,5.2-3.2,10.4-7.9,12c-10.7,3.7-14.5-5.2-16-10.5
					c-0.2-0.6-0.3-1.2-0.5-1.9c-0.2-1.2-0.4-2.6-0.6-4c-0.2-1.7-0.3-3.4-0.4-4.9c-0.2-3.2,1.8-6.1,4.8-7.2c4.4-1.6,11-3,17.3,0.5
					c2.3,1.3,3.8,3.7,3.8,6.3C398.3,120.5,398.2,122.3,398.1,124.2z"/>
				<g>
					<path class="st9" d="M396.8,124.5c-1,2.5-1,5.5-2.7,7.6c-1.7-2.5-5.1-1.6-7.5-0.8c-0.5,0.2-0.7,0.2-1.2,0.2s-0.6,0-1.2-0.2
						c-0.1,0,0.7,0.2-0.3-0.1c-1-0.3-6.1-1.4-7,1.1c-1.6-2.8-1.9-4.7-2.7-7.7c-0.5,0-1-0.1-1.5-0.1c0.2,1.4,0,2.8,0.5,4.1
						c0.3,0.7,0.5,1,0.7,1.9c2.4,8,6.6,12.9,16,10.2c4.1-1.2,6.9-7,7.7-11.6c0.2-1.4,0.5-3.4,0.6-4.8
						C397.7,124.2,397.2,124.4,396.8,124.5z M391.1,135.1c-0.2,1.6,0,0,0,0.3c-0.1,0.4,0,0.1,0,0.1c-0.6-0.1-1.1,0.9-1.4,1
						c-1.5,0.8-2.6,1.3-4.1,1.3c-1.6,0-2.7-0.4-4.2-1.1c-0.5-0.2-1.4-1-1.9-1.4c-0.7-3.2,4-2.9,5.8-2.7
						C388.2,131.3,391.4,133.2,391.1,135.1z"/>
				</g>
				<path class="st9" d="M372.6,124.4h1.6c-0.2-1.5-0.4-4.2,0.9-4.6c4.1-1.2-1.2-4,0.6-5.4c1.8-1.4,6.4-0.8,9.6-0.9
					c3.2-0.1,8.3-0.1,9.6,0.2c1.2,0.3,0.6,2.3,0.1,3.9c-0.5,1.6,1.5,3.3,1.9,4.9c0.1,0.5,0.1,1.2,0,1.9h1.3c0.2-2,0.2-3.8,0.1-5.3
					c-0.1-2.6-1.5-5-3.8-6.3c-6.3-3.5-12.9-2.2-17.3-0.5c-3,1.1-5,4.1-4.8,7.2C372.3,121,372.4,122.7,372.6,124.4z"/>
			</g>
		</g>
		<g>
			<g>
				<g>
					<g>
						<path class="st13" d="M143.9,297.1H64.8c1.3-7.9,7.6-13.7,15-13.7l24.6,0.1l24.6-0.1C136.3,283.4,142.6,289.2,143.9,297.1z"/>
					</g>
					<g>
						<rect x="71" y="296" class="st13" width="4.3" height="73.8"/>
						<rect x="133.4" y="296" class="st13" width="4.3" height="73.8"/>
						<rect x="75.3" y="316.7" class="st0" width="58.1" height="4.2"/>
					</g>
				</g>
				<g>
					<path class="st15" d="M85,197.8c0,0-13.2,17.6-15,33c-1.2,10.9,15,27.1,15,27.1l5.6-2.8L85,242.5c-2-6.1-4.4-8.5-2.6-14.7
						l4-8.7L85,197.8z"/>
					<path class="st15" d="M126.6,197.5c0,0,13,18.8,14.1,34.2c0.9,13.3-15,26.1-15,26.1l-4.6-2.3l6.4-12.7c2-6.1,2.9-9.8,0.2-16.5
						l-3.4-7.3L126.6,197.5z"/>
					<g>
						<g>
							<path class="st15" d="M87.7,237.9l-8.8,27.9c0,0,37.9,4.8,49.5,1.7l-5.9-30.4l4.1-39.6c-5.7-2.4-11.7-3.9-17.8-4.4
								c-9-0.6-14.6,0.8-23.8,4.6L87.7,237.9z"/>
							<g>
								<path class="st15" d="M97.1,206.2c8.4-1,16.2-6.7,16.5-7c0.2-0.2,0.2-0.4,0.1-0.7c-0.2-0.2-0.4-0.2-0.7-0.1
									c-0.1,0.1-9.3,6.8-18.1,6.9c-0.3,0-0.5,0.2-0.5,0.5c0,0.3,0.2,0.5,0.5,0.5C95.7,206.3,96.4,206.3,97.1,206.2z"/>
							</g>
						</g>
					</g>
					<g>
						<polygon class="st6" points="103.9,355.6 104.6,361.7 111.1,361.9 111.7,356.8 						"/>
						<g>
							<path class="st7" d="M102.9,258c0,0-17-0.9-22.7,3.8c-5.7,4.7-4.6,18.2,1.3,21.9c5.9,3.7,15.8,10.9,15.8,10.9l6.3,63.1
								l8.4,0.3c0,0,7.7-63.3,3.8-75.6C111.9,270,102.9,258,102.9,258z"/>
							<path class="st9" d="M112.7,354.7c0.5,1.5,0.2,2.9-0.2,4.3l-9.6-0.2c-0.3-1.4-0.4-2.8-0.2-4.2L112.7,354.7z"/>
						</g>
					</g>
					<g>
						<path class="st13" d="M126.9,257.5H82.4l-4.1-24c-0.4-2.1,1.2-4,3.4-4h46c2.1,0,3.7,1.9,3.4,4L126.9,257.5z"/>
						<g>
							<path class="st0" d="M123.3,262.7H86c-2,0-3.6-1.6-3.6-3.6v-1.6h44.5v1.6C126.9,261.1,125.3,262.7,123.3,262.7z"/>
						</g>
						<g>
							<path class="st0" d="M108.6,244.5c0,2.1-1.7,3.9-3.9,3.9c-2.1,0-3.9-1.7-3.9-3.9c0-2.1,1.7-3.9,3.9-3.9
								C106.8,240.6,108.6,242.3,108.6,244.5z"/>
						</g>
					</g>
					<g>
						<polygon class="st6" points="76.1,338.2 74.6,344.3 80.5,345.5 82.9,340.1 						"/>
						<g>
							<path class="st9" d="M111.5,256.9c0,0-11.4-3.9-18,4.3c-6.7,8.2-17.8,77.6-17.8,77.6l7.6,3.2l24.6-61.6c0,0,20,11.4,22.4-4.8
								C132.2,262.7,111.5,256.9,111.5,256.9z"/>
							<path class="st14" d="M85,338.8c0,1.6-0.7,2.9-1.6,4.2l-9.4-3.3c0.1-1.5,0.5-2.9,1.2-4.2L85,338.8z"/>
						</g>
					</g>
					<g>
						<g>
							<path d="M79.1,343.3c0,0-3.6-1.8-4.6-2c-1-0.2-9.7,5.9-12.2,5.9c-4.4-0.1-5.9,6.4-3.3,7.3c7.3,2.6,20.8,2.3,20.8,2.3
								s3-8.1,3.1-10.9C83,343.2,81,344.6,79.1,343.3z"/>
						</g>
						<g>
							<g>
								<path class="st13" d="M71.3,349.1c0.1,0.1,0.3,0.1,0.4,0c0.3-0.1,0.4-0.4,0.3-0.7c0-0.1-0.9-2.2-2.4-3.2
									c-1.9-1.3-3.7-0.4-3.8-0.4c-0.3,0.1-0.4,0.5-0.2,0.7c0.1,0.3,0.5,0.3,0.7,0.2c0,0,1.3-0.6,2.6,0.3c1.2,0.8,2,2.7,2,2.7
									C71.1,349,71.2,349.1,71.3,349.1z"/>
							</g>
							<g>
								<path class="st13" d="M73.1,347.9c0.1,0.1,0.3,0.1,0.4,0c0.3-0.1,0.4-0.4,0.3-0.7c0-0.1-0.9-2.2-2.4-3.2
									c-1.9-1.3-3.7-0.4-3.8-0.4c-0.3,0.1-0.4,0.5-0.2,0.7c0.1,0.3,0.5,0.3,0.7,0.2c0,0,1.3-0.6,2.6,0.3c1.2,0.8,2,2.7,2,2.7
									C72.9,347.8,73,347.9,73.1,347.9z"/>
							</g>
							<g>
								<path class="st13" d="M69,350c0.1,0.1,0.3,0.1,0.4,0c0.3-0.1,0.4-0.4,0.3-0.7c0-0.1-0.9-2.2-2.4-3.2
									c-1.9-1.3-3.7-0.4-3.8-0.4c-0.3,0.1-0.4,0.5-0.2,0.7c0.1,0.3,0.5,0.3,0.7,0.2c0,0,1.3-0.6,2.6,0.3c1.2,0.8,2,2.7,2,2.7
									C68.8,349.9,68.9,350,69,350z"/>
							</g>
						</g>
					</g>
					<g>
						<g>
							<path d="M107.1,361.5c0,0,3.6-1.1,4.7-1.1c1,0,8.1,7.2,10.4,7.5c4.2,0.6,4.4,7,1.9,7.4c-7.3,1.2-20-1.3-20-1.3
								s-1.5-8.1-1.1-10.7C103.5,360.6,105.1,362.3,107.1,361.5z"/>
						</g>
						<g>
							<g>
								<path class="st13" d="M113.4,368.2c-0.1,0-0.3,0-0.4-0.1c-0.2-0.1-0.3-0.5-0.2-0.7c0-0.1,1.2-1.9,2.7-2.6
									c2-0.9,3.5,0.2,3.6,0.3c0.2,0.2,0.3,0.5,0.1,0.7c-0.2,0.2-0.5,0.3-0.7,0.1c0,0-1.1-0.8-2.5-0.2c-1.2,0.6-2.3,2.2-2.3,2.2
									C113.7,368.1,113.6,368.2,113.4,368.2z"/>
							</g>
							<g>
								<path class="st13" d="M112,366.7c-0.1,0-0.3,0-0.4-0.1c-0.2-0.1-0.3-0.5-0.2-0.7c0-0.1,1.2-1.9,2.7-2.6
									c2-0.9,3.5,0.2,3.6,0.3c0.2,0.2,0.3,0.5,0.1,0.7c-0.2,0.2-0.5,0.3-0.7,0.1c0,0-1.1-0.8-2.5-0.2c-1.2,0.6-2.3,2.2-2.3,2.2
									C112.2,366.6,112.1,366.7,112,366.7z"/>
							</g>
							<g>
								<path class="st13" d="M115.4,369.4c-0.1,0-0.3,0-0.4-0.1c-0.2-0.1-0.3-0.5-0.2-0.7c0-0.1,1.2-1.9,2.7-2.6
									c2-0.9,3.5,0.2,3.6,0.3c0.2,0.2,0.3,0.5,0.1,0.7c-0.2,0.2-0.5,0.3-0.7,0.1c0,0-1.1-0.8-2.5-0.2c-1.2,0.6-2.3,2.2-2.3,2.2
									C115.7,369.3,115.6,369.4,115.4,369.4z"/>
							</g>
						</g>
					</g>
					<g>
						<path class="st9" d="M117,158c0,0,5.4,8.4,4.8,17.1c-0.6,8.7,0.8,18.8-7,18.3c-7.8-0.4-21.7,3.1-26.1-3.7
							C84.3,183,117,158,117,158z"/>
						<path class="st17" d="M119,173.4c0,0,1.4,12.6-4.6,16.1c-6,3.5-10.3-0.4-10.3-0.4S116.7,171.5,119,173.4z"/>
						<g>
							<g>
								<path class="st10" d="M94.1,173.3c0,0-2.1-2.9-3.7-0.5c-1.6,2.4,0.7,9.4,4.6,7.7L94.1,173.3z"/>
								<g>
									<path class="st11" d="M94.1,178.3c-0.1,0-0.3-0.1-0.3-0.2c-0.6-2.2-2.8-3-2.9-3c-0.2-0.1-0.3-0.3-0.2-0.4
										c0.1-0.2,0.3-0.3,0.4-0.2c0.1,0,2.6,1,3.3,3.5C94.5,178.1,94.4,178.3,94.1,178.3C94.2,178.3,94.1,178.3,94.1,178.3z"/>
								</g>
								<g>
									<path class="st11" d="M91.8,177.2c-0.1,0-0.1,0-0.2-0.1c-0.2-0.1-0.2-0.3-0.1-0.5c0,0,0.4-0.6,1.2-1c0.2-0.1,0.4,0,0.4,0.2
										c0.1,0.2,0,0.4-0.2,0.4c-0.6,0.3-1,0.8-1,0.8C92.1,177.2,91.9,177.2,91.8,177.2z"/>
								</g>
							</g>
							<g>
								<path class="st10" d="M116.3,173.3c0,0,2.1-2.9,3.7-0.5c1.6,2.4-0.7,9.4-4.6,7.7L116.3,173.3z"/>
								<g>
									<path class="st11" d="M116.3,178.3c0.1,0,0.3-0.1,0.3-0.2c0.6-2.2,2.8-3,2.9-3c0.2-0.1,0.3-0.3,0.2-0.4
										c-0.1-0.2-0.3-0.3-0.4-0.2c-0.1,0-2.6,1-3.3,3.5C115.9,178.1,116,178.3,116.3,178.3C116.2,178.3,116.3,178.3,116.3,178.3z"
										/>
								</g>
								<g>
									<path class="st11" d="M118.6,177.2c0.1,0,0.1,0,0.2-0.1c0.2-0.1,0.2-0.3,0.1-0.5c0,0-0.4-0.6-1.2-1c-0.2-0.1-0.4,0-0.4,0.2
										c-0.1,0.2,0,0.4,0.2,0.4c0.6,0.3,1,0.8,1,0.8C118.4,177.2,118.5,177.2,118.6,177.2z"/>
								</g>
							</g>
							<path class="st6" d="M110.5,186.4v7c0,0-2.1,3.5-4.9,3.8c-2.8,0.2-5.3-3.1-5.3-3.1v-7.2L110.5,186.4z"/>
							<path class="st10" d="M110.5,186.4v3.1c-1.9,2.1-5.2,2.8-10.2,2.1l0-4.7L110.5,186.4z"/>
							<path class="st6" d="M117.8,168.6c-0.1,2.7-0.4,6.1-0.9,8.8c-0.1,0.7-0.3,1.3-0.4,1.9c-1.5,5.1-5.1,13.9-15.4,10.3
								c-4.5-1.6-6.6-6.7-7.6-11.8c-0.6-3.5-0.7-7-0.7-9.5c0-2.6,1.5-4.9,3.7-6.2c6.1-3.4,12.4-2.2,16.7-0.5
								C116.1,162.6,118,165.4,117.8,168.6z"/>
						</g>
						<path class="st9" d="M119.2,168c-0.1,0.3-0.4,0.5-0.8,0.6c0,0.7,0,1.6-0.1,2.4c-0.4,4.8-1.6,5.6-1.9,4.4
							c-0.2-0.8-0.2-5.3-0.1-6.8c-0.9-0.1-1.8-0.2-1.8-0.2l-1.1-4.6l-0.4,4.6c-1.7,0.6-5.5-0.3-5.5-0.3l-1.3-4.6l-0.8,4.4
							c-2.5,1.2-5.6,0.4-5.6,0.4l-0.7-4.7l-1.7,4.7c0,0-5.3,1.9-5.4,0c0-1.1,0.8-4.2,1.5-6.7c0.7-2.6,2.5-4.9,4.8-6.1
							c6.6-3.5,13.6-1.7,16-0.2C119.4,158.4,119.2,168,119.2,168z"/>
						<path class="st9" d="M95,158.4c0,0-4.4,5.2-5.8,14.5c-1.4,9.3-3.4,16.2,2.2,19.3c6.1,3.3,5.5-3.5,5.5-5.3
							c-0.1-1.9-5.3-6.9-1.8-21.2C96.1,161,95,158.4,95,158.4z"/>
						<path class="st17" d="M93.9,177.6C93.9,177.6,93.9,177.6,93.9,177.6c0,0.1,0,0.5,0,1c0,0.4,0,0.8,0.1,1.3
							c0.2,3.1,0.8,8.6,2.6,10.4c0.7,0.7,2.1,1.1,3.7,1.3v-2.5c-1.7-0.8-3-2.1-4-3.7c-0.6-1.4-1.7-3.5-2.2-6.9L93.9,177.6z"/>
						<path class="st13" d="M117.9,180.7c0,0.4-0.3,0.8-0.8,0.8c-0.4,0-0.8-0.3-0.8-0.8c0-0.4,0.3-0.8,0.8-0.8
							C117.6,179.9,117.9,180.2,117.9,180.7z"/>
					</g>
				</g>
			</g>
		</g>
		<g>
			<g>
				<g>
					<g>
						<path class="st2" d="M35.8,243.1h-19c-1.5,0-2.6-1.2-2.6-2.6v-19c0-1.5,1.2-2.6,2.6-2.6h19c1.5,0,2.6,1.2,2.6,2.6v19
							C38.4,241.9,37.2,243.1,35.8,243.1z"/>
					</g>
				</g>
				<path class="st2" d="M26.6,222.9c-3.1-0.2-5.7,2.3-5.7,5.3c0,1,0.3,1.9,0.7,2.7c0.7,1.2,1.4,2.4,2.1,3.6l2.5,4.5l3.8-6.9
					c0.2-0.4,0.5-0.8,0.7-1.2c0.5-0.8,0.8-1.8,0.7-2.8C31.5,225.3,29.4,223.1,26.6,222.9z M26.3,229.8c-1.2,0-2.2-1-2.2-2.2
					c0-1.2,1-2.2,2.2-2.2c1.2,0,2.2,1,2.2,2.2C28.5,228.8,27.5,229.8,26.3,229.8z"/>
			</g>
			<g>
				<g>
					<path class="st2" d="M434.9,121.9c3,0,5.4,2.4,5.4,5.4c0,3-2.4,5.4-5.4,5.4c-3,0-5.4-2.4-5.4-5.4
						C429.5,124.4,431.9,121.9,434.9,121.9z M434.9,131.1c2.1,0,3.7-1.7,3.7-3.7c0-2.1-1.7-3.7-3.7-3.7c-2.1,0-3.7,1.7-3.7,3.7
						C431.2,129.4,432.9,131.1,434.9,131.1z"/>
				</g>
				<g>
					<path class="st2" d="M415.4,102.9c3,0,5.4,2.4,5.4,5.4c0,3-2.4,5.4-5.4,5.4c-3,0-5.4-2.4-5.4-5.4
						C410,105.3,412.4,102.9,415.4,102.9z M415.4,112c2.1,0,3.7-1.7,3.7-3.7c0-2.1-1.7-3.7-3.7-3.7c-2.1,0-3.7,1.7-3.7,3.7
						C411.7,110.4,413.3,112,415.4,112z"/>
				</g>
				<g>
					<g>
						<g>
							<path class="st2" d="M408.7,85.3c0.5,0,0.9,0.4,0.9,0.9v3.8c0,0.5-0.4,0.9-0.9,0.9c-0.5,0-0.9-0.4-0.9-0.9v-3.8
								C407.8,85.7,408.2,85.3,408.7,85.3z"/>
						</g>
						<g>
							<path class="st2" d="M408.7,78.7c0.5,0,0.9,0.4,0.9,0.9v3.8c0,0.5-0.4,0.9-0.9,0.9c-0.5,0-0.9-0.4-0.9-0.9v-3.8
								C407.8,79.1,408.2,78.7,408.7,78.7z"/>
						</g>
					</g>
					<g>
						<g>
							<path class="st2" d="M403.4,83.9h3.4c0.5,0,0.9,0.4,0.9,0.9s-0.4,0.9-0.9,0.9h-3.4c-0.5,0-0.9-0.4-0.9-0.9
								S403,83.9,403.4,83.9z"/>
						</g>
						<g>
							<path class="st2" d="M410.6,83.9h3.4c0.5,0,0.9,0.4,0.9,0.9s-0.4,0.9-0.9,0.9h-3.4c-0.5,0-0.9-0.4-0.9-0.9
								S410.1,83.9,410.6,83.9z"/>
						</g>
					</g>
				</g>
				<g>
					<g>
						<g>
							<g>
								<g>
									<path class="st2" d="M438.6,106.3c0.5,0,0.9,0.4,0.9,0.9v3.8c0,0.5-0.4,0.9-0.9,0.9c-0.5,0-0.9-0.4-0.9-0.9v-3.8
										C437.8,106.7,438.2,106.3,438.6,106.3z"/>
								</g>
							</g>
							<g>
								<g>
									<path class="st2" d="M438.6,99.7c0.5,0,0.9,0.4,0.9,0.9v3.8c0,0.5-0.4,0.9-0.9,0.9c-0.5,0-0.9-0.4-0.9-0.9v-3.8
										C437.8,100.1,438.2,99.7,438.6,99.7z"/>
								</g>
							</g>
						</g>
						<g>
							<g>
								<g>
									<path class="st2" d="M433.4,104.9h3.4c0.5,0,0.9,0.4,0.9,0.9s-0.4,0.9-0.9,0.9h-3.4c-0.5,0-0.9-0.4-0.9-0.9
										S432.9,104.9,433.4,104.9z"/>
								</g>
							</g>
							<g>
								<g>
									<path class="st2" d="M440.5,104.9h3.4c0.5,0,0.9,0.4,0.9,0.9s-0.4,0.9-0.9,0.9h-3.4c-0.5,0-0.9-0.4-0.9-0.9
										S440.1,104.9,440.5,104.9z"/>
								</g>
							</g>
						</g>
					</g>
				</g>
			</g>
			<g>
				<g>
					<path class="st2" d="M99.1,52.7c3,0,5.4,2.4,5.4,5.4c0,3-2.4,5.4-5.4,5.4c-3,0-5.4-2.4-5.4-5.4C93.7,55.1,96.1,52.7,99.1,52.7z
						 M99.1,54.4c-2.1,0-3.7,1.7-3.7,3.7c0,2.1,1.7,3.7,3.7,3.7c2.1,0,3.7-1.7,3.7-3.7C102.8,56,101.2,54.4,99.1,54.4z"/>
				</g>
				<g>
					<g>
						<g>
							<g>
								<path class="st2" d="M79.4,34.8c3,0,5.4,2.4,5.4,5.4c0,3-2.4,5.4-5.4,5.4c-3,0-5.4-2.4-5.4-5.4
									C73.9,37.2,76.4,34.8,79.4,34.8z M79.4,36.5c-2.1,0-3.7,1.7-3.7,3.7c0,2.1,1.7,3.7,3.7,3.7c2.1,0,3.7-1.7,3.7-3.7
									C83.1,38.1,81.4,36.5,79.4,36.5z"/>
							</g>
						</g>
					</g>
				</g>
				<g>
					<g>
						<g>
							<path class="st2" d="M72.2,65.8c0,0.5,0.4,0.9,0.9,0.9h3.8c0.5,0,0.9-0.4,0.9-0.9c0-0.5-0.4-0.9-0.9-0.9h-3.8
								C72.6,64.9,72.2,65.3,72.2,65.8z"/>
						</g>
						<g>
							<path class="st2" d="M65.6,65.8c0,0.5,0.4,0.9,0.9,0.9h3.8c0.5,0,0.9-0.4,0.9-0.9c0-0.5-0.4-0.9-0.9-0.9h-3.8
								C66,64.9,65.6,65.3,65.6,65.8z"/>
						</g>
					</g>
					<g>
						<g>
							<path class="st2" d="M70.8,60.5v3.4c0,0.5,0.4,0.9,0.9,0.9c0.5,0,0.9-0.4,0.9-0.9v-3.4c0-0.5-0.4-0.9-0.9-0.9
								C71.2,59.6,70.8,60,70.8,60.5z"/>
						</g>
						<g>
							<path class="st2" d="M70.8,67.7V71c0,0.5,0.4,0.9,0.9,0.9c0.5,0,0.9-0.4,0.9-0.9v-3.4c0-0.5-0.4-0.9-0.9-0.9
								C71.2,66.8,70.8,67.2,70.8,67.7z"/>
						</g>
					</g>
				</g>
				<g>
					<g>
						<g>
							<g>
								<g>
									<path class="st2" d="M111.9,36.5c0,0.5,0.4,0.9,0.9,0.9h3.8c0.5,0,0.9-0.4,0.9-0.9c0-0.5-0.4-0.9-0.9-0.9h-3.8
										C112.3,35.6,111.9,36,111.9,36.5z"/>
								</g>
							</g>
							<g>
								<g>
									<g>
										<path class="st2" d="M105.4,36.5c0,0.5,0.4,0.9,0.9,0.9h3.8c0.5,0,0.9-0.4,0.9-0.9c0-0.5-0.4-0.9-0.9-0.9h-3.8
											C105.7,35.6,105.4,36,105.4,36.5z"/>
									</g>
								</g>
							</g>
						</g>
						<g>
							<g>
								<g>
									<path class="st2" d="M110.5,31.2v3.4c0,0.5,0.4,0.9,0.9,0.9c0.5,0,0.9-0.4,0.9-0.9v-3.4c0-0.5-0.4-0.9-0.9-0.9
										C110.9,30.4,110.5,30.7,110.5,31.2z"/>
								</g>
							</g>
							<g>
								<g>
									<path class="st2" d="M110.5,38.4v3.4c0,0.5,0.4,0.9,0.9,0.9c0.5,0,0.9-0.4,0.9-0.9v-3.4c0-0.5-0.4-0.9-0.9-0.9
										C110.9,37.5,110.5,37.9,110.5,38.4z"/>
								</g>
							</g>
						</g>
					</g>
				</g>
			</g>
			<g>
				<g>
					<g>
						<g>
							<path class="st0" d="M338,62.6c0.1,0,0.2,0,0.4,0c1.3-0.3,2-0.4,2-0.4c0.4-0.1,0.6-0.4,0.6-0.8c-0.1-0.4-0.4-0.6-0.8-0.5
								c0,0-0.8,0.1-2.1,0.5c-0.4,0.1-0.6,0.5-0.5,0.8C337.6,62.4,337.8,62.6,338,62.6z"/>
						</g>
					</g>
					<g>
						<g>
							<path class="st0" d="M296.4,93.5c-0.7,1.1-1.3,2.3-1.9,3.5c-0.1,0.3-0.5,0.4-0.8,0.4c0,0-0.1,0-0.1,0
								c-0.4-0.2-0.5-0.6-0.3-0.9c0.6-1.2,1.3-2.4,2-3.6c0.2-0.3,0.6-0.4,1-0.3C296.4,92.8,296.5,93.2,296.4,93.5z"/>
						</g>
						<g>
							<path class="st0" d="M292.8,100.7c-0.5,1.2-1,2.5-1.5,3.7c-0.1,0.3-0.5,0.5-0.9,0.4c0,0,0,0-0.1,0c-0.4-0.1-0.6-0.5-0.4-0.9
								c0.5-1.3,1-2.6,1.5-3.8c0.1-0.3,0.6-0.5,0.9-0.4C292.7,99.9,292.9,100.3,292.8,100.7z"/>
						</g>
						<g>
							<path class="st0" d="M286.7,120.4c-0.3-0.1-0.6-0.4-0.5-0.7c0.2-1.3,0.4-2.7,0.6-4c0.1-0.4,0.4-0.6,0.8-0.5
								c0.4,0.1,0.7,0.4,0.6,0.8c-0.2,1.3-0.5,2.6-0.6,3.9C287.5,120.2,287.1,120.5,286.7,120.4
								C286.7,120.4,286.7,120.4,286.7,120.4z"/>
						</g>
						<g>
							<path class="st0" d="M289.6,107.3c0.4,0.1,0.6,0.5,0.5,0.8c-0.2,0.6-0.3,1.2-0.5,1.8c-0.2,0.7-0.4,1.4-0.5,2.1
								c-0.1,0.4-0.5,0.6-0.9,0.5c0,0,0,0,0,0c-0.4-0.1-0.6-0.4-0.5-0.8c0.2-0.7,0.3-1.4,0.5-2.1c0.2-0.6,0.3-1.2,0.5-1.8
								C288.8,107.5,289.2,107.2,289.6,107.3C289.5,107.3,289.5,107.3,289.6,107.3z"/>
						</g>
						<g>
							<path class="st0" d="M298.5,90.1c-0.2,0.3-0.5,0.4-0.8,0.3c-0.1,0-0.1,0-0.2-0.1c-0.3-0.2-0.4-0.6-0.2-0.9
								c0.8-1.1,1.6-2.3,2.4-3.3c0.2-0.3,0.7-0.4,1-0.2c0.3,0.2,0.4,0.6,0.2,0.9C300,87.9,299.2,89,298.5,90.1z"/>
						</g>
						<g>
							<path class="st0" d="M334.4,63.8c-1.3,0.4-2.6,0.9-3.9,1.4c-0.1,0.1-0.3,0.1-0.4,0c-0.2-0.1-0.4-0.2-0.5-0.4
								c-0.2-0.3,0-0.7,0.4-0.9c1.3-0.5,2.7-1,4-1.4c0.4-0.1,0.8,0.1,0.9,0.4C334.9,63.3,334.7,63.7,334.4,63.8z"/>
						</g>
						<g>
							<path class="st0" d="M322.8,68.6c-0.2,0.1-0.4,0.1-0.5,0.1c-0.2,0-0.4-0.2-0.5-0.3c-0.2-0.3-0.1-0.7,0.3-0.9
								c1.2-0.7,2.5-1.3,3.8-1.9c0.4-0.2,0.8,0,1,0.3c0.2,0.3,0,0.7-0.3,0.9C325.3,67.4,324,68,322.8,68.6z"/>
						</g>
						<g>
							<path class="st0" d="M309.2,77.9c-0.2,0.2-0.4,0.2-0.7,0.2c-0.1,0-0.2-0.1-0.3-0.2c-0.3-0.3-0.3-0.7,0-1
								c1-0.9,2.1-1.8,3.2-2.7c0.3-0.2,0.8-0.2,1,0.1c0.3,0.3,0.2,0.7-0.1,0.9C311.3,76.2,310.2,77,309.2,77.9z"/>
						</g>
						<g>
							<path class="st0" d="M315.7,72.9c-0.2,0.1-0.4,0.2-0.6,0.1c-0.2,0-0.3-0.1-0.4-0.3c-0.2-0.3-0.2-0.7,0.2-0.9
								c1.2-0.8,2.3-1.6,3.6-2.3c0.3-0.2,0.8-0.1,1,0.2c0.2,0.3,0.1,0.7-0.2,0.9C318,71.4,316.8,72.1,315.7,72.9z"/>
						</g>
						<g>
							<path class="st0" d="M303.4,83.7c-0.2,0.2-0.5,0.3-0.7,0.2c-0.1,0-0.2-0.1-0.3-0.1c-0.3-0.2-0.3-0.7-0.1-0.9
								c0.9-1,1.9-2.1,2.8-3c0.3-0.3,0.7-0.3,1,0c0.3,0.3,0.3,0.7,0,1C305.3,81.7,304.3,82.7,303.4,83.7z"/>
						</g>
					</g>
				</g>
				<g>
					<g>
						<g>
							<polygon class="st1" points="338.7,58.1 337.3,46.9 375.3,52.3 							"/>
						</g>
						<g>
							<polygon class="st5" points="375.3,52.3 340.2,60.9 340.1,61 338.3,63 338.7,58.1 							"/>
						</g>
						<g>
							<polygon class="st18" points="338.3,63 341.5,63 340.1,61 							"/>
						</g>
						<g>
							<polygon class="st1" points="344.5,59.9 340.1,61 347.3,71.2 375.3,52.3 							"/>
						</g>
					</g>
				</g>
			</g>
		</g>
		<path class="st9" d="M199,123.6c0,0-3.7-1.3,17.8-5.8c21.5-4.5,19.2-6.2,20.9-9c2.7-5.1,0.4,12.5,0.4,12.5l-12.2,5.9l-23.1,0.2
			L199,123.6z"/>
	</g>
	<rect x="-261.7" y="47.9" class="st3" width="163.6" height="88.9"/>
	<rect x="-261.7" y="155" class="st19" width="163.6" height="88.9"/>
	<rect x="-261.7" y="262" class="st2" width="163.6" height="88.9"/>
	<rect x="-261.7" y="369.1" class="st20" width="163.6" height="88.9"/>
	<rect x="-261.7" y="476.1" class="st15" width="163.6" height="88.9"/>
</g>
<g id="DESIGNED_BY_FREEPIK">
</g>
</svg>
