<?xml version="1.0" encoding="utf-8"?>
<!-- Generator: Adobe Illustrator 24.3.0, SVG Export Plug-In . SVG Version: 6.00 Build 0)  -->
<svg version="1.1" id="Capa_1" xmlns="http://www.w3.org/2000/svg" xmlns:xlink="http://www.w3.org/1999/xlink" x="0px" y="0px"
	 viewBox="0 0 387.1 387.1" style="enable-background:new 0 0 387.1 387.1;" xml:space="preserve">
<style type="text/css">
	.st0{fill:#2E4053;}
	.st1{fill:#89BED0;}
	.st2{fill:#FFFFFF;}
	.st3{fill:#2D5B6A;}
	.st4{fill:#23505F;}
	.st5{fill:#1D4A59;}
	.st6{fill:#265362;}
	.st7{fill:#295766;}
	.st8{fill:#0B3644;}
	.st9{fill:#073240;}
	.st10{fill:#1B4756;}
	.st11{fill:#032E3C;}
	.st12{fill:#133F4D;}
	.st13{fill:#4E7F8F;}
	.st14{fill:#7DB0C2;}
	.st15{fill:#81B5C7;}
	.st16{fill:#85BACC;}
	.st17{fill:#356473;}
	.st18{fill:#0E3A48;}
	.st19{fill:#174352;}
	.st20{fill:#417080;}
	.st21{fill:#3D6C7C;}
	.st22{fill:#386776;}
	.st23{fill:#3A6978;}
	.st24{fill:#305E6D;}
	.st25{fill:#75A8BA;}
	.st26{fill:#497989;}
	.st27{fill:#70A3B4;}
	.st28{fill:#5F90A1;}
	.st29{fill:#71A4B5;}
	.st30{fill:#78ACBD;}
	.st31{fill:#6395A5;}
	.st32{fill:#689AAB;}
	.st33{fill:#3E6D7D;}
	.st34{fill:#578898;}
	.st35{fill:#427181;}
	.st36{fill:#447484;}
	.st37{fill:#568797;}
	.st38{fill:#457585;}
	.st39{fill:#6495A6;}
	.st40{fill:#5A8B9B;}
	.st41{fill:#2A5867;}
	.st42{fill:#194554;}
	.st43{fill:#508090;}
	.st44{fill:#4C7C8C;}
	.st45{fill:#5E90A1;}
	.st46{fill:#528393;}
	.st47{fill:#346271;}
	.st48{fill:#5B8C9D;}
	.st49{fill:#6799AA;}
	.st50{fill:#75A9BA;}
	.st51{fill:#6B9DAE;}
	.st52{fill:#6C9FB0;}
	.st53{fill:#538494;}
	.st54{fill:#7DB1C2;}
	.st55{fill:#87BBCD;}
	.st56{fill:#82B6C8;}
	.st57{fill:#406F7F;}
	.st58{fill:#4F8090;}
	.st59{fill:#548595;}
	.st60{fill:#5A8C9C;}
	.st61{fill:#457484;}
	.st62{fill:#3C6B7B;}
	.st63{fill:#396878;}
	.st64{fill:#32606F;}
	.st65{fill:#103B4A;}
	.st66{fill:#14404E;}
	.st67{fill:#2B5968;}
	.st68{fill:#133E4C;}
	.st69{fill:#386777;}
	.st70{fill:#386676;}
	.st71{fill:#2F5D6C;}
	.st72{fill:#164250;}
	.st73{fill:#1A4755;}
	.st74{fill:#1E4B5A;}
	.st75{fill:#224F5E;}
	.st76{fill:#214E5D;}
	.st77{fill:#326070;}
	.st78{fill:#477686;}
	.st79{fill:#578798;}
	.st80{fill:#376675;}
	.st81{fill:#4D7E8E;}
	.st82{fill:#3C6B7A;}
</style>
<g>
	<circle class="st0" cx="193.5" cy="193.5" r="193.5"/>
	<g>
		<g>
			<path class="st1" d="M167.7,73.2c0.1,0.2,0.1,0.3,0.2,0.5c0.8,1.6,0.2,4.1,1.7,4.8c1.3,0.6,3.3-0.4,4.9-0.7
				c12.7-2.3,25.3-2.1,37.8,0.7c1.8,0.4,2.2-0.2,2.6-1.7c1.7-6.6,1.7-6.6,8.2-4.6c17.3,5.5,32.2,14.8,44.6,28
				c10.9,11.6,18.8,25,23.5,40.3c1.4,4.7,0.4,3.8,5.3,3.9c6.3,0,12.7,0.1,19,0c1.8,0,2.8,0.4,2.5,2.4c-0.4,2.9,0.6,5.9-0.6,8.8
				c-0.2-0.2-0.4-0.5-0.5-0.8c-0.4-1.9-0.2-3.9-0.2-5.9c-0.1-3-0.3-3.2-3.2-3.2c-11.4,0-22.9,0-34.3,0c-1.5,0-2.9,0-4.4,0
				c-4.5,0.1-8,2.8-9.2,7.1c-0.5,1.7-0.7,3.5-0.7,5.3c0,9,0,17.9,0,26.9c0,7.7,2.9,11.1,10.5,12.7c0.3,0.1,0.5,0.2,0.7,0.3
				c0.8,1.6-0.7,1.4-1.4,1.5c-2.3,0.4-4.5,0.6-6.7,1.5c-0.7,0.3-1.3,0.1-1.9-0.1c-0.9-0.4-1.8-0.8-2.7-1.1c-1.3-0.7-2.8-0.8-4.1-1.5
				c-1.2-0.8-2.7-0.8-3.6-2c-0.2-1,0.2-1.9,0.5-2.7c2.6-7.5,3.8-15.2,3.6-23.1c-0.3-11.8-3.2-22.8-9.1-32.9c-0.4-0.7-0.8-1.3-1.2-2
				c-0.9-1.5-0.6-2.5,0.8-3.5c1.1-0.7,2.1-1.5,3.2-2.1c1.5-0.9,1.8-1.8,0.7-3.3c-2.5-3.2-5-6.5-7.9-9.4c-4.9-4.7-10.3-9-16.2-12.4
				c-1.3-0.7-2.6-1.3-4-1.7c-3-2.2-6.4-3.5-9.9-4.5c-0.9-0.3-1.8-0.4-2.7-0.8c-2.7-1.1-5.7-1.1-8.5-1.9c-3.8-0.9-4-0.8-4.3,3.1
				c-0.1,1.5-0.1,3.1-1.3,4.3c-1.4,0.6-2.9,0.5-4.3,0.4c-9.8-0.5-19.3,1.2-28.5,4.7c-0.9,0.3-1.7,0.7-2.7,0.2c-0.7-0.9-1-2-1-3.1
				c-0.4-9.9,0-19.7,2.4-29.4C165.7,74.8,165.9,73.3,167.7,73.2z"/>
			<path class="st2" d="M276.5,198.4c-1.6-0.4-3.2,0.1-4.9-0.7c-5-2.2-7.3-6-7.3-11.3c0-9.9-0.1-19.8,0-29.7
				c0-7.5,4.3-11.8,11.8-11.8c13.2,0,26.3,0.1,39.5,0.1c1.7,0,2.2,0.5,2.1,2.2c-0.2,2.7-0.1,5.5-0.1,8.2c-2.5,0.5-5.1,0.3-7.6,0.2
				c-10.3-0.3-20.6,0.9-30.9,0.6c-2.9-0.1-3.2,0.3-3.2,3.3c0,8,0,16,0,24c0,3,0.3,3.2,3.2,3.3c4.2,0,8.4,0,12.5,0
				c1.2,0,2.4-0.1,3.4,0.7c6.7,0,13.5,0.2,20.2,0c2.2,0,2.8,0.6,2.6,2.7c-0.2,1.9-0.2,3.9,0,5.9c0.1,1.9-0.6,2.3-2.3,2.2
				c-9.8-0.1-19.6,0-29.4,0c-0.9,0-1.9,0.1-2.8,0.1C281,199.5,278.7,199.6,276.5,198.4z"/>
			<path class="st2" d="M91.3,198.4c-7.7,0-15.3-0.1-23-0.1c-1.7,0-2.3-0.4-2.3-2.2c0.1-9.3,0.1-18.6,0-27.9c0-1.7,0.5-2.1,2.1-2.1
				c6.6,0.1,13.1,0,19.7,0c2-1.4,4.3-0.6,6.5-0.8c1.2,0.1,2.5-0.1,3.7,0c1.4-0.1,2.7,0,4.1,0c1.2-0.1,2.4,0,3.6,0
				c1.4-0.1,2.7,0,4.1,0c1.4-0.1,2.7,0,4.1,0c1.6,0,3.1-0.2,4.7,0.2c1.9,0.9,1.7,2.5,1.7,4.2c-0.2,2.4,0.6,4.8-0.5,7.1
				c-0.8,0.7-1.7,0.7-2.7,0.8c-1.7-0.1-3.4,0-5.1,0c-1.7-0.1-3.4,0-5.1,0c-1.2-0.1-2.4-0.1-3.6,0c-1.1,0-2.1,0-3.2,0
				c-1.4-0.1-2.7,0-4.1,0c-1.4-0.1-2.7,0.1-4.1,0c-1.4-0.1-2.8,0.1-4.1,0c-2.7,0.1-5.4,0-8.1,0c-1.6,0-2.4,0.6-2.3,2.3
				c0,1.5,0,3.1,0,4.6c-0.1,1.8,0.8,2.4,2.5,2.4c3.1,0,6.1-0.1,9.2,0c4.2-0.2,8.4,0.1,12.6,0c3.6,0,7.1,0,10.7,0
				c2.2,0.1,4.5-0.2,6.7,0.2c0.7,0.3,1,0.8,1.2,1.4c0.3,2,0.2,4.1,0.1,6.1c-0.1,1.1,0.1,2.2-0.4,3.2c-0.8,1.2-2.1,1.2-3.4,1.2
				c-1.3,0.1-2.7,0-4,0c-1,0-2.1,0-3.1,0c-0.9,0.1-1.8,0-2.7,0c-1,0-2.1,0-3.1,0c-1.4,0.1-2.7,0-4.1,0c-1.4,0.1-2.8,0-4.1,0
				C93.9,199.1,92.5,199.3,91.3,198.4z"/>
			<path class="st1" d="M295,187.5c-6,0-12,0-17.9,0.1c-1.6,0-2.1-0.5-2.1-2.1c0-9.3,0.1-18.6,0-27.9c0-2.1,1.1-2.1,2.6-2.1
				c12.3,0,24.6-0.1,36.9-0.1c1,0,2,0,3.1,0c0,0.1,0,0.2,0,0.4c-6.8,0.1-13.6,0.2-20.5,0.1c-1.7,0-2.4,0.4-2.1,2.2
				c1.5,9.3,1.3,18.7,0,28C294.9,186.4,295,187,295,187.5z"/>
			<path class="st2" d="M66.3,155.3c-0.7-3.1-0.2-6.2-0.3-9.3c-0.1-1.6,1.2-1.1,2-1.1c7.6,0,15.1,0,22.7,0c1.3-0.6,2.6-0.8,4-0.7
				c7.1,0.2,14.2,0.1,21.3,0.1c3.3,0,3.8,0.5,3.7,3.7c-0.1,2.4,0.6,5-0.5,7.3c-0.9,0.8-2.1,0.6-3.2,0.6c-8.3,0-16.7,0.4-25-0.1
				c-7.8-0.5-15.6-0.1-23.4-0.4C67.1,155.5,66.7,155.5,66.3,155.3z"/>
			<path class="st3" d="M119.5,194.8c0-2.1,0-4.1,0-6.2c1.3-0.7,1.6,0.5,2.1,1.2c2,3,3.9,5.9,6,8.8c0.7,1,1.5,1.8,2.5,2.4
				c2.6,3.7,4.5,7.8,7.3,11.4c6.2,8.1,13.8,14.6,22.8,19.4c1,0.5,2,0.9,2.8,1.8c2.5,3.5,6.4,5.2,9.9,7.5c7.9,5.3,16.4,9.7,25.1,13.6
				c0.5,0.2,0.9,0.4,1.3,0.8c0.5,0.6,0.7,1.5,1.7,1.6c1.5,0,2.9,0.4,4.2,0.9c7.9,3.1,16.1,5.2,24.3,7.2c1.2,0.3,3,0.1,2.4,2.3
				c-1.3,0.8-2.6,1.4-4.1,1.5c-15.1-3.3-29.5-8.4-43.2-15.7c-6.3-3.4-12.5-7-18.4-11.1c-6.4-4.4-12.5-9.1-18.3-14.4
				c-6.7-6.1-12.9-12.7-18.6-19.7C125.8,203.9,122.6,199.4,119.5,194.8z"/>
			<path class="st4" d="M112.3,198.4c1.4,0,2.7,0,4.1,0c3,3.7,5.8,7.6,8.7,11.4c14,18,31.2,32.4,50.9,43.8
				c11.9,6.9,24.5,12.4,37.8,16.3c1.3,0.4,3.4,0.1,3.7,2.4c-1.9,1-4.1,1.2-6.2,1.5c-9.7-3-19.2-6.8-28.2-11.4
				c-11.9-6-23-13.1-33.3-21.5c-14-11.4-26-24.6-36.2-39.5C113,200.4,112,199.7,112.3,198.4z"/>
			<path class="st5" d="M112.3,198.4c8.3,12.7,18.1,24.3,29.3,34.6c9.8,9.1,20.6,16.9,32.2,23.6c11.2,6.4,22.9,11.7,35.2,15.6
				c0.9,0.3,1.8,0.6,2.3,1.5c-2.2,0.6-4.4,1.1-6.7,1c-5.8-2.5-11.8-4.5-17.5-7.1c-10.3-4.7-20-10.4-29.2-16.9
				c-10.6-7.4-20.2-16-29.1-25.4c-7-7.4-13.2-15.4-18.9-23.9c-0.6-0.9-1.5-1.7-0.8-3C110.3,198.4,111.3,198.4,112.3,198.4z"/>
			<path class="st6" d="M217.5,272.2c-2-1.8-4.6-1.9-7-2.7c-5.3-1.7-10.6-3.8-15.8-5.8c-5.5-2.1-10.7-4.9-15.8-7.6
				c-8.4-4.6-16.4-10-24-15.9c-7.8-6-15.1-12.6-21.7-19.8c-5.7-6.2-10.9-13-15.8-19.9c-0.4-0.6-0.6-1.4-0.9-2.1
				c1-0.1,2.1,0.2,3.1-0.6c0.7,0.3,1.1,1.1,1.5,1.7c4.3,6.2,9,12,13.9,17.7c1.9,2.2,4.5,3.7,6.4,5.9c5.7,6.9,12.9,12.2,20,17.4
				c16.8,12.4,35.2,21.5,55.3,27.1c1.6,0.4,3.1,1,4.6,1.4c0.8,0.2,1.9,0.3,1.9,1.6C221.4,271.5,219.5,272.1,217.5,272.2z"/>
			<path class="st7" d="M223.1,270.7c-3.3-1.9-7.1-2.4-10.7-3.5c-9.6-3-18.9-6.8-27.9-11.4c-5.9-3-11.8-6.4-17.3-10.3
				c-5.6-3.9-11.1-7.9-16.3-12.2c-2.9-2.4-6-4.7-8.3-7.8c-1.5-2-3.5-3.7-5.5-5.3c-3.2-2.5-5.5-6-8.2-9.1c-3.1-3.7-5.8-7.7-8.7-11.6
				c-0.4-0.5-0.7-1-0.7-1.6c0-1,0-2,0-3c2.9,2.1,4.5,5.2,6.5,8c4.1,5.5,8.5,10.5,13.1,15.6c7.7,8.5,16.5,15.7,25.7,22.3
				c7.9,5.7,16.4,10.4,25.2,14.7c11.6,5.7,23.7,9.7,36.2,12.7c0.6,0.2,1.1,0.4,1.4,1C226.2,269.7,224.8,270.6,223.1,270.7z"/>
			<path class="st8" d="M91.3,198.4c1.4,0,2.8,0,4.1,0c1.2,0.9,1.8,2.3,2.5,3.5c3.3,5.4,6.9,10.5,10.7,15.6c0.8,1,1.5,2.1,2.1,3.2
				c4.2,6.4,8.8,12.5,14.2,18c4.9,4.9,10.3,9.1,16.1,12.8c1.2,0.8,2.5,1.5,3.5,2.6c4.1,4.4,9.2,7.6,14.3,10.7
				c3.7,2.3,7.3,4.7,11.2,6.7c0.7,0.3,1.5,0.7,1.2,1.7c-0.1,0.5-0.7,0.4-1.1,0.1c-2.9-0.1-5.5-1.1-8.2-2
				c-29.3-17.2-52.4-40.6-69.8-69.8C91.6,200.5,91.4,199.5,91.3,198.4z"/>
			<path class="st9" d="M92.2,201.5c1.2,0.4,1.6,1.5,2.2,2.4C99.3,212,105,219.7,111,227c7.4,8.9,15.5,17.2,24.5,24.6
				c8,6.6,16.2,12.9,25.2,18.1c0.6,0.3,1.1,0.8,1.4,1.5c-5.2-1.2-10.1-3.3-14.9-5.7c-4.2-3.3-8.6-6.4-12.8-9.9
				c-11.2-9.5-21.5-20-30.6-31.6c-2-2.5-3.8-5.3-5.9-7.7C95.5,211.6,93.3,206.7,92.2,201.5z"/>
			<path class="st10" d="M109.3,198.4c1.6,4.2,4.7,7.4,7.2,11c6.7,9.5,14.7,17.9,23.2,25.7c11.2,10.3,23.5,19.2,37,26.5
				c8.4,4.6,17.1,8.3,26.1,11.6c0.8,0.3,1.7,0.4,1.8,1.5c-1.2,0.2-2.4,0.3-3.6,0.5c-17.1-5.9-32.7-14.5-47.3-25.1
				c-1.5-1.3-3.5-1.7-4.9-3.1c-3.8-4.4-8.5-7.8-12.8-11.7c-6.3-5.8-11.9-12.2-17.3-18.7c-4-4.9-7.7-10-11.1-15.3
				c-0.5-0.8-1.4-1.6-1-2.8C107.5,198.4,108.4,198.4,109.3,198.4z"/>
			<path class="st11" d="M98,216.3c1.2-0.5,1.4,0.6,1.8,1.2c5.5,7.7,11.7,14.8,18.2,21.7c8.6,9.1,18,17.1,27.9,24.6
				c0.6,0.5,1.3,0.8,1.3,1.7c-6.5-2.7-12.3-6.4-17.8-10.6c-13.4-10.2-23.9-22.7-31.3-37.8C98,216.8,98,216.6,98,216.3z"/>
			<path class="st12" d="M185.6,275.3c-1.9,0-3.8,0.2-5.6-0.5c-2.4-2.1-5.4-3.2-8.1-4.7c-7.4-4-14.4-8.5-21.2-13.4
				c-0.3-1.6,0.5-2.8,1.7-3.7c1.5-0.4,2.4,0.6,3.4,1.3c8.4,5.7,17,11,26.1,15.4c2.4,1.2,5,2.1,7.4,3.4c0.8,0.4,2.6,0.7,1.1,2.3
				C188.7,275.4,187.1,275.8,185.6,275.3z"/>
			<path class="st13" d="M265.8,244.6c-0.9,1.1-1.7,2.3-3.1,2.9c-8-0.2-16.1-0.3-23.8-2.6c-0.5-0.4-0.4-0.9-0.2-1.4
				c1.7-3.1,2.1-6.6,2.8-10c0.3-1.4,0.7-2.8,1.6-4c1.4-1.3,2-3.6,4.6-3.4c0.9,1,0.8,2.1,0.6,3.3c-0.4,3-1.2,6-1.6,9
				c0,0.3-0.1,0.5-0.3,0.8c-0.3,0.5-0.8,0.9-1.3,1.8c3.9,0.8,7.7,1.1,11.4,1.2c2.6,0.1,5.1,0,7.6,0.6C265,243,266.3,243,265.8,244.6
				z"/>
			<path class="st14" d="M155.4,74.2c1.4-0.8,3-1.4,4.6-1.6c1,1.3,0.4,2.6,0.1,3.9c-1.6,8-2.4,16.1-2.4,24.3c0,3.5,0.7,6.9,0.6,10.4
				c-0.3,1.2-1.1,1.8-2.3,1.8c-2.2-0.9-3.1-2.6-3.1-4.9c-0.3-4.3-0.6-8.5-0.4-12.8C153,88.3,153.6,81.2,155.4,74.2z"/>
			<path class="st15" d="M158,111.6c-0.8-6.5-1.2-12.9-0.7-19.5c0.5-6.6,1.6-13.1,2.7-19.6c1.2-0.3,2.4-0.7,3.6-1
				c0.9,0.9,0.6,1.9,0.3,2.9c-1.4,5-2.2,10.2-2.4,15.3c-0.2,4.2-0.6,8.5-0.1,12.7c0.3,2.5,0,5.1-0.2,7.6
				C160.4,111.2,159.5,112,158,111.6z"/>
			<path class="st16" d="M160.6,110.2c0.3-3.8,0-7.7,0-11.5c0-8.5,0.5-16.9,2.8-25.1c0.2-0.6,0.1-1.3,0.2-2c3.6-1.4,3.6-1.4,4.1,1.7
				c-1.7,1.1-1.6,3.1-2,4.8c-2,8.6-2.3,17.4-2.1,26.3c0,1.4,0.3,2.8,0.5,4.3C163.4,110,162.3,110.7,160.6,110.2z"/>
			<path class="st17" d="M243.1,261.9c-2.2,1.3-4.1,2.9-6.6,3.6c-0.4-0.8-1.3-0.7-2-0.8c-9-1.7-17.9-4.2-26.5-7.3
				c-0.3-0.1-0.6-0.3-0.8-0.6c0.1-0.9,0.9-1,1.5-1.1c2.4-0.4,4.8-1.4,7.3-1.3c7.8,3,16,4.4,24.2,5.9
				C241.3,260.4,242.8,260.1,243.1,261.9z"/>
			<path class="st18" d="M150.7,256.8c0.6,0,1.2,0,1.7,0.4c8.6,6.3,17.8,11.5,27.3,16.4c0.8,0.4,0.8,0.4,0.3,1.2
				c-3.3,0-6.6-0.6-9.7-1.6c0.5-0.8,0.5-0.8-0.3-1.2c-5.2-2.7-10.1-5.9-15-9.1c-3.2-2.1-6.1-4.5-9.2-6.8c-0.7-0.5-1.3-1.1-1.6-1.9
				c1.1-0.7,1.9,0.1,2.8,0.6C148.2,255.5,149.4,256.2,150.7,256.8z"/>
			<path class="st19" d="M190.8,275.2c-1-1.9-3.1-2-4.7-2.8c-11-4.9-21.2-11.1-31.2-17.9c-0.7-0.5-1.4-1.3-2.4-1.3
				c-0.6-1.1,0.1-1.7,0.9-2.3c1.2-0.4,2.1,0.4,3,1.1c8.5,6.1,17.5,11.4,27,16c3.7,1.8,7.5,3.2,11.2,4.9c1.1,0.5,2.6,0.6,2.5,2.4
				l-0.2,0.1l-0.2-0.1C194.7,275.6,192.7,275.8,190.8,275.2z"/>
			<path class="st20" d="M106.5,112.1c1-1.3,1.9-2.6,2.9-4c2.1,1.5,1.7,4,1.9,5.9c0.6,5.3,1.5,10.6,2.3,15.9
				c0.1,0.9,0.5,1.6,0.8,2.4c-0.4,1.9,0.4,3.5,1.8,4.8c0.1,1.5,0.4,3,0.9,4.5c0.4,1,0.7,2.1-0.3,3.1c-0.9,0.2-1.9,0.1-2.8,0.1
				c-1.1-0.4-1.5-1.3-1.8-2.3C109.7,132.4,107.7,122.3,106.5,112.1z"/>
			<path class="st21" d="M106.5,112.1c1.9,2.6,1.4,5.8,1.9,8.7c1.1,7.5,3.2,14.7,4.7,22c0.1,0.6,0.5,1.1,0.8,1.6
				c-1.3,0.6-2.7,0.2-4,0.2c-0.9-0.6-1-1.7-1.3-2.7c-2.4-8.4-4.1-17-4.9-25.7C104.5,114.8,105.3,113.3,106.5,112.1z"/>
			<path class="st22" d="M103.7,116.3c1.8,1.3,1,3.4,1.3,5.1c1.1,7,2.5,14,4.4,20.8c0.2,0.7,0.3,1.5,0.4,2.2
				c-1.3,0.6-2.6,0.2-3.9,0.2c-1-0.6-1.1-1.7-1.4-2.6c-2-6.4-2.9-13.1-4.3-19.7C101,120.2,102.4,118.3,103.7,116.3z"/>
			<path class="st23" d="M243.1,261.9c-2.6-1.6-5.7-1.3-8.5-1.9c-5.4-1.2-10.9-2.4-16.2-3.9c-0.9-0.3-1.7-0.8-2.5-1.3
				c1.6-2.1,4-2.1,6.3-2.4c7.6,2.3,15.3,3.8,23.1,4.8c1.2,0.1,2.7-0.1,2.9,1.7C246.7,260.1,245.2,261.4,243.1,261.9z"/>
			<path class="st24" d="M207.2,256.8c1.4-0.1,2.6,0.4,3.9,0.9c7.9,2.8,15.9,5,24.1,6.3c0.9,0.2,1.8,0.2,1.2,1.5
				c-1.6,0.5-2.9,1.8-4.6,2.1c-0.1-0.9-0.5-1.3-1.4-1.5c-9-1.8-17.7-4.3-26.3-7.6c-1.4-0.5-2.8-0.6-4.2-0.6
				C202.1,256,204.6,256,207.2,256.8z"/>
			<path class="st25" d="M148.2,77.3c1.4-1.1,3-1.7,4.7-2c1.4,0.2,1,1.3,0.8,2c-1.4,8.3-2,16.7-2.2,25.1c0,0.6-0.2,1.2-0.6,1.7
				c-0.7,0.5-1.3,0.2-1.7-0.4c-1.2-1.8-2.7-3.4-3.3-5.5C147,91.1,147.5,84.2,148.2,77.3z"/>
			<path class="st26" d="M238.5,244.5c6.4,1.1,12.9,2.1,19.4,2.1c1.6,0,3.2,0.2,4.7,0.9c-1.1,1.5-2.5,2.7-4,3.8
				c-6.1-1-12.3-0.8-18.3-2.1c-2-0.4-4.1-0.3-5.7-1.8c-0.5-0.8,0-1.3,0.5-1.7C236.2,245.2,237,243.8,238.5,244.5z"/>
			<path class="st27" d="M148.2,77.3c0.7,0.1,1.2,0.3,1,1.2c-1.3,5.9-1.6,11.9-1.9,17.9c-0.1,0.9-0.7,1.3-1,2
				c-0.9,1.3-1.9,2.7-3.9,1.9c-0.6-1.1-0.5-2.3-0.2-3.5c1.1-5.7,0.6-11.6,1.6-17.3C145,78.3,146.6,77.8,148.2,77.3z"/>
			<path class="st28" d="M277.5,230.6c-0.9,1.5-1.7,3-3.1,4.1c-5.9-0.1-11.8-0.3-17.6,0.1c-1.4,0.1-2.9-0.4-3.9-1.5
				c-0.1-2.5,1.5-3.4,3.5-3.9c6.4-0.7,12.7,0.1,19.1-0.2C276.4,229.1,277.7,228.7,277.5,230.6z"/>
			<path class="st29" d="M286.2,215.3c-0.4,1.5-1.1,2.9-2.1,4.1c-5.7,1.1-11.4,1.1-17.2,1.3c-1,0-2-0.1-2.8-0.9
				c-0.3-2.2,0.5-3.7,2.7-4.8c5.5,0.6,11-0.4,16.5-1C284.5,213.8,286,213.2,286.2,215.3z"/>
			<path class="st30" d="M150.3,104c0.6-0.5,0.5-1.2,0.5-1.9c0-8.7,0.7-17.4,2.4-26c0.1-0.4-0.1-0.6-0.4-0.9c0.8-0.6,1.6-0.9,2.6-1
				c1.2,1.6,0,3.1-0.3,4.5c-1.5,8.4-1.9,16.9-1.8,25.5c0,1.4,1.2,2.9,0,4.3C151.1,107.9,150.4,106.1,150.3,104z"/>
			<path class="st31" d="M133.4,85.5c0.9-0.8,2-1.6,3.1-2c1.8-0.4,1.7,1.1,1.6,2c-0.7,6.2-0.1,12.4-0.5,18.5c-0.7,1.8-1.4,3.6-4,3.1
				c-1.7-2.8-1.4-5.9-1.4-8.9c0-3.2,0.5-6.5,0.5-9.7C132.6,87.4,133.2,86.5,133.4,85.5z"/>
			<path class="st32" d="M282.8,222c-1.1,1.4-1.3,3.3-2.8,4.5c-6.2,1.1-12.5,1-18.8,0.9c-0.8,0-1.5-0.1-2.1-0.7
				c-0.2-2.4,0.8-3.7,3.4-4.5c5.6,0.3,11.2-0.2,16.7-0.8C280.5,221.2,281.8,220.9,282.8,222z"/>
			<path class="st33" d="M248.3,258.9c-2-1.8-4.5-1.1-6.8-1.4c-6.1-1-12.1-2.4-18.1-3.9c-0.5-0.1-0.8-0.6-1.2-0.8
				c0.8-2,2.6-1.9,4.3-2.1c7.3,2,14.8,3.3,22.3,4.1c1.2,0.1,2.6,0,3.1,1.6C250.9,257.4,249.7,258.3,248.3,258.9z"/>
			<path class="st34" d="M123,93.7c0.8-1.1,1.9-1.9,3.1-2.6c1.9-0.4,1.8,1.1,1.9,2.2c0.2,3,0.1,5.9,0.1,8.9c0,3.3-0.1,6.6,0.6,9.9
				c-0.2,1.3-0.9,2.3-1.7,3.4c-0.5,0.6-1.1,1.4-2.1,0.7c-0.8-1.1-1.1-2.5-1.2-3.9C123.4,106.1,122.4,99.9,123,93.7z"/>
			<path class="st35" d="M251.9,256.3c-3.6-1.7-7.6-1.2-11.4-1.9c-4.8-1-9.7-1.6-14.3-3.2c0.9-2,2.7-2.3,4.6-2.5
				c7,1.8,14.1,2.9,21.3,3.5c1.3,0.1,3-0.2,3.5,1.7C254.4,254.7,253.4,255.9,251.9,256.3z"/>
			<path class="st36" d="M114.4,132.7c-0.9-0.4-1.2-1.1-1.4-2c-0.8-5.5-2.1-11-2.4-16.6c-0.1-2-0.9-4-1.3-6c0.8-1.4,1.8-2.5,2.9-3.6
				c1.5,0.2,1.1,1.5,1.3,2.4c0.6,5.3,1,10.7,1.9,16c0.3,1.9,0.7,3.9,1.2,5.7C116.3,130.2,116.4,132,114.4,132.7z"/>
			<path class="st37" d="M246.2,238.9c0-0.2,0-0.3,0-0.5c0.8-1.8,2.2-2.8,4.2-2.8c6.7,0.5,13.4,1.5,20.1,0.8
				c0.7-0.1,1.6-0.2,1.8,0.9c-0.8,1.4-1.7,2.7-3,3.7c-7.3,0.7-14.5,0.1-21.7-0.9C247,240,246.2,239.8,246.2,238.9z"/>
			<path class="st38" d="M255.5,253.8c-2.8-1.8-6.1-1-9.1-1.5c-5.4-0.9-10.8-1.4-16-3.2c0.4-1.9,2.1-1.9,3.4-2.4
				c0.3,0,0.5,0.1,0.7,0.3c4.8,1.4,9.8,2,14.8,2.5c2.4,0.2,4.9,0,7.4,0.5c0.9,0.2,1.7,0.3,2,1.2
				C257.7,252.4,256.7,253.2,255.5,253.8z"/>
			<path class="st39" d="M259,226c0.7,0.8,1.7,0.5,2.6,0.5c5.2,0,10.5,0.2,15.7-0.5c0.9-0.1,1.9-0.3,2.7,0.4c-0.7,1.5-1.3,3-2.6,4.1
				c-0.2-1.1-1.1-1.1-1.8-0.9c-2.7,0.7-5.3,0.4-8,0c-3-0.5-6.1,0.4-9.1,0.4c-0.9,0-1.9,0.3-2.6-0.5c-0.3-1.1,0.7-1.6,1.1-2.4
				C257.6,226.6,258,225.7,259,226z"/>
			<path class="st5" d="M66.3,155.3c11,0,22,0,33,0c6.6,0,13.1,0,19.7,0c0.1,0.3,0.1,0.6-0.2,0.8c-1.4,0.7-3,0.4-4.4,0.4
				c-1.3,0.1-2.7,0-4,0c-1.4,0-2.7,0-4.1,0c-1.4,0.1-2.7,0-4.1,0c-1.2,0.1-2.4,0-3.5,0c-1.1,0-2.2,0-3.3,0c-3.1-0.1-3.2-0.1-2,2.8
				c0.6,1.4,1.2,2.9,1.7,4.3c0.3,0.9,0.6,1.8-0.5,2.4c-2.2,0-4.4,0-6.6,0c0.3-2.6,0.5-5.3,0.9-7.9c0.3-1.9,0-2.7-2.2-2.7
				c-5.9,0.2-11.8,0.1-17.7,0C68,155.5,67.1,155.8,66.3,155.3z"/>
			<path class="st40" d="M272.3,237.2c-1.2-1-2.3,0.2-3.4,0.2c-6.1,0-12.2-0.3-18.3-1.1c-0.3,0-0.6-0.3-0.9-0.5
				c-0.3-1.2,0.7-1.6,1.2-2.3c0.5-0.4,1-1.1,1.8-0.7c1.7,0.9,3.4,1.2,5.4,1.2c5.3,0,10.8-1.2,16.1,0.7
				C273.8,235.5,273.5,236.8,272.3,237.2z"/>
			<path class="st26" d="M116.4,129c-1.8-2.4-1.6-5.3-2-8c-0.8-5.2-1.1-10.4-1.7-15.7c0-0.3-0.3-0.6-0.5-0.9c0.9-1,1.8-2,2.7-3
				c1.8,0.5,1.6,2,1.6,3.3c0,6.9,0.8,13.6,2.3,20.3C118.5,126.6,118.6,128.5,116.4,129z"/>
			<path class="st41" d="M119,155.8c0-0.2,0-0.3,0-0.5c0-2.7,0-5.5,0.1-8.2c0.1-1.7-0.6-2.2-2.2-2.1c-8.7,0-17.4,0-26.1-0.1
				c2-3.7,2.5-7.9,4.2-11.6c0.1-0.2,0.3-0.4,0.4-0.6c1.5-0.6,1.7,0.7,1.9,1.6c0.6,2.1,1.1,4.3,1.5,6.4c0.4,2.3,1.6,3.5,4,3.1
				c1,0,2.1,0,2.9,0.7c1.4,0,2.7,0,4.1,0c1.4,0,2.7,0,4.1,0c1,0,2.1,0,3.1,0c2.3-0.7,3.1-0.4,3.3,1.8c0.2,2.9,0.4,5.8-0.2,8.6
				C119.9,155.4,119.6,155.9,119,155.8z"/>
			<path class="st42" d="M197,275.3c-0.6-1.3-2-1.6-3.1-2c-13.6-5.6-26.5-12.5-38.3-21.2c-0.6-0.4-1.4-0.6-2.1-0.9
				c-0.5-0.7-0.1-1.2,0.5-1.5c3.7,2.5,7.4,5,11.2,7.4c10.6,6.7,21.7,12.4,33.5,16.7c0.9,0.3,1.8,0.6,2.3,1.5
				C199.7,275.2,198.3,275.3,197,275.3z"/>
			<path class="st43" d="M117.4,98.8c1.1-1,2.1-2,3.2-3c1.2,0.2,1.1,1.2,1.2,2c0.1,1.1,0.3,2.2,0.3,3.3c0,6,0.8,12,1.2,18.1
				c-0.5,1.5-0.6,3.5-3,3.2c-1.9-3.3-1.5-7-2-10.6C117.7,107.5,117.8,103.1,117.4,98.8z"/>
			<path class="st44" d="M117.4,98.8c1.6,0.3,1,1.6,1,2.5c0.1,7.1,0.7,14.1,2.1,21.1c0,1.5-0.3,2.8-2,3.1c-2-6.7-2.6-13.6-2.6-20.5
				c0-1.3,0.1-2.6-0.9-3.6C115.6,100.4,116.5,99.6,117.4,98.8z"/>
			<path class="st45" d="M133.4,85.5c0,3.4,0.3,6.8-0.3,10.2c-0.6,3.9,0.3,7.6,0.8,11.3c-0.6,1.7-1,3.5-3.5,2.8c-1-2.6-1.5-5.2-1-8
				c0.4-1.9,0.3-3.9,0.1-5.9c-0.4-2.7-0.2-5.3,0.3-7.9C131,87.2,132.2,86.4,133.4,85.5z"/>
			<path class="st46" d="M246.2,238.9c1.9,0.9,3.9,0.7,5.9,1c5.1,0.6,10.2,0.7,15.3,0.6c0.7,0,1.4-0.1,1.9,0.5
				c-0.9,1.5-2.2,2.6-3.5,3.7c-1.5-2.2-4-1.5-5.9-1.6c-5,0-9.9-0.8-14.9-1.2c-0.5,0-0.9-0.3-1.8-0.6
				C244.3,240.4,245.3,239.6,246.2,238.9z"/>
			<path class="st47" d="M105.7,144.5c-1,0-2.1,0-3.1,0c-1-0.4-1.3-1.3-1.5-2.2c-1.2-5.1-2.5-10.1-3.2-15.2c0.8-1.5,1.5-3,2.3-4.5
				c2,1,1.3,2.9,1.6,4.5C102.7,132.8,104.3,138.6,105.7,144.5z"/>
			<path class="st48" d="M129.8,88.1c0.4,0.2,0.9,0.5,0.7,0.9c-1.4,5,0.6,10.1-0.6,15.1c-0.4,1.8,0.5,4,0.9,6
				c-0.2,1.5-0.8,2.6-2.6,2.6c-2-6.2-0.6-12.6-1-18.9c-0.1-1,0.6-2.3-1.1-2.7C127.1,89.8,128.4,88.9,129.8,88.1z"/>
			<path class="st49" d="M137,104.5c0.2-6.2-0.5-12.4,0.4-18.5c0.1-0.8,0.6-2.1-0.9-2.5c1.1-0.9,2.3-1.5,3.6-2.1
				c1.5,0,1.6,1.1,1.5,2.1c-0.7,6.1-0.6,12.2-1,18.3C139.9,103.4,139,104.7,137,104.5z"/>
			<path class="st50" d="M286.2,215.3c-1.8-2-3.8-0.3-5.6-0.2c-4.3,0.4-8.5,0.9-12.8,0.7c-0.4,0-0.7-0.4-1.1-0.6
				c-0.2-0.2-0.3-0.5-0.3-0.7c0.3-1.3,0.4-2.9,2.3-2.8c4.7,0.7,9.3-0.5,14-1c1.2-0.1,2.4-0.5,3.6-0.5c0.9,0,2,0,1.5,1.5
				C287.5,213,287,214.2,286.2,215.3z"/>
			<path class="st51" d="M140,102.4c0-6.4-0.3-12.8,1-19.1c0.2-0.8-0.1-1.5-0.9-1.9c1.1-0.9,2.2-1.7,3.6-2.1
				c0.8,0.9,1.1,1.6,0.5,2.9c-0.8,1.7-1,4-0.7,5.5c0.7,4.4-1.2,8.4-0.8,12.6C142.3,101.8,141.5,102.5,140,102.4z"/>
			<path class="st52" d="M282.8,222c-6.1,0-12,1.4-18.1,1c-0.9-0.1-1.9,0.3-2.6-0.6c-0.6-1,0.2-1.6,0.5-2.4c0.4-0.5,0.7-1.1,1.5-0.6
				c0.9,0.5,1.9,0.6,3,0.5c4.8-0.3,9.7,0.1,14.5-1c0.8-0.2,1.9-0.4,2.6,0.4C284,220.4,283.5,221.2,282.8,222z"/>
			<path class="st53" d="M122.6,119.4c-1-7.6-1.1-15.3-1.6-23c0-0.2-0.3-0.4-0.4-0.6c0.6-1,1.4-1.7,2.4-2.1c0.5,0.3,0.6,0.8,0.6,1.3
				c-0.5,5.1,0.6,10.2,0.6,15.3c0,2,0.6,4,1,6C125.2,118,124.5,119.2,122.6,119.4z"/>
			<path class="st24" d="M97.8,127c1.8,2.9,1.7,6.4,2.6,9.7c0.7,2.6,1.1,5.3,2.1,7.8c-2.9,0.6-4.1-0.8-4.6-3.5
				c-0.4-2.3-1.1-4.6-1.5-6.9c-0.2-0.7-0.3-1.3-1.2-1.4C96,130.7,96.7,128.7,97.8,127z"/>
			<path class="st30" d="M287.8,211.7c-0.3-1.5-1.3-0.9-2.2-0.7c-5,0.9-10,1.5-15,1.7c-0.8,0-2,0.5-2.3-0.9c0.1-1.3,0.1-2.6,1.8-2.8
				c4.3,1,8.5-0.3,12.7-0.8c1.3-0.2,2.7-0.6,4-0.1C289.8,208.5,288.8,210.1,287.8,211.7z"/>
			<path class="st54" d="M286.8,208.1c-4.7,1.1-9.5,1.8-14.3,2c-1,0.1-2.1,0.2-2.7-1c-0.4-1.6,0.1-2.8,1.6-3.5
				c2.4,0.1,4.7-0.3,7-0.6c1.1-0.1,2,0,2.7,0.9C283.2,206.5,285,207.2,286.8,208.1z"/>
			<path class="st55" d="M276.5,198.4c2.2,0,4.5,0,6.7,0c-0.5,1.5-0.7,3.2-1.6,4.6c-2-1.2-4.1-0.2-6.2-0.2c-1,0-2,0.4-3,0.2
				c-1.7-0.5-3.4-0.8-4.7-2.2c1.7-1.9,4.2-1.3,6.4-1.9C274.9,198.7,275.8,199.1,276.5,198.4z"/>
			<path class="st56" d="M272.4,202.5c2.3-0.3,4.7-0.6,7-0.9c1.2-0.2,2.3-0.3,2.2,1.4c0.1,1-0.8,2-0.4,3c-2.3-0.6-4.5,0.1-6.8,0.3
				c-1.1,0.1-2.2,0.2-3.2-0.3C270.7,204.6,271.3,203.4,272.4,202.5z"/>
			<path class="st10" d="M190.8,275.2c1.9,0,3.9,0.1,5.8,0.1c-3.7,0.6-7.4,0.6-11.1,0C187.3,275.3,189.1,275.3,190.8,275.2z"/>
			<path class="st57" d="M258,212.2c0-0.8,1.1-1.2,0.5-2.1c-0.6-3.6-0.3-7.2-0.2-10.7c0-0.7,0.1-1.6,1.3-1.6
				c1.3,0.6,2.9,0.5,4.1,1.5c0.6,6.1-0.3,12.1-0.6,18.1c-0.1,1-0.7,2,0,3c-0.3,0.7-0.7,1.3-1,2c-1.4,0.9-2.2,2.3-3,3.6
				c-0.7,0.4-1.2,0.9-1.6,1.5c-1.1-0.1-1.2-1-1.1-1.7C257.1,221.3,257.2,216.7,258,212.2z"/>
			<path class="st58" d="M226.3,103c-0.7,1.4-1.4,2.7-2,4.1c-1.6,3.1-1.6,3.1-4.7,1.5c-2.5-2.9-4.2-6.4-6.2-9.6
				c-0.3-0.5-0.9-1.5,0.6-1.6c3.6,0.8,7,2.2,10.3,3.7C225.1,101.4,226.3,101.6,226.3,103z"/>
			<path class="st59" d="M213.9,97.3c-0.9,1.1,0.2,1.7,0.6,2.4c1.7,2.9,3.9,5.6,5,8.8c-2.9-1-5.8-2.1-8.7-3.1
				c-2.1-2.5-3.6-5.4-5.6-8.1c-0.5-0.6-0.7-1.4-0.1-2.1C208.1,96,211.2,95.9,213.9,97.3z"/>
			<path class="st60" d="M205.2,95.3c0.5,2.8,2.9,4.4,4,6.8c0.5,1.1,1.7,1.9,1.6,3.3c-3.8-0.8-7.6-1.6-11.3-2.4c0.2-2,0.4-4,0.6-6
				c0.2-1.7,0.6-3.1,2.9-2.3C203.7,94.9,204.5,94.9,205.2,95.3z"/>
			<path class="st61" d="M259.6,197.8c-1.1,1.2-0.4,2.7-0.6,4.1c-0.3,2.7,0.5,5.5-0.5,8.2c-2.3-1.3-5.5-2.1-6.5-4.1
				c-1-1.9,1.9-4.3,2.6-6.6c0.3-1,0.9-2,1.4-3C257.3,196.6,258.6,197,259.6,197.8z"/>
			<path class="st62" d="M263.1,220.4c-1.4-0.3-1-1.5-0.9-2.3c0.7-5.6,1.1-11.3,1-16.9c0-0.7-0.1-1.4,0.6-1.8c1,0,1.8,0.4,2.5,1
				c1.4,3,0.7,6.1,0.5,9.2c-0.1,1.8-0.6,3.5-0.1,5.2c0,0.2,0,0.3,0,0.5c-1.2,1.2-1.9,2.7-2.6,4.2
				C263.4,219.4,263.2,219.8,263.1,220.4z"/>
			<path class="st63" d="M266.6,214.7c-1.5-0.9-1.1-2.5-0.9-3.7c0.7-3.6,0.3-7.1,0.5-10.7c0.5,0.2,1,0.3,1.5,0.5
				c1.5,0.6,3.1,1.1,4.6,1.7c-0.4,1.2-0.7,2.4-1.1,3.6c-0.9,0.9-1,2.1-1.5,3.1c-0.5,0.9-1,1.7-1.5,2.6
				C267.4,212.6,267.1,213.7,266.6,214.7z"/>
			<path class="st42" d="M106.7,198.4c3.7,6.3,8.1,12.2,12.6,17.9c4.6,5.8,9.5,11.3,14.8,16.4c4.3,4.2,9,8,13.5,12
				c0.6,0.6,1.1,1.3,1.7,1.9c-0.9,0.6-1.6-0.1-2.3-0.5c-11.2-6.8-20.4-15.6-27.6-26.4c-0.9-1.3-1.7-2.6-3.5-2.6
				c-4.7-5-8.3-10.9-12-16.6c-0.4-0.6-0.8-1.3-0.2-2.1C104.6,198.4,105.7,198.4,106.7,198.4z"/>
			<path class="st64" d="M124.5,186c1.3,5.3,3.1,10.4,5.2,15.4c-2.5-0.9-3.2-3.4-4.6-5.2c-1.6-2-2.9-4.3-4.4-6.6
				c-0.3-0.5-0.6-1-1.3-1c-0.2-0.4-0.3-0.7-0.5-1.1c-0.3-0.2-0.7-0.4-1-0.6c-1.7-2.3-3.1-4.9-4.3-7.5c-0.9-2.1-0.8-2.3,1.5-2.3
				c0.6,0,1.2,0.1,1.7-0.2c0.8-0.1,1.7-0.1,2.5-0.2C120.7,180.1,122.7,183,124.5,186z"/>
			<path class="st65" d="M110.2,220.9c-3.1-4.4-6.3-8.7-9.3-13.2c-2-3-4.1-6-5.6-9.3c1.4,0,2.7,0,4.1,0c0.7,0.4,1.2,1,1.6,1.6
				c3.2,5.5,7,10.7,10.9,15.8c0.7,0.9,1.4,1.7,1.2,3C112.5,220,111.6,220.7,110.2,220.9z"/>
			<path class="st33" d="M123.1,165.6c0,2.9-0.1,5.8-0.1,8.6c-1.1,0.6-1.4-0.4-1.9-1c-0.8-1.1-1-2.5-1.7-3.6c-0.4-1.2,0.6-2.8-1-3.6
				c-2.2-3-4-6.3-4.1-10.2c1.5,0,3.1,0,4.6-0.1c0.2-0.2,0.4-0.3,0.6-0.5c1.4-0.6,1.5,0.7,1.9,1.4c0.7,1.6,1.4,3.2,2.2,4.8
				c0,0.5-0.1,1-0.1,1.5C123.1,163.8,123.6,164.8,123.1,165.6z"/>
			<path class="st66" d="M112.8,218.8c-1.2-3.3-3.8-5.6-5.7-8.4c-2.7-3.9-5.4-7.8-7.6-12.1c1.4,0,2.7,0,4.1,0
				c1.5,3.8,4.1,6.8,6.3,10.1c1.9,2.8,4,5.5,6,8.3C115.4,218.2,114.6,219.2,112.8,218.8z"/>
			<path class="st67" d="M116.9,176.9c-0.9,0.9-2.2,0.1-3.2,0.7c1,3.5,3.5,6.2,4.8,9.5c-1.6,0.5-3.2,0.2-4.8,0.2
				c-1.2,0.1-1.8-0.8-2.3-1.7c-1-1.8-2-3.5-2.9-5.3c-1.3-2.5-0.9-3.1,1.9-3.2c0.5,0,1,0.1,1.5-0.2
				C113.5,176.9,115.2,176.9,116.9,176.9z"/>
			<path class="st68" d="M88.7,187.5c-0.3-3.6-0.7-7.1-1-10.7c1.4,0,2.7,0,4.1,0c-0.5,3.6,1.5,6.3,3.2,9c0.6,0.9,1.9,0.5,2.9,0.5
				c1,0,1.9,0,2.9,0.1c0.2,0.1,0.5,0.2,0.7,0.3c0.1,0.1,0.2,0.3,0.2,0.4c0,0.2-0.1,0.2-0.1,0.2C97.3,187.5,93,187.5,88.7,187.5z"/>
			<path class="st6" d="M111.8,176.9c-0.1,0.1-0.3,0.3-0.4,0.3c-3.7,0.7-3.7,0.7-1.6,4c0.2,0.4,0.5,0.7,0.7,1.1
				c1.2,4.1,4,5.6,8.1,4.8c0.2,0.2,0.3,0.3,0.5,0.5c-2.2,0-4.5,0-6.7,0c-1.1-0.5-2.3,0-3.5-0.3c-2.5-2.5-3.8-5.7-5.2-8.8
				c-0.4-0.9,0-1.4,1.1-1.4c0.7,0,1.4,0.2,2-0.2C108.4,176.9,110.1,176.9,111.8,176.9z"/>
			<path class="st69" d="M114.4,155.8c1.4,3.4,2.7,6.8,4.1,10.2c-1.5,0-3.1,0-4.6,0c-2-2.6-2.9-5.7-4-8.8c-0.2-0.5,0-1,0.4-1.4
				C111.7,155.8,113,155.8,114.4,155.8z"/>
			<path class="st70" d="M119.5,169.6c1.1,0.5,1.3,1.7,1.8,2.6c0.5,0.7,0.5,1.9,1.7,2c0.2,4,0.9,7.9,1.5,11.8
				c-2-1.2-5.4-7.5-5.1-9.4C119.5,174.3,119.5,172,119.5,169.6z"/>
			<path class="st47" d="M110.3,155.8c0.4,3.7,2.8,6.7,3.6,10.2c-1.4,0-2.7,0-4.1,0c-2.1-2.7-2.8-5.9-4-9c-0.1-0.4,0.1-0.8,0.4-1.2
				C107.6,155.8,108.9,155.8,110.3,155.8z"/>
			<path class="st71" d="M106.2,155.8c0.6,3.6,2.8,6.7,3.6,10.2c-1.4,0-2.7,0-4.1,0c-2-3.1-3.6-6.4-3.6-10.2
				C103.5,155.8,104.8,155.8,106.2,155.8z"/>
			<path class="st6" d="M94.9,155.8c1.2,0,2.4,0,3.6,0c1.8,3.2,3.5,6.4,3.6,10.2c-1.4,0-2.7,0-4.1,0c-1.8-2.5-2.6-5.4-3.5-8.3
				C94.3,157,94.4,156.3,94.9,155.8z"/>
			<path class="st41" d="M102.1,166c-1.1-3.4-2.8-6.7-3.6-10.2c1.2,0,2.4,0,3.6,0c1.2,3.4,2.4,6.8,3.6,10.2
				C104.5,166,103.3,166,102.1,166z"/>
			<path class="st72" d="M98,187.1c-2.5,0.5-4-0.4-4.8-2.9c-0.6-1.7-1.3-3.3-2.2-4.9c-0.8-1.3-0.3-1.9,0.8-2.5c1.4,0,2.7,0,4.1,0
				c-1,1-1,1.9-0.3,3.1c0.7,1.4,1.3,2.9,2.1,4.3C98.2,185.1,98.8,186,98,187.1z"/>
			<path class="st73" d="M98,187.1c-0.3-2.8-2.4-4.8-3.2-7.4c-0.5-1.5-0.6-2.4,1.2-2.8c1.4,0,2.7,0,4.1,0c-1.5,1.3-1.2,2.7-0.2,4.2
				c0.7,1.1,1.2,2.2,1.7,3.4c0.4,0.8,0.9,1.7,0.1,2.6C100.4,187.1,99.2,187.1,98,187.1z"/>
			<path class="st74" d="M101.6,187.1c-0.2-2.5-1.8-4.5-2.9-6.6c-1-1.9-1.5-3.2,1.3-3.6c1,0,2.1,0,3.1,0c-0.2,1.4-1.2,0.8-1.8,0.8
				c1.7,2.5,2.9,5.3,4.1,8.1c0.2,0.5,0.3,1.2-0.5,1.5C103.8,187.2,102.6,187.6,101.6,187.1L101.6,187.1z"/>
			<path class="st75" d="M105.2,187.1c-0.7-2.5-2-4.8-3.3-7c-1.1-1.9-0.9-2.8,1.2-3.2c1.2,0,2.4,0,3.6,0c-0.7,0.9-1.8,0.1-2.8,0.8
				c1.2,3.3,3.5,6.2,4.8,9.4C107.5,187.5,106.3,187.5,105.2,187.1z"/>
			<path class="st76" d="M94.9,155.8c0,2.9,1.5,5.2,2.4,7.8c0.3,0.8,0.7,1.5,0.7,2.4c-1.2,0-2.4,0-3.6,0c0.9-2.1-1-3.6-1.3-5.4
				c-0.1-0.5-0.6-0.9-0.7-1.3C91.7,155.5,90.4,155.8,94.9,155.8z"/>
			<path class="st73" d="M105.2,187.1c1.2,0,2.4,0,3.6,0c1.2,0.2,2.5-0.4,3.6,0.5c-3.6,0-7.2,0-10.7,0c0-0.2,0-0.3,0-0.5
				C102.8,187.1,104,187.1,105.2,187.1z"/>
			<path class="st77" d="M162.6,233.8c4.6,2.1,9.5,3.6,14.4,5c6.4,3.6,12.6,7.5,19.4,10.3c0.8,0.3,1.5,0.8,2,1.5
				c0.2,1.7,0.6,3.4,0.5,5.1c-12.2-5-23.4-11.7-34.2-19.2C163.8,235.9,162.8,235.2,162.6,233.8z"/>
			<path class="st1" d="M112.8,218.8c1.2-0.4,2.1-1.2,3.1-2c1.4-0.6,2.2-0.2,3,1.1c7.4,11.8,17.2,21.1,29.2,28.2
				c0.4,0.2,0.8,0.3,1.2,0.5c1.4,1.3,3.5,1.5,4.7,3c-0.2,0.5-0.3,1-0.5,1.5c-0.3,0.7-0.7,1.4-1,2.1c-0.6,1.2-1.2,2.4-1.7,3.6
				c-1.7,0.6-2.7-0.9-4.1-1.5c-0.9-0.3-1.7-0.8-2.5-1.1c-7.3-4.7-14.3-9.8-20.4-16c-5.1-5.3-9.5-11.1-13.5-17.2
				C110.7,219.7,112.1,219.7,112.8,218.8z"/>
			<path class="st26" d="M247.2,226c1.9-2.2,3.8-4.4,5.7-6.6c0.6,0.5,0.8,1.3,0.8,2.1c-0.3,4.2-0.5,8.4-2.3,12.3
				c-0.5,0.7-1,1.4-1.5,2c-1.2,0.9-2.4,1.7-3.6,2.6c-0.5-3,0.9-5.8,1.2-8.7C247.6,228.3,247.5,227.2,247.2,226z"/>
			<path class="st46" d="M237.9,234.1c1.9-1.5,3.8-3.1,5.7-4.6c-1.9,3.2-1.8,6.9-2.8,10.4c-0.5,1.7-1,3.4-2.2,4.7
				c-1.2,0.1-2,1.2-3.1,1.5c-0.3-0.3-0.5-0.8-0.4-1.2C236,241.3,236.4,237.5,237.9,234.1z"/>
			<path class="st1" d="M156,112.7c-3.7,2.8-7.5,5.3-10.8,8.5c-5.9,5.6-10.9,12-14.5,19.3c-0.4,0.8-0.9,1.6-1.4,2.4
				c-2.9-0.2-5.3-2-7.9-3c-1.7-1.2-4.1-1.3-5.4-3.1c-2.4-0.7-2.8-2.1-1.5-4.2c0.7-1.2,1.3-2.5,2-3.7c1-0.9,1.4-2.3,2.1-3.5
				c1-0.8,1.3-2.1,2-3.1c1.1-0.7,1.6-1.8,2.1-3c1.2-0.7,1.8-2,2.5-3.2c1.7-0.6,1.6-2.7,3.1-3.6c1.2-0.5,1.7-1.7,2.6-2.6
				c1.4-0.7,2.1-2,3.1-3c1.5-0.3,2.2-1.5,3.1-2.5c1-0.7,2-1.4,3.1-2.1c0.9-0.7,1.7-1.3,2.6-2c1.2-0.7,2.4-1.4,3.6-2.1
				c1.9,1.5,2.6,3.9,4.1,5.7c0.9,1.6,1.5,3.4,3.1,4.6C153.8,110.3,154.6,111.7,156,112.7z"/>
			<path class="st78" d="M115.9,136.9c1.9,0.9,3.8,1.7,5.6,2.6c1.8,4.1,3.5,8.3,4.1,12.8c-0.7,3.1-1.3,6.1-2,9.2
				c-1.5-0.2-1.5-1.7-2.1-2.6c-0.7-1.2-0.5-2.9-2-3.6c0-2.7-0.1-5.4,0-8.1c0.1-2-0.5-3-2.6-2.7c0.1-1.4-0.4-2.6-0.9-3.9
				C115.7,139.4,115.4,138.1,115.9,136.9z"/>
			<path class="st79" d="M237.9,234.1c0,3.2-1.1,6.2-1.9,9.3c-0.2,0.9-0.4,1.8-0.6,2.7c-0.3,0.3-0.7,0.7-1,1c-0.2,0-0.4,0-0.6-0.1
				c-1.1-1.9-2.1-3.9-3.2-5.8c-0.8-1.3-0.9-2.1,0.7-3C233.5,237,235.7,235.5,237.9,234.1z"/>
			<path class="st38" d="M251.4,233.8c0.5-3.7,1-7.4,1.6-11.1c0.2-1.1-0.2-2.2-0.1-3.3c1.7-2.4,3.4-4.8,5.1-7.2
				c0.7,4.3-0.2,8.5-0.9,12.7c-0.1,0.9-0.4,1.9,0.4,2.6c-0.5,0.7-1,1.4-1.5,2.1c-1.2,0.8-2.2,1.9-3.1,3.1
				C252.4,233.1,251.9,233.4,251.4,233.8z"/>
			<path class="st2" d="M158.7,144.9c6.3,0,12.6,0,19,0c7.7,0,11.8,4.1,11.9,11.9c0,3.2,0.1,6.5-0.1,9.7
				c-0.4,6.3-4.7,10.3-11.1,10.4c-9.6,0-19.1,0.1-28.7-0.1c-2.6,0-3.1,0.7-3,3.1c0.2,5.5,0,10.9,0.1,16.4c0,1.5-0.3,2.1-2,2
				c-2.4-0.1-4.8-0.1-7.2,0c-1.2,0-1.6-0.4-1.6-1.6c0-9.7,0.1-19.3,0-29c0-2.1,1.3-1.6,2.4-1.6c12.5,0,24.9-0.1,37.4,0
				c2.5,0,3.4-0.7,3.1-3.1c-0.3-2.4,1-5.4-0.5-6.9c-1.6-1.7-4.7-0.6-7.1-0.6c-10.9-0.1-21.9-0.1-32.8,0c-1.9,0-2.7-0.4-2.4-2.4
				c0.3-2.7-1.1-6.3,0.6-7.8c1.5-1.3,5-0.4,7.7-0.4C149.1,144.8,153.9,144.9,158.7,144.9z"/>
			<path class="st2" d="M198.1,144.9c4,0,7.9,0,11.9,0c1.3,0,1.6,1.2,2.2,2c4.6,6.3,9.1,12.6,13.8,19.1c2-2.8,4-5.4,5.9-8
				c2.6-3.7,5.3-7.3,7.9-11c1.1-1.6,2.3-2.2,4.2-2.1c3.3,0.2,6.6,0,10.5,0c-2.6,3.7-5,7-7.5,10.4c-4.8,6.7-9.7,13.4-14.6,20.1
				c-0.8,1.1-1.1,2.2-1.1,3.5c0.1,5.8,0,11.6,0.1,17.4c0,1.5-0.3,2.2-2,2c-2.9-0.3-6.6,1.2-8.3-0.6c-1.4-1.4-0.4-5.2-0.4-7.9
				c0-4.3,0.9-8.8-0.3-12.7c-1.2-3.9-4.6-7.1-7.1-10.5c-4.8-6.6-9.6-13.3-14.3-19.9C198.6,146.2,198,145.8,198.1,144.9z"/>
			<path class="st80" d="M198.5,250.7c-7.1-2.7-13.6-6.5-20.1-10.3c-0.6-0.4-1.1-0.8-1.4-1.5c2.6,0.4,5.2,0.8,7.7,1.2
				c1.9-0.1,3.4,0.7,4.9,1.7c2.6,1.8,5.7,2.7,8.4,4.3C198.5,247.6,198.6,249.1,198.5,250.7z"/>
			<path class="st81" d="M125.7,152.2c-1.6-4.2-3.4-8.3-4.1-12.8c2.6,1.2,5.1,2.3,7.7,3.5C128.1,146,126.9,149.1,125.7,152.2z"/>
			<path class="st82" d="M198,246.1c-3.5-0.4-6.3-2.3-9.2-4c-1.4-0.8-2.6-1.6-4.2-2c3.9,0,7.8,0.6,11.7,0.1c1-0.1,1.4,0.4,1.4,1.3
				C197.9,243,198,244.5,198,246.1z"/>
			<path class="st78" d="M123.1,165.6c0-0.9-0.3-1.9,0.4-2.6C123.6,163.9,123.6,164.8,123.1,165.6z"/>
		</g>
		<g>
			<path class="st2" d="M186.2,306.7c0-4.6,0-4.4-4.7-4.7c-2.7-0.1-4.6,0.7-6.3,2.8c-2.6,3.4-5.7,6.4-8.3,9.8
				c-1.6,2.1-2.5,1.6-3.9-0.1c-2.1-2.7-4.8-5-6.6-7.8c-2.6-4-6-5.3-10.6-4.7c-1.5,0.2-2,0.5-2,2c0.1,11.8,0.1,23.6,0,35.4
				c0,1.5,0.3,2.2,2,2c1.9-0.2,3.8-0.2,5.6,0c1.8,0.1,2.3-0.4,2.3-2.2c-0.1-6.7-0.1-13.3,0-20c0-0.6-0.4-1.3,0.5-1.8
				c3,3.4,6,6.8,8.8,10.3c1.5,1.8,2.6,1.7,4,0c2.9-3.5,5.9-6.9,9.3-10.9c0,1.4,0,2.1,0,2.8c0,6.6,0,13.2,0,19.7c0,1.5,0.3,2.1,2,2
				c1.9-0.2,3.8-0.2,5.6,0c1.8,0.2,2.3-0.4,2.3-2.2C186.2,328.4,186.2,317.5,186.2,306.7z"/>
			<path class="st2" d="M212.6,302.2c-5.6-0.3-11.3,0-16.9-0.2c-1.6,0-2,0.5-2,2c0.1,5.8,0,11.6,0,17.4c0,6,0,11.9,0,17.9
				c0,1-0.4,2.1,1.4,2c6.8-0.2,13.7,0.5,20.5-0.5c16.5-2.3,20.2-17.5,15-28.3C227,305.2,220.3,302.6,212.6,302.2z M222.6,322.9
				c-0.3,5.6-3.8,9.8-9.1,10.8c-2.9,0.6-5.8,0.4-8.7,0.5c-1.5,0-1.3-0.9-1.3-1.8c0-3.6,0-7.2,0-10.7c0-3.6,0-7.2,0-10.7
				c0-0.8-0.2-1.7,1.2-1.7c3.3,0.1,6.6-0.2,9.9,0.8C220.2,311.7,223,316.1,222.6,322.9z"/>
			<path class="st2" d="M125.6,310.2c-1.2-2.7-1.6-6.5-3.9-7.8c-2.3-1.3-5.8-0.2-8.8-0.4c-1.6-0.1-2.4,0.4-3,2
				c-2.4,6.2-4.9,12.3-7.4,18.5c-2.5,6.2-5,12.4-7.6,18.9c1.3,0,2.3,0,3.3,0c2.3,0,5,0.6,6.8-0.3c1.7-0.9,1.8-3.9,2.6-5.9
				c0.4-1.2,1-1.6,2.2-1.6c3,0.1,6,0.4,9,0c5.2-0.7,8.7,0.7,9.6,6.3c0,0.2,0.1,0.3,0.2,0.5c0.3,0.8,0.8,1.2,1.7,1.1
				c3-0.1,5.9,0,8.9,0c0.3-1-0.3-1.6-0.6-2.3C134.2,329.4,129.9,319.8,125.6,310.2z M112.6,326.7c-0.5,0-1,0-1.9,0
				c1.9-5,3.7-9.8,5.7-15.2c2.2,5.3,4.2,10.1,6.3,15.2C119.1,326.7,115.8,326.7,112.6,326.7z"/>
			<path class="st2" d="M284.8,300.3c0-1.9-0.9-1.8-2.2-1.8c-10.8,0-21.7,0-32.5,0c-3.2,0-6.4,0-10.3,0c3.8,3.8,7.3,7.2,10.7,10.7
				c1.1,1.2,2.3,1.7,4,1.7c5.3-0.1,10.6,0,15.9-0.1c1.6,0,2.2,0.4,2.2,2.1c-0.1,5.5,0,10.9,0,16.4c0,0.8-0.1,1.7,0.6,2.4
				c3.8,3.8,7.5,7.6,11.8,11.9C284.8,328.6,284.8,314.4,284.8,300.3z"/>
			<path class="st2" d="M255,331.3c-2.4,0.1-2.8-0.7-2.7-2.8c0.2-4.8,0-9.5,0-15.1c-4.4,4.4-8.3,8.3-12.2,12.2
				c-0.7,0.6-0.5,1.4-0.5,2.1c0,4.8,0,9.6,0,14.3c0,1.4,0.2,2,1.8,1.9c4.9-0.1,9.7,0,14.6,0c0.8,0,1.5,0,2.1-0.7
				c3.9-3.9,7.8-7.8,12.2-12.1C264.6,331.2,259.8,331,255,331.3z"/>
		</g>
	</g>
</g>
</svg>
