<?xml version="1.0" encoding="utf-8"?>
<!-- Generator: Adobe Illustrator 24.3.0, SVG Export Plug-In . SVG Version: 6.00 Build 0)  -->
<svg version="1.1" id="Layer_1" xmlns="http://www.w3.org/2000/svg" xmlns:xlink="http://www.w3.org/1999/xlink" x="0px" y="0px"
	 viewBox="0 0 600 342.9" style="enable-background:new 0 0 600 342.9;" xml:space="preserve">
<style type="text/css">
	.st0{opacity:0.48;}
	.st1{fill:#13378D;}
	.st2{opacity:0.6;fill:url(#SVGID_1_);}
	.st3{fill:url(#SVGID_2_);}
	.st4{fill:url(#SVGID_3_);}
	.st5{fill:url(#SVGID_4_);}
	.st6{fill:url(#SVGID_5_);}
	.st7{fill:url(#SVGID_6_);}
	.st8{fill:url(#SVGID_7_);}
	.st9{fill:url(#SVGID_8_);}
	.st10{fill:url(#SVGID_9_);}
	.st11{fill:url(#SVGID_10_);}
	.st12{fill:url(#SVGID_11_);}
	.st13{fill:url(#SVGID_12_);}
	.st14{fill:url(#SVGID_13_);}
	.st15{fill:url(#SVGID_14_);}
</style>
<g class="st0">
	<rect class="st1" width="600" height="342.9"/>
	<linearGradient id="SVGID_1_" gradientUnits="userSpaceOnUse" x1="421.0994" y1="166.4061" x2="503.4257" y2="105.7252">
		<stop  offset="0" style="stop-color:#FFFFFF"/>
		<stop  offset="1" style="stop-color:#FFFFFF;stop-opacity:0"/>
	</linearGradient>
	<polygon class="st2" points="442.3,0 332.4,0 600,266.3 600,156.9 	"/>
	<linearGradient id="SVGID_2_" gradientUnits="userSpaceOnUse" x1="141.9793" y1="212.8648" x2="73.7654" y2="306.0925">
		<stop  offset="0.1905" style="stop-color:#000000;stop-opacity:0"/>
		<stop  offset="0.669" style="stop-color:#010101;stop-opacity:0.4824"/>
		<stop  offset="0.6977" style="stop-color:#090808;stop-opacity:0.5272"/>
		<stop  offset="0.7726" style="stop-color:#181516;stop-opacity:0.6444"/>
		<stop  offset="0.8617" style="stop-color:#201D1E;stop-opacity:0.7837"/>
		<stop  offset="1" style="stop-color:#231F20"/>
	</linearGradient>
	<polygon class="st3" points="0.1,0 0,0 0,118.7 0,183.5 160.1,342.9 225.2,342.9 344.6,342.9 	"/>
	<linearGradient id="SVGID_3_" gradientUnits="userSpaceOnUse" x1="214.3312" y1="163.4973" x2="175.2418" y2="196.4148">
		<stop  offset="5.425830e-02" style="stop-color:#FFFFFF;stop-opacity:0"/>
		<stop  offset="1" style="stop-color:#FF8BC4"/>
	</linearGradient>
	<polygon class="st4" points="0.1,0 344.6,342.9 409.7,342.9 65.2,0 	"/>
	<linearGradient id="SVGID_4_" gradientUnits="userSpaceOnUse" x1="408.3789" y1="162.4857" x2="369.5599" y2="195.1755">
		<stop  offset="5.425830e-02" style="stop-color:#FFFFFF;stop-opacity:0"/>
		<stop  offset="1" style="stop-color:#FF8BC4"/>
	</linearGradient>
	<polygon class="st5" points="195.5,0 540,342.9 600,342.9 600,337.7 260.7,0 	"/>
	<linearGradient id="SVGID_5_" gradientUnits="userSpaceOnUse" x1="377.8998" y1="226.5628" x2="709.1144" y2="469.1599">
		<stop  offset="0" style="stop-color:#FFFFFF;stop-opacity:0"/>
		<stop  offset="1" style="stop-color:#FFFFFF"/>
	</linearGradient>
	<polygon class="st6" points="195.5,0 65.2,0 409.7,342.9 540,342.9 	"/>
	<linearGradient id="SVGID_6_" gradientUnits="userSpaceOnUse" x1="228.6333" y1="221.9326" x2="292.4447" y2="144.1313">
		<stop  offset="0" style="stop-color:#FF8BC4"/>
		<stop  offset="0.5355" style="stop-color:#FF8BC4;stop-opacity:0"/>
	</linearGradient>
	<polygon class="st7" points="474.9,342.9 130.4,0 65.2,0 409.7,342.9 	"/>
	<linearGradient id="SVGID_7_" gradientUnits="userSpaceOnUse" x1="295.3234" y1="201.3938" x2="342.6516" y2="165.8282">
		<stop  offset="0" style="stop-color:#FF8BC4"/>
		<stop  offset="0.5355" style="stop-color:#FF8BC4;stop-opacity:0"/>
	</linearGradient>
	<polygon class="st8" points="540,342.9 195.5,0 130.4,0 474.9,342.9 	"/>
	<linearGradient id="SVGID_8_" gradientUnits="userSpaceOnUse" x1="102.1265" y1="245.1161" x2="69.795" y2="289.3033">
		<stop  offset="0.1905" style="stop-color:#000000;stop-opacity:0"/>
		<stop  offset="0.669" style="stop-color:#010101;stop-opacity:0.4824"/>
		<stop  offset="0.6977" style="stop-color:#090808;stop-opacity:0.5272"/>
		<stop  offset="0.7726" style="stop-color:#181516;stop-opacity:0.6444"/>
		<stop  offset="0.8617" style="stop-color:#201D1E;stop-opacity:0.7837"/>
		<stop  offset="1" style="stop-color:#231F20"/>
	</linearGradient>
	<polygon class="st9" points="0,183.5 160.1,342.9 225.2,342.9 0,118.7 	"/>
	<linearGradient id="SVGID_9_" gradientUnits="userSpaceOnUse" x1="408.3789" y1="162.4857" x2="369.5599" y2="195.1755">
		<stop  offset="5.425830e-02" style="stop-color:#FFFFFF;stop-opacity:0"/>
		<stop  offset="1" style="stop-color:#FF8BC4"/>
	</linearGradient>
	<polygon class="st10" points="195.5,0 540,342.9 600,342.9 600,342.9 600,337.7 260.7,0 	"/>
	<linearGradient id="SVGID_10_" gradientUnits="userSpaceOnUse" x1="493.291" y1="99.3108" x2="457.1621" y2="144.4492">
		<stop  offset="0.4327" style="stop-color:#FFFFFF;stop-opacity:0"/>
		<stop  offset="1" style="stop-color:#FF8BC4"/>
	</linearGradient>
	<polygon class="st11" points="397.5,0 332.4,0 600,266.3 600,201.5 	"/>
	<linearGradient id="SVGID_11_" gradientUnits="userSpaceOnUse" x1="512.624" y1="96.6004" x2="542.3162" y2="33.492">
		<stop  offset="0" style="stop-color:#FF8BC4"/>
		<stop  offset="0.5355" style="stop-color:#FF8BC4;stop-opacity:0"/>
	</linearGradient>
	<polygon class="st12" points="507.5,0 442.3,0 600,156.9 600,92.1 	"/>
	<linearGradient id="SVGID_12_" gradientUnits="userSpaceOnUse" x1="493.291" y1="99.3108" x2="457.1621" y2="144.4492">
		<stop  offset="0.4327" style="stop-color:#FFFFFF;stop-opacity:0"/>
		<stop  offset="1" style="stop-color:#FF8BC4"/>
	</linearGradient>
	<polygon class="st13" points="397.5,0 332.4,0 600,266.3 600,201.5 	"/>
	<linearGradient id="SVGID_13_" gradientUnits="userSpaceOnUse" x1="74.5953" y1="-82.7209" x2="176.0811" y2="276.5947">
		<stop  offset="0" style="stop-color:#FFFFFF"/>
		<stop  offset="1" style="stop-color:#FFFFFF;stop-opacity:0"/>
	</linearGradient>
	<polygon class="st14" points="0.1,0 0,0 0,183.5 160.1,342.9 344.6,342.9 	"/>
	<linearGradient id="SVGID_14_" gradientUnits="userSpaceOnUse" x1="558.4" y1="29.9124" x2="-117.7175" y2="400.2002">
		<stop  offset="0.1905" style="stop-color:#000000;stop-opacity:0"/>
		<stop  offset="0.669" style="stop-color:#010101;stop-opacity:0.4824"/>
		<stop  offset="0.6977" style="stop-color:#090808;stop-opacity:0.5272"/>
		<stop  offset="0.7726" style="stop-color:#181516;stop-opacity:0.6444"/>
		<stop  offset="0.8617" style="stop-color:#201D1E;stop-opacity:0.7837"/>
		<stop  offset="1" style="stop-color:#231F20"/>
	</linearGradient>
	<rect class="st15" width="600" height="342.9"/>
</g>
</svg>
