<svg id="Capa_1" data-name="Capa 1" xmlns="http://www.w3.org/2000/svg" viewBox="0 0 1080 1080"><defs><style>.cls-1{fill:#ec6d05;stroke:#ec6d05;stroke-miterlimit:10;stroke-width:7px;}</style></defs><path class="cls-1" d="M837.4,448.62c16.89,20.47,33,39.58,48.63,59.12,12.73,15.94,11,21.24-7.84,26.74-44.09,12.9-44.09,12.9-44.09,59.58,0,70.55-.61,141.11.4,211.64.28,19.55-4.6,28.07-25.39,32.4-84.77,17.69-168.93,38.32-253.61,56.48-13.79,3-29.51.85-43.61-2.25-81.93-18-163.55-37.41-245.5-55.27-16-3.49-20.43-10.78-20.32-26.25.6-82.15-.07-164.31.62-246.46.12-14.18-3.75-21.49-18.06-23.25-6.63-.81-13-3.55-19.55-5.34-28.8-7.89-29.41-9.87-10-33.68,14.13-17.29,28.34-34.52,43.76-53.29-15.66-19.1-31-37.81-46.34-56.5-15.88-19.34-14.63-23.54,10.32-30.22,65.38-17.51,130.94-34.34,196.14-52.48a64.74,64.74,0,0,0,28.26-17.13c59.89-63.22,157.09-63.39,217.66-.46a69.63,69.63,0,0,0,30.12,17.88c66.43,18.51,133.23,35.72,199.86,53.49,17.6,4.69,19.63,11,8.06,25.22C871.17,408.06,855.05,427.28,837.4,448.62ZM551.69,872.71c2.86.14,5,.69,6.89.27,80.55-18.12,161-36.53,241.66-54.3,12.9-2.85,12.91-10.91,12.88-20.89q-.25-102.85-.08-205.72V552.5c-9,2-15.52,3.26-21.95,5-56.28,14.82-112.64,29.37-168.74,44.87-12.89,3.57-21.46,2-29.74-9.13-11.92-16.08-25.51-30.92-40.92-49.32Zm-22.48,2V543.39c-15.28,18.22-28.46,32.45-39.83,48-9,12.29-18.1,14.64-32.9,10.52-61.82-17.22-124-33-187-49.51-.83,4.65-1.91,7.89-1.91,11.13-.1,79.41.26,158.82-.44,238.22-.12,13.5,7.57,15.59,17,17.75q43.53,10,87.11,19.73C423.26,850.92,475.33,862.59,529.21,874.68Zm11.18-609.24c-49.41,2.32-87.65,23.73-111.29,67.2-23.27,42.79-21,86,4.45,127.59,4.53,7.42,9.49,18.9,15.88,20.15C486.09,487.52,521,507.06,560.18,498c19.79-4.58,39.73-8.55,59.39-13.64,6.11-1.58,13.31-4.54,16.95-9.24,32-41.37,41.18-87.08,18.68-135.35C632.85,291.82,593.06,268.06,540.39,265.44ZM215,515.92c81.83,21.77,160.23,42.71,238.71,63.33,5.39,1.42,14.16,2.94,16.7.16,17-18.61,32.76-38.36,50.54-59.7C435.18,500,353.46,481.17,271.61,462.89c-4.86-1.09-12.7.83-15.89,4.32C242.1,482.09,229.71,498.1,215,515.92Zm650.57,0c-15-18.05-27.66-34.6-41.93-49.65-3.34-3.52-12.4-3.68-18.22-2.46-35.09,7.32-70,15.38-105,23.4-46,10.55-91.85,21.29-139.8,32.42,4.12,5.6,6.62,9.47,9.59,13,14,16.47,25.4,40.7,43.1,47,16.48,5.82,39.83-7.17,60-12.48C736.56,550.38,799.66,533.45,865.61,515.87ZM691.12,407.66c38.75,8.86,78.86,18.23,119.12,26.91,4.25.92,11.09-.7,13.83-3.74,13.91-15.5,26.86-31.86,41.61-49.7L678.52,332C682.82,357.8,686.69,381,691.12,407.66ZM215,381.45c14.89,18,27.58,33.74,40.94,48.95,2.62,3,8.3,5.84,11.75,5.08,41.49-9.13,82.83-19,122-28.09,4.38-26.63,8.34-50.76,12.44-75.71Zm98.12,65.18-.46,3.75,102.54,23.56-20-45.75Zm352.15,27.53,102.26-23.9c-.27-1.31-.55-2.62-.83-3.92L685,428.39Z"/><path class="cls-1" d="M489.88,233.54,476.79,245.1c-6.9-10.57-14.46-20.8-20.09-32-1-2,5.86-8.05,9.09-12.22C473.35,211.11,480.9,221.36,489.88,233.54Z"/><path class="cls-1" d="M617.43,199.5c2.35,4.09,7.69,9.54,6.56,12.05-5.25,11.62-12.3,22.42-18.7,33.51-3.44-3.93-10.53-9-9.71-11.59,3.81-11.92,9.81-23.14,15-34.62Z"/><path class="cls-1" d="M394.55,246.26c12,13.65,21,23.48,29.1,33.92.38.48-8.9,9.66-9.25,9.37a284.94,284.94,0,0,1-28.68-26.32C384.7,262.14,389.59,255.57,394.55,246.26Z"/><path class="cls-1" d="M667.82,295.45c-5.8-7.57-11.68-13.9-11.06-14.63a261.61,261.61,0,0,1,27.09-27.31c.91-.8,7.42,4.88,11.34,7.55Z"/><path class="cls-1" d="M550.23,206.7c0,4.75,1.61,10.43-.44,14-2.15,3.72-7.83,5.4-12,8-2.67-8.92-7-17.77-7.41-26.79-.26-5.82,5.25-11.91,8.17-17.87,3.93,2.81,9.35,4.84,11.36,8.66s.42,9.28.42,14Z"/><path class="cls-1" d="M396.87,789.51C361,781.85,328,775.15,295.21,767.3c-3.85-.92-6.17-8.2-9.2-12.53,5-2.34,10.41-7.39,14.8-6.59q48.72,8.87,97,20.16c4.15,1,9.39,8,9.43,12.25C407.25,783.82,399.83,787.14,396.87,789.51Z"/><path class="cls-1" d="M338.64,815.45c-17.14-3.6-30.52-5.68-43.37-9.53-4-1.2-6.49-7.22-9.68-11,4.61-2.83,9.53-8.45,13.77-8a222.92,222.92,0,0,1,41.43,8.66c3.92,1.21,6,8.23,9,12.58Z"/></svg>