<svg id="Capa_1" data-name="Capa 1" xmlns="http://www.w3.org/2000/svg" viewBox="0 0 1080 1080"><defs><style>.cls-1{fill:#ec6d05;}</style></defs><path class="cls-1" d="M655.47,542.11c-6.35,38,16.75,52.62,47.4,60.94-7.18,21.1-13.52,39.74-20.6,60.58-38.7-20.13-52.74-3.53-79.18,20.41-30.22,9.29-39.86,31.86-40.09,60.81-2.39,9.26-40.21,2.89-50.92,3.95-3.71-.23-10.27-6.1-10.11-9.08,3.49-33.92-18.73-46.36-44.73-59.8-19.43-25.69-44.08-31.69-74.28-17.27-6.73-21.16-12.71-40-19.87-62.43,41.86-1.74,46.76-29.76,53-61.1,20-26,13.14-50.34-4.36-74.12-.14-10.23,37.09-28.2,49-39.44,14.71,28.38,35.92,35.31,67.41,32.9,31.22-2.39,62,4.36,77.65-33l50.3,36.75-18,33.85L665.29,512c50.25-81.46,27.05-54.47-42.9-114.62-37.47-29.79-42.75,46.44-87.25,26.8-4.29-1.49-10-1-14.47.54-34.09,13.48-41.93-57.67-76-27.62-18.35,14.1-37.48,27.18-56.16,40.87-19.39,14.23-20.89,16.76-7.89,37,22.78,33.79,3.2,92.37-36.83,102.4-14.63,4.44-17.87,14.34-12.89,28.62,7.42,21.24,13.75,42.86,20.66,64.27,14,58.74,51-10.46,90,38.09,50.15,14.46,9.3,74,53.28,72.38,22.55-.4,45.12.34,67.67.29,28.62-.05,31.09-.63,32.41-28.85,4.29-39.8,54.55-72.1,91.81-57.48,12,4,20.58-.82,24.58-14.48,7.34-25.08,15.77-49.86,24.56-74.48,13.89-40.88-59.54-23.44-52.36-72.95Zm73.22-96.93c-43.85,70.74-21,50.29,38.56,101,25.4,21.46,34.44-18.62,52.09-23,116.93-11.17,29.14,79.56,148.28-12.74,31.6-19-5.58-39-4.12-59.1,9.41-21,6.17-51.39,38.9-57.49,35.69-6.44-2.58-63.34-4.51-85.69-4.69-16.75-13.51-23.18-30.95-17.83-8.44,2.58-21.5,6.64-26,2.69-17.74-15.71-47.32-22.84-44.06-55.84,4.51-35.3-61.7-16.52-83.49-21.5-35.63-2.36-18.62,34.11-30.89,49.22-20.54,12.52-36.31,39.88-68,24.66-11.19-5.38-20.86.51-24.85,13.91-6.4,21.56-13.45,42.94-20.79,64.19-11.12,35.72,50.41,21.31,44.71,62l27.57-9.81c6.36-33.23-15-44-38.56-52.69l15.23-45.31c27,14,43.85-.65,64.62-15.66,21.25-15.34,40.81-27.31,36.49-56.24h48.57c-2.62,26.11,6.44,43.88,31.18,51.67,21.57,20,34.82,34.12,66.34,22.84,9,.89,12.3,32.56,18.13,44.94-34.08,3.27-40.06,27.09-43.69,54-16.4,21-13,41.25,2.11,61.17,3,8.27-28.65,22.87-37.33,31.41-14.4-30.28-37.47-30.26-65.29-25.61-25.32-8.65-43.22,1.64-57.4,22-7.58,4-29.58-19.64-39.44-24.57l13.76-26.87Zm36.74,384.7c5.15-26.09-15-54-43.7-64V745c26.44-5.38,47.32-34.66,45.2-63.33l19.65-5.86c15.53,24.9,45.86,34.57,75.46,24.61l12,17.19c-19.93,21-20,51.75-.83,79.06-9.55,13.46-10.77,18.44-27.58,10.91-3.62,6.85-6.65,12.56-9.58,18.1,28.92,21.48,30,21.36,49.14-5,9.37-14,26.9-27.88,7.67-42.6-32.69-39.68,28.57-45.54,1.58-73.76A121.14,121.14,0,0,1,880.62,685c-8.06-14-17.82-16.28-31.72-7.72-10.47,6.45-33.71.53-37.62-10.44-7.06-19.86-18.6-21.2-35.29-13-15.18,7.66-43.38,5.42-34.78,30.56C740.54,741,691.35,700.9,696,746.89c2.35,16.57-8.08,42.48,16.94,44.56,50.79,10,7.62,57.33,42.3,60.09,17.22,1.14,33.82,26.12,51.9,1.89,14.52-22.33,23-13.58,10.36-44L781.77,835.3ZM600.17,580.72c.81,88.63-134.9,87.71-134.46,0C466.28,494.05,600,493.2,600.17,580.72Zm-32.49.17c-.32-46.14-68.24-45.14-69.76-.42C497.75,626.33,568.2,628.07,567.68,580.89Zm275-134.34C763.24,446,765.84,327,844.5,328.69,919.37,329.69,919.65,448.05,842.7,446.55Zm-.35-85.63c-35.68.11-33.67,55,.83,54.41C878.26,412.84,878.74,361.92,842.35,360.92Zm-78.11,394.4c.56-49.31,75.75-48.14,74.52,1.92C839.11,806.11,761.49,804.74,764.24,755.32Zm37.53,20.77c6.32-9.21,13.32-15,12.78-19.85s-8.61-12.86-13.2-12.74C781.07,752.22,787.5,760,801.77,776.09Z"/><path class="cls-1" d="M61.8,595.34c31.26-88.87,73.39-152.88,200.12-132.19,22.87-145.93,200.13-223.68,321-134.48-6.18,10-10.25,15.9-17.29,25.42C451.91,281.58,307.82,345.22,292.88,481c-2.33,21.11-8.72,25.24-28.62,18.18C77.67,435.65,23.89,735,220.65,741.07c60.77,1.79,121.2-1,182,1.08V770.7C256.34,778.88,55.62,800.6,61.8,595.34Z"/><path class="cls-1" d="M655.47,542.11l27.95-9.39c-6.9,49.86,66.33,32,52.36,72.95-8.79,24.62-17.22,49.4-24.56,74.48-4,13.66-12.62,18.45-24.58,14.48-37.15-14.55-87.58,17.6-91.81,57.48-1.32,28.22-3.79,28.8-32.41,28.85-22.55,0-45.12-.69-67.67-.3-43.88,1.79-3.2-58-53.28-72.38-39-48.57-75.86,20.7-90-38.07-6.91-21.42-13.24-43-20.66-64.28-5-14.28-1.74-24.18,12.89-28.62,39.93-10,59.7-68.58,36.84-102.4-13-20.22-11.51-22.75,7.88-37,18.68-13.69,37.81-26.77,56.16-40.87,34.15-30,41.94,41.11,76,27.62,4.42-1.52,10.18-2,14.47-.54,44.54,19.64,49.7-56.56,87.25-26.8,70.17,60.27,93.05,33.19,42.9,114.62l-27.16-15.87,18-33.85-50.3-36.75c-15.65,37.33-46.43,30.58-77.65,33-31.49,2.41-52.7-4.52-67.41-32.9-11.71,11-49.34,29.44-49,39.44,20.53,25.82,21.68,51.35,2.21,79.11-1.95,30.91-13.56,54-50.87,56.11,7.16,22.47,13.14,41.27,19.87,62.43,30.2-14.42,54.85-8.42,74.28,17.27,26,13.44,48.19,25.89,44.73,59.81-.16,3,6.4,8.84,10.11,9.07,10.8-1,48.38,5.29,50.92-3.95.22-42.21,16.18-48.23,48.83-67.27,18.28-25.19,41.68-28.72,70.44-14,7.08-20.84,13.42-39.48,20.6-60.58C672.22,594.73,649.12,580.1,655.47,542.11Z"/><path class="cls-1" d="M728.69,445.18l27.22,15.72-13.76,26.87c9.89,5,31.71,28.46,39.44,24.58,16.94-26.33,36-26.75,64.64-22.11,25.61-7.52,45,.55,58,25.74,8.69-8.55,40.17-23,37.33-31.41-17.55-21.59-15.76-41.84-1.1-64.65,2-26.3,11.07-47.22,42.68-50.56-5.83-12.4-9.08-43.9-18.13-44.94-31.56,11.28-44.76-2.83-66.34-22.85-24.74-7.78-33.8-25.55-31.18-51.66H819c4.32,28.93-15.24,40.9-36.49,56.24-20.77,15-37.64,29.69-64.62,15.66l-15.23,45.31c23.53,8.72,44.92,19.46,38.56,52.69l-27.57,9.81c5.7-40.69-55.8-26.23-44.72-62,7.35-21.25,14.4-42.63,20.8-64.19,4-13.4,13.66-19.29,24.85-13.91,31.67,15.22,47.44-12.14,68-24.66,12.23-15-4.66-51.71,30.9-49.22,21.79,4.92,88-13.71,83.49,21.5-3.26,33,26.32,40.13,44.06,55.84,4.47,3.95,17.53-.11,26-2.69,17.44-5.35,26.26,1.08,30.95,17.83,2,22.32,40.12,79.31,4.51,85.69-32.73,6.1-29.49,36.48-38.9,57.49-1.51,20,35.74,40.28,4.11,59.11-119.39,92.33-31,1.63-148.27,12.73-17.56,4.29-26.79,44.52-52.09,23C707.72,495.46,684.84,515.93,728.69,445.18Z"/><path class="cls-1" d="M765.43,829.88l16.34,5.42,35.68-25.85c12.62,30.42,4.16,21.65-10.36,44-18.08,24.23-34.68-.75-51.9-1.89-34.61-2.64,8.41-50.17-42.3-60.09-25-2.09-14.58-28-16.94-44.56-4.63-45.94,44.62-5.9,45.26-62.47C732.63,659.3,760.8,661.5,776,653.86c42.71-22.08,24,40,72.91,23.46,24.08-17.14,32.28,12.61,45.54,27,27,28.13-34.25,34.16-1.58,73.76,19.19,14.7,1.74,28.66-7.67,42.6-19.18,26.35-20.22,26.47-49.14,5,2.93-5.54,6-11.25,9.58-18.1,16.82,7.52,18,2.57,27.58-10.91-19.2-27.31-19.1-58,.83-79.06l-12-17.19c-29.6,10-59.93.29-75.46-24.61l-19.65,5.86c2.12,28.67-18.76,58-45.2,63.33v20.85C750.42,775.89,770.58,803.79,765.43,829.88Z"/></svg>