<?xml version="1.0" encoding="utf-8"?>
<!-- Generator: Adobe Illustrator 24.3.0, SVG Export Plug-In . SVG Version: 6.00 Build 0)  -->
<svg version="1.1" id="Capa_1" xmlns="http://www.w3.org/2000/svg" xmlns:xlink="http://www.w3.org/1999/xlink" x="0px" y="0px"
	 viewBox="0 0 1092.1 1092.1" style="enable-background:new 0 0 1092.1 1092.1;" xml:space="preserve">
<style type="text/css">
	.st0{fill:#030303;}
	.st1{fill:#EC1E26;}
	.st2{fill:#0673BD;}
	.st3{fill:#040404;}
	.st4{fill:#FCFCFC;}
</style>
<g>
	<path class="st0" d="M123.3,421.5c17.7-14.3,37.7-23.9,60.6-26.5c37.4-4.2,59.2,18.6,53.5,55.4c-2.5,16-7.2,31.4-11.5,47
		c-8.5,31.1-17.1,62.2-25.2,93.4c-1.8,7-4.7,9.3-11.9,9c-13.8-0.6-27.6-0.8-41.4,0.1c-10.2,0.7-11.6-2.2-9-11.5
		c9.6-34.6,18.5-69.4,27.6-104.2c0.7-2.8,1.3-5.6,1.7-8.5c3.1-25.1-6-33.6-31.3-28.2c-16.1,3.4-27.6,10.2-31.7,29.1
		c-8.2,37.9-19.8,75.1-29.4,112.7c-2,7.6-4.6,11-13.1,10.6c-17.5-0.8-35.1-0.5-52.7-0.6c0-0.8,0-1.7,0-2.5
		c12-34.7,19.6-70.6,29.8-105.8c7.8-27,15.3-54.1,22-81.3c1.9-7.6,4.4-10.2,12.3-9.9c17.1,0.6,34.2,0.2,51,0.2
		C126.6,408,118.1,414.2,123.3,421.5c-0.3-0.7-0.6-1.3-1-2c-0.1-0.1-0.5,0-0.7,0.1C122.1,420.2,122.7,420.9,123.3,421.5z"/>
	<path class="st1" d="M781.2,537.7c56.5-0.3,112.9,0.5,168.9,9.2c25.4,3.9,50,10.7,74.8,18.5c21,6.6,35.2,19.1,49.5,33
		c12.9,12.5,9.8,37-5.1,54c-12.4,14.2-28,24.6-42,36.8c-37.7,0-75.4,0-113.1,0c15.7-15.4,36.2-24.8,52.3-39.7
		c6.1-5.6,12.9-10.8,18.1-17.1c16.7-20.2,12.7-42.3-9.9-55.7c-19.7-11.7-41.8-16.3-64.1-19.6c-43.9-6.6-88.2-7.9-132.5-7.6
		C778.5,545.3,778.7,541.2,781.2,537.7z"/>
	<path class="st2" d="M640.3,689.1c6.3-23.5,12.7-47,18.7-70.6c1.4-5.4,3.8-7.3,9.4-6.9c7.9,0.5,15.8-0.1,23.8,0.2
		c8.8,0.3,18.3,0.3,22.1,10.3c3.7,9.7-0.3,20.2-7.6,24.3c-15.8,9-8.4,17.8-3,27.6c2.6,4.7,5.7,9.2,4.4,15.1c-6.7,0-13.4,0-20.1,0
		c-3.9-8.1-7.9-16.3-11.8-24.4c-1.3-2.7-2.5-5.3-6.2-5c-3.9,0.3-4,3.3-4.8,6.1c-2.3,7.8-4.9,15.5-7.4,23.3
		C652,689.1,646.2,689.1,640.3,689.1z M670.2,646.4c11.3,0.7,20.7,0.7,24.2-11.4c1.5-5.1-0.8-7.4-5.9-8.6
		C671.6,622.4,674.5,636.5,670.2,646.4z"/>
	<path class="st2" d="M494.5,689.1c0-1.9-2.9-2.9,0.4-5.8c9.2-8.3,17-18.3,26.1-26.8c5.3-4.9,5.4-9.4,2.8-15.3
		c-2.4-5.3-5-10.7-6-16.3c-0.7-4.1-8.4-10.5,0-12.6c6.2-1.6,16.2-4.8,19.1,7c1.2,4.7,3.2,9.3,5.4,15.2
		c11.9-10.8,18.2-29.8,39.8-21.3c-9,10-17.5,20.1-26.8,29.4c-4.6,4.6-5.2,8.5-2.8,14.2c3.2,7.6,5.4,15.7,8.6,23.3
		c1.5,3.6,1.1,6.3-1.2,9c-5.9,0-11.7,0-17.6,0c-2.6-8-5.3-16-8.2-24.8c-9.4,8.1-14.9,18.5-24.5,24.8
		C504.6,689.1,499.6,689.1,494.5,689.1z"/>
	<path class="st2" d="M856.4,689.1c-13-4.4-12.1-12.8-6.1-22.9c8.9,5.2,17.8,10.8,29,8.8c5.1-0.9,10.6-2.5,11.1-8.3
		s-5.2-6.4-9.7-7.5c-1.6-0.4-3.2-1-4.8-1.5c-7.9-2.4-17.2-3.8-18.2-14.2c-0.9-10.2,3.7-18.3,12.2-24.3c10.1-7.2,21.5-8.4,33.4-7.6
		c17.9,1.1,19.5,3.8,12.3,20.8c-7.7-3.9-15.2-9-24.5-7.6c-5.4,0.8-11.3,2.1-12.1,8.7c-0.8,6.8,6.1,5.9,9.8,7.2
		c9.6,3.4,21.6,3.4,22.9,17.1c1.1,11.1-9,23-22.6,28.4c-2.5,1-6.2-0.6-7.6,3C873.2,689.1,864.8,689.1,856.4,689.1z"/>
	<path class="st2" d="M791.1,689.1c-12.3-4.7-12.9-12.6-5.9-22.9c9,6.3,18.5,11.1,30.1,8.3c4.4-1,8.3-2.8,8.9-7.5
		c0.7-5.5-4.2-6.3-8.1-7.6c-2.4-0.8-4.8-1.4-7.2-2c-7.9-2.1-16-4.8-17-14.1c-1-9.2,3-17.1,10.5-22.7c13.7-10.4,29-11,45.1-7.1
		c10.8,2.5,5.6,9,4.1,14.4c-2.7,9.6-6.9,1.3-9.7,0.2c-7.6-3.1-15.1-5-23-1.5c-3.2,1.4-5.9,3.7-5.9,7.3c0,4.2,3.5,5.1,6.9,5.9
		c2.4,0.5,4.8,1.4,7.2,2c8.1,2.3,17.3,4.5,18.5,14.2c1.2,9.5-3,18.1-11.1,23.6c-5.6,3.8-12.1,6.4-18.2,9.6
		C807.9,689.1,799.5,689.1,791.1,689.1z"/>
	<path class="st2" d="M572.5,689.1c6.3-24,12.6-47.9,18.9-71.9c0.7-2.7,1.2-5.8,5.3-5.5c11.6,0.7,23.4-1.6,34.9,1.4
		c12.1,3.2,16.1,10.4,13,22.4c-4.1,15.7-15.4,26.2-33.3,26.8c-11.9,0.4-16,5.5-17.4,15.5c-0.6,4.5-2.3,8.5-6.3,11.2
		C582.5,689.1,577.5,689.1,572.5,689.1z M612.3,626.1c-10.1,0.7-6.4,11.8-9.2,18.3c-2.1,5,2.4,4.9,5.7,4.7c9-0.4,15-4.7,16.2-13.8
		C626,627.8,620.3,626.8,612.3,626.1z"/>
	<path class="st0" d="M781.2,537.7c-2.5,3.5-2.8,7.6-3,11.8c-4.1,14.2-8.2,28.3-12.2,42.5c-1.1,4-1.7,7.9-7.6,7.9
		c-19.1-0.2-38.1-0.1-57.1-0.1c1.5-17.1,11.1-31.4,9.9-48.1c3.6-3.1,5-7,4.7-11.6c8-22.6,13.4-45.9,19-69.1
		c1.7-6.9,1.8-14.3-3.9-19.9c-10.7-10.7-47.6-1.3-51.8,13.5c-7.4,26.2-14.1,52.6-21.1,78.9c-1.1,4.5-2.3,8.9-3.4,13.4
		c-3.3,11.5-7,22.8-9.8,34.4c-1.7,6.8-4.7,9-12,8.8c-17.5-0.6-35-0.2-53.3-0.2c3.2-12.7,6.2-24.2,9.1-35.8c1.4-4.7,3.8-9.3,3.3-14.5
		c9-26.6,16.4-53.6,21.3-81.2c1.1-6.2,0.9-12.7-3.9-17.5c-9.8-9.7-47.1-2-50.9,11.4c-8.8,30.5-16.3,61.3-24.3,92
		c-2.5,4.8-4.4,9.7-2.5,15.2c-6.8,6.1-6.1,15.1-8.3,22.8c-1.7,6-4.1,7.8-10.1,7.6c-14.6-0.4-29.3-0.6-43.9,0
		c-9.1,0.4-12.5-1.6-8.2-10.8c1.4-2.9,1.6-6.4,2.3-9.6c1.2-5.3,2.5-10.7,3.7-16c13.2-47.4,26.5-94.7,39.6-142.1
		c5.8-21.3,5.6-21.4,28.2-21.4c13,0,25.9,0,39.7,0c-1.7,7.2-3.2,13.8-5.1,21.6c19.4-11.4,36.9-23.2,58.5-26.3c27-3.9,46,7.3,54.1,33
		c11.7-7.2,23.1-14.7,34.9-21.3c17.1-9.6,35.1-14.9,55.2-10.6c18.9,4.1,30.5,17.1,31.7,36.2c0.9,14.3-2.6,28-6.1,41.6
		C792.3,495.3,786.8,516.5,781.2,537.7z"/>
	<path class="st3" d="M291.3,591.1c-1.1-38.6-6.4-76.9-9.3-115.3c-1.7-21.9-3.9-43.8-6.1-65.7c-0.6-6.4,0.1-9.9,8.2-9.6
		c16.3,0.6,32.7,0.6,49,0c7.8-0.3,8.6,3,8.8,9.4c1.3,36.9,3.1,73.9,4.7,110.8c0.1,2.7,0,5.4,2.6,8.6c5.8-9.8,11.6-19.5,17.4-29.3
		c17.6-30.1,35.3-60,52.5-90.3c3.7-6.5,7.6-9.5,15.5-9.2c17,0.7,34.1,0.2,53.1,0.2c-6.2,10-11.5,18.7-17,27.2
		c-28.9,45.6-57.9,91.1-86.7,136.7c-1.9,3-5.3,5.5-4.7,9.7c-3.9,4.6-8.6,8.7-8.8,15.4c-6.8,10.3-17.1,10.2-28,10.2
		c-16.4-0.1-32.9-1.9-49.2,1.5C292.9,597.9,293.9,594.2,291.3,591.1z"/>
	<path class="st2" d="M768.6,687.5c-16.9,0.1-33.7,0.1-50.6,0.2c5.9-23.7,11.9-47.3,17.5-71c1.3-5.5,4.8-4.8,8.4-4.8
		c12.1-0.1,24.3-0.2,36.4,0.1c2.8,0.1,8.9-2.8,7.6,4.2c-0.9,4.5,0.6,11.6-8.4,10.8c-6.2-0.6-12.6,0.4-18.8-0.2
		c-7.2-0.7-10.4,2.7-10.3,9c0.1,7,5.9,3,9.1,3.7c3.2,0.7,6.7-0.3,10,0.3c3.3,0.5,9.8-2.9,8.4,4.8c-0.9,4.7-0.9,11.3-9.3,10.1
		c-3.7-0.5-7.7,0.6-11.2-0.2c-12.6-2.8-14.6,5.7-16.5,14.6c-0.7,3.5,0.1,5.5,4.2,5.3c4.6-0.2,9.2,0,13.8,0
		C773,674.2,773,674.2,768.6,687.5z"/>
	<path class="st2" d="M487,686.6c-16.8,0.5-33.6,0.9-50.3,1.4c2.6-24.9,12.4-48,17.6-72.2c1-4.8,4.7-4,7.9-4c14.2-0.1,28.4,0,42.6,0
		c2.1,12.6-3.5,16.6-15,15.1c-4.9-0.6-10,0.1-15.1-0.1c-6.8-0.3-5.4,5.3-6.2,8.7c-1.5,6.2,4,3.7,6.5,3.9c7,0.4,14.1,0.1,21.1,0.1
		c0.6,13.1-6.2,15.9-17.2,15.2c-5.3-0.4-12.5-3.4-16.2,2.5c-2.7,4.3-5.2,10.6-3,15.4c1.7,3.7,7.6,1.3,11.6,1.5
		c5.8,0.3,11.7,0.1,17.2,0.1C491,679.1,486.4,682.5,487,686.6z"/>
	<path class="st1" d="M370.5,589.7c0.2-6.7,4.8-10.8,8.8-15.4c9.8,5.2,20,0,28.5-1.9c16-3.6,31.8-5.1,48-5.9c4.1-0.2,7.2-4.2,11.6-3
		c-1.2,5.3-2.5,10.7-3.7,16c-29,3.4-58,6.9-87,10.3C374.6,590,372.6,589.8,370.5,589.7z"/>
	<path class="st1" d="M291.3,591.1c2.5,3.1,1.5,6.8,1.9,10.3c-52.3,8-104.6,16.1-156.9,24.1C187,609.1,239.9,603.2,291.3,591.1z"/>
	<path class="st1" d="M531.8,569.5c-1.8-5.5,0.1-10.4,2.5-15.2c19.3-1.6,38.5-3.2,57.8-4.8c0.5,5.2-1.9,9.7-3.3,14.5
		C569.8,565.8,550.8,567.6,531.8,569.5z"/>
	<path class="st1" d="M654.8,556.7c1.1-4.5,2.3-8.9,3.4-13.4c19.3,0.3,38.7,0.9,57.7-3.4c0.3,4.6-1.1,8.6-4.7,11.6
		C692.4,553.3,673.6,555,654.8,556.7z"/>
	<path class="st4" d="M123.3,421.5c-0.6-0.6-1.2-1.3-1.8-1.9c0.3,0,0.7-0.1,0.7-0.1C122.6,420.2,123,420.9,123.3,421.5L123.3,421.5z
		"/>
</g>
</svg>
