<svg id="Слой_1" data-name="Слой 1" xmlns="http://www.w3.org/2000/svg" xmlns:xlink="http://www.w3.org/1999/xlink" viewBox="0 0 664.75 518.62"><defs><style>.cls-1,.cls-2{fill:#004483;}.cls-2{opacity:0.41;}.cls-3{fill:none;stroke:#f8ad00;stroke-miterlimit:10;stroke-width:5px;}.cls-4{fill:#4c4c4c;}.cls-5{fill:#878787;}.cls-6{fill:#b4b4cd;}.cls-7{fill:#00ffdb;}.cls-8{fill:#fff834;}.cls-9{fill:#ff7d7b;}.cls-10{fill:#dbd8e3;}.cls-11{fill:#323657;}.cls-12{fill:#eea987;}.cls-13{fill:#ec6d05;}.cls-14{fill:#c4c1cc;}.cls-15{fill:#efaa88;}.cls-16{fill:#eea886;}.cls-17{fill:#16202e;}.cls-18{fill:#a77860;}.cls-19{fill:#ffc955;}.cls-20{clip-path:url(#clip-path);}.cls-21{fill:#e3f2ff;}.cls-22{fill:#ebebeb;}.cls-23{fill:#cf8c6c;}.cls-24{fill:#162d40;}.cls-25{fill:#1d3b54;}.cls-26{fill:#eddad3;}.cls-27{fill:#d1c0ba;}.cls-28{fill:#fae6de;}.cls-29{fill:#54281a;}.cls-30{fill:#db9c7c;}.cls-31{fill:#f8ad00;}.cls-32{fill:#5c544d;}.cls-33{fill:#3c4145;}.cls-34{fill:#fccca2;}.cls-35{fill:#e2d2ca;}.cls-36{fill:#c98462;}.cls-37{fill:#de9d7d;}.cls-38{fill:#c2bebc;}.cls-39{fill:#d6d6d6;}.cls-40{fill:#e8e8e8;}.cls-41{fill:#c2c2c2;}.cls-42{fill:#cfa345;}</style><clipPath id="clip-path"><rect class="cls-1" x="247.49" y="372.65" width="353.46" height="6.49"/></clipPath></defs><path class="cls-2" d="M531.87,210.82a70.19,70.19,0,0,0,7.59-17.89l13.44-2.57.14-14.87.13-14.86-13.38-2.83a69.7,69.7,0,0,0-7.26-18l7.67-11.32-10.41-10.61-10.41-10.61-11.46,7.47A69.28,69.28,0,0,0,490,107.13l-2.57-13.44-14.87-.14-14.86-.14-2.83,13.39a69.42,69.42,0,0,0-18,7.26l-11.31-7.68L415,116.79l-10.61,10.42,7.47,11.45a69.8,69.8,0,0,0-7.6,17.88l-13.44,2.58L390.65,174l-.13,14.87,13.38,2.82a69.77,69.77,0,0,0,7.26,18L403.49,221l10.41,10.61,10.41,10.61,11.46-7.46a69.28,69.28,0,0,0,17.88,7.59l2.57,13.44,14.87.14,14.86.14,2.83-13.39a69.77,69.77,0,0,0,18-7.26l11.31,7.68,10.61-10.42,10.61-10.41Zm-86-10.55a36.45,36.45,0,1,1,51.55.48A36.45,36.45,0,0,1,445.83,200.27Z"/><rect class="cls-3" x="32.24" y="171.22" width="117.11" height="152.86" rx="12"/><rect class="cls-3" x="174.21" y="52.04" width="115.01" height="226.84" rx="12"/><rect class="cls-4" x="139.88" y="140.14" width="130.48" height="193.68"/><rect class="cls-5" x="132.24" y="148.15" width="144.85" height="37.35"/><rect class="cls-6" x="143.81" y="157.66" width="67.84" height="18.34"/><circle class="cls-7" cx="226.27" cy="158.67" r="2.17"/><circle class="cls-8" cx="226.27" cy="166.83" r="2.17"/><circle class="cls-9" cx="226.27" cy="174.98" r="2.17"/><rect class="cls-4" x="237.01" y="157.66" width="1.82" height="18.34"/><rect class="cls-4" x="242.47" y="157.66" width="1.82" height="18.34"/><rect class="cls-4" x="247.94" y="157.66" width="1.82" height="18.34"/><rect class="cls-4" x="253.4" y="157.66" width="1.82" height="18.34"/><rect class="cls-4" x="258.87" y="157.66" width="1.82" height="18.34"/><rect class="cls-4" x="264.34" y="157.66" width="1.82" height="18.34"/><rect class="cls-4" x="269.8" y="157.66" width="1.82" height="18.34"/><circle class="cls-5" cx="146.98" cy="160.21" r="1.39"/><circle class="cls-5" cx="152.12" cy="160.21" r="1.39"/><circle class="cls-5" cx="157.26" cy="160.21" r="1.39"/><circle class="cls-5" cx="162.4" cy="160.21" r="1.39"/><circle class="cls-5" cx="167.54" cy="160.21" r="1.39"/><circle class="cls-5" cx="172.68" cy="160.21" r="1.39"/><circle class="cls-5" cx="177.82" cy="160.21" r="1.39"/><circle class="cls-5" cx="182.96" cy="160.21" r="1.39"/><circle class="cls-5" cx="188.1" cy="160.21" r="1.39"/><circle class="cls-5" cx="193.24" cy="160.21" r="1.39"/><circle class="cls-5" cx="198.38" cy="160.21" r="1.39"/><circle class="cls-5" cx="203.52" cy="160.21" r="1.39"/><circle class="cls-5" cx="208.66" cy="160.21" r="1.39"/><circle class="cls-5" cx="146.98" cy="164.57" r="1.39"/><circle class="cls-5" cx="152.12" cy="164.57" r="1.39"/><circle class="cls-5" cx="157.26" cy="164.57" r="1.39"/><circle class="cls-5" cx="162.4" cy="164.57" r="1.39"/><circle class="cls-5" cx="167.54" cy="164.57" r="1.39"/><circle class="cls-5" cx="172.68" cy="164.57" r="1.39"/><circle class="cls-5" cx="177.82" cy="164.57" r="1.39"/><circle class="cls-5" cx="182.96" cy="164.57" r="1.39"/><circle class="cls-5" cx="188.1" cy="164.57" r="1.39"/><circle class="cls-5" cx="193.24" cy="164.57" r="1.39"/><circle class="cls-5" cx="198.38" cy="164.57" r="1.39"/><circle class="cls-5" cx="203.52" cy="164.57" r="1.39"/><circle class="cls-5" cx="208.66" cy="164.57" r="1.39"/><circle class="cls-5" cx="146.98" cy="168.92" r="1.39"/><circle class="cls-5" cx="152.12" cy="168.92" r="1.39"/><circle class="cls-5" cx="157.26" cy="168.92" r="1.39"/><circle class="cls-5" cx="162.4" cy="168.92" r="1.39"/><circle class="cls-5" cx="167.54" cy="168.92" r="1.39"/><circle class="cls-5" cx="172.68" cy="168.92" r="1.39"/><circle class="cls-5" cx="177.82" cy="168.92" r="1.39"/><circle class="cls-5" cx="182.96" cy="168.92" r="1.39"/><circle class="cls-5" cx="188.1" cy="168.92" r="1.39"/><circle class="cls-5" cx="193.24" cy="168.92" r="1.39"/><circle class="cls-5" cx="198.38" cy="168.92" r="1.39"/><circle class="cls-5" cx="203.52" cy="168.92" r="1.39"/><circle class="cls-5" cx="208.66" cy="168.92" r="1.39"/><circle class="cls-5" cx="146.98" cy="173.27" r="1.39"/><circle class="cls-5" cx="152.12" cy="173.27" r="1.39"/><circle class="cls-5" cx="157.26" cy="173.27" r="1.39"/><circle class="cls-5" cx="162.4" cy="173.27" r="1.39"/><circle class="cls-5" cx="167.54" cy="173.27" r="1.39"/><circle class="cls-5" cx="172.68" cy="173.27" r="1.39"/><circle class="cls-5" cx="177.82" cy="173.27" r="1.39"/><circle class="cls-5" cx="182.96" cy="173.27" r="1.39"/><circle class="cls-5" cx="188.1" cy="173.27" r="1.39"/><circle class="cls-5" cx="193.24" cy="173.27" r="1.39"/><circle class="cls-5" cx="198.38" cy="173.27" r="1.39"/><circle class="cls-5" cx="203.52" cy="173.27" r="1.39"/><circle class="cls-5" cx="208.66" cy="173.27" r="1.39"/><rect class="cls-5" x="132.24" y="190.06" width="144.85" height="37.35"/><rect class="cls-6" x="143.81" y="199.56" width="67.84" height="18.34"/><circle class="cls-7" cx="226.27" cy="200.58" r="2.17"/><circle class="cls-8" cx="226.27" cy="208.73" r="2.17"/><circle class="cls-4" cx="226.27" cy="216.89" r="2.17"/><rect class="cls-4" x="237.01" y="199.56" width="1.82" height="18.34"/><rect class="cls-6" x="242.47" y="199.56" width="1.82" height="18.34"/><rect class="cls-4" x="247.94" y="199.56" width="1.82" height="18.34"/><rect class="cls-6" x="253.4" y="199.56" width="1.82" height="18.34"/><rect class="cls-4" x="258.87" y="199.56" width="1.82" height="18.34"/><rect class="cls-6" x="264.34" y="199.56" width="1.82" height="18.34"/><rect class="cls-6" x="269.8" y="199.56" width="1.82" height="18.34"/><circle class="cls-5" cx="146.98" cy="202.12" r="1.39"/><circle class="cls-5" cx="152.12" cy="202.12" r="1.39"/><circle class="cls-5" cx="157.26" cy="202.12" r="1.39"/><circle class="cls-5" cx="162.4" cy="202.12" r="1.39"/><circle class="cls-5" cx="167.54" cy="202.12" r="1.39"/><circle class="cls-5" cx="172.68" cy="202.12" r="1.39"/><circle class="cls-5" cx="177.82" cy="202.12" r="1.39"/><circle class="cls-5" cx="182.96" cy="202.12" r="1.39"/><circle class="cls-5" cx="188.1" cy="202.12" r="1.39"/><circle class="cls-5" cx="193.24" cy="202.12" r="1.39"/><circle class="cls-5" cx="198.38" cy="202.12" r="1.39"/><circle class="cls-5" cx="203.52" cy="202.12" r="1.39"/><circle class="cls-5" cx="208.66" cy="202.12" r="1.39"/><circle class="cls-5" cx="146.98" cy="206.47" r="1.39"/><circle class="cls-5" cx="152.12" cy="206.47" r="1.39"/><circle class="cls-5" cx="157.26" cy="206.47" r="1.39"/><circle class="cls-5" cx="162.4" cy="206.47" r="1.39"/><circle class="cls-5" cx="167.54" cy="206.47" r="1.39"/><circle class="cls-5" cx="172.68" cy="206.47" r="1.39"/><circle class="cls-5" cx="177.82" cy="206.47" r="1.39"/><circle class="cls-5" cx="182.96" cy="206.47" r="1.39"/><circle class="cls-5" cx="188.1" cy="206.47" r="1.39"/><circle class="cls-5" cx="193.24" cy="206.47" r="1.39"/><circle class="cls-5" cx="198.38" cy="206.47" r="1.39"/><circle class="cls-5" cx="203.52" cy="206.47" r="1.39"/><circle class="cls-5" cx="208.66" cy="206.47" r="1.39"/><circle class="cls-5" cx="146.98" cy="210.82" r="1.39"/><circle class="cls-5" cx="152.12" cy="210.82" r="1.39"/><circle class="cls-5" cx="157.26" cy="210.82" r="1.39"/><circle class="cls-5" cx="162.4" cy="210.82" r="1.39"/><circle class="cls-5" cx="167.54" cy="210.82" r="1.39"/><circle class="cls-5" cx="172.68" cy="210.82" r="1.39"/><circle class="cls-5" cx="177.82" cy="210.82" r="1.39"/><circle class="cls-5" cx="182.96" cy="210.82" r="1.39"/><circle class="cls-5" cx="188.1" cy="210.82" r="1.39"/><circle class="cls-5" cx="193.24" cy="210.82" r="1.39"/><circle class="cls-5" cx="198.38" cy="210.82" r="1.39"/><circle class="cls-5" cx="203.52" cy="210.82" r="1.39"/><circle class="cls-5" cx="208.66" cy="210.82" r="1.39"/><circle class="cls-5" cx="146.98" cy="215.18" r="1.39"/><circle class="cls-5" cx="152.12" cy="215.18" r="1.39"/><circle class="cls-5" cx="157.26" cy="215.18" r="1.39"/><circle class="cls-5" cx="162.4" cy="215.18" r="1.39"/><circle class="cls-5" cx="167.54" cy="215.18" r="1.39"/><circle class="cls-5" cx="172.68" cy="215.18" r="1.39"/><circle class="cls-5" cx="177.82" cy="215.18" r="1.39"/><circle class="cls-5" cx="182.96" cy="215.18" r="1.39"/><circle class="cls-5" cx="188.1" cy="215.18" r="1.39"/><circle class="cls-5" cx="193.24" cy="215.18" r="1.39"/><circle class="cls-5" cx="198.38" cy="215.18" r="1.39"/><circle class="cls-5" cx="203.52" cy="215.18" r="1.39"/><circle class="cls-5" cx="208.66" cy="215.18" r="1.39"/><rect class="cls-5" x="132.24" y="231.96" width="144.85" height="37.35"/><rect class="cls-6" x="143.81" y="241.47" width="67.84" height="18.34"/><circle class="cls-7" cx="226.27" cy="242.49" r="2.17"/><circle class="cls-9" cx="226.27" cy="250.64" r="2.17"/><circle class="cls-9" cx="226.27" cy="258.79" r="2.17"/><rect class="cls-6" x="237.01" y="241.47" width="1.82" height="18.34"/><rect class="cls-6" x="242.47" y="241.47" width="1.82" height="18.34"/><rect class="cls-6" x="247.94" y="241.47" width="1.82" height="18.34"/><rect class="cls-6" x="253.4" y="241.47" width="1.82" height="18.34"/><rect class="cls-6" x="258.87" y="241.47" width="1.82" height="18.34"/><rect class="cls-6" x="264.34" y="241.47" width="1.82" height="18.34"/><rect class="cls-6" x="269.8" y="241.47" width="1.82" height="18.34"/><circle class="cls-5" cx="146.98" cy="244.03" r="1.39"/><circle class="cls-5" cx="152.12" cy="244.03" r="1.39"/><circle class="cls-5" cx="157.26" cy="244.03" r="1.39"/><circle class="cls-5" cx="162.4" cy="244.03" r="1.39"/><circle class="cls-5" cx="167.54" cy="244.03" r="1.39"/><circle class="cls-5" cx="172.68" cy="244.03" r="1.39"/><circle class="cls-5" cx="177.82" cy="244.03" r="1.39"/><circle class="cls-5" cx="182.96" cy="244.03" r="1.39"/><circle class="cls-5" cx="188.1" cy="244.03" r="1.39"/><circle class="cls-5" cx="193.24" cy="244.03" r="1.39"/><circle class="cls-5" cx="198.38" cy="244.03" r="1.39"/><circle class="cls-5" cx="203.52" cy="244.03" r="1.39"/><circle class="cls-5" cx="208.66" cy="244.03" r="1.39"/><circle class="cls-5" cx="146.98" cy="248.38" r="1.39"/><circle class="cls-5" cx="152.12" cy="248.38" r="1.39"/><circle class="cls-5" cx="157.26" cy="248.38" r="1.39"/><circle class="cls-5" cx="162.4" cy="248.38" r="1.39"/><circle class="cls-5" cx="167.54" cy="248.38" r="1.39"/><circle class="cls-5" cx="172.68" cy="248.38" r="1.39"/><circle class="cls-5" cx="177.82" cy="248.38" r="1.39"/><circle class="cls-5" cx="182.96" cy="248.38" r="1.39"/><circle class="cls-5" cx="188.1" cy="248.38" r="1.39"/><circle class="cls-5" cx="193.24" cy="248.38" r="1.39"/><circle class="cls-5" cx="198.38" cy="248.38" r="1.39"/><circle class="cls-5" cx="203.52" cy="248.38" r="1.39"/><circle class="cls-5" cx="208.66" cy="248.38" r="1.39"/><circle class="cls-5" cx="146.98" cy="252.73" r="1.39"/><circle class="cls-5" cx="152.12" cy="252.73" r="1.39"/><circle class="cls-5" cx="157.26" cy="252.73" r="1.39"/><circle class="cls-5" cx="162.4" cy="252.73" r="1.39"/><circle class="cls-5" cx="167.54" cy="252.73" r="1.39"/><circle class="cls-5" cx="172.68" cy="252.73" r="1.39"/><circle class="cls-5" cx="177.82" cy="252.73" r="1.39"/><circle class="cls-5" cx="182.96" cy="252.73" r="1.39"/><circle class="cls-5" cx="188.1" cy="252.73" r="1.39"/><circle class="cls-5" cx="193.24" cy="252.73" r="1.39"/><circle class="cls-5" cx="198.38" cy="252.73" r="1.39"/><circle class="cls-5" cx="203.52" cy="252.73" r="1.39"/><circle class="cls-5" cx="208.66" cy="252.73" r="1.39"/><circle class="cls-5" cx="146.98" cy="257.08" r="1.39"/><circle class="cls-5" cx="152.12" cy="257.08" r="1.39"/><circle class="cls-5" cx="157.26" cy="257.08" r="1.39"/><circle class="cls-5" cx="162.4" cy="257.08" r="1.39"/><circle class="cls-5" cx="167.54" cy="257.08" r="1.39"/><circle class="cls-5" cx="172.68" cy="257.08" r="1.39"/><circle class="cls-5" cx="177.82" cy="257.08" r="1.39"/><circle class="cls-5" cx="182.96" cy="257.08" r="1.39"/><circle class="cls-5" cx="188.1" cy="257.08" r="1.39"/><circle class="cls-5" cx="193.24" cy="257.08" r="1.39"/><circle class="cls-5" cx="198.38" cy="257.08" r="1.39"/><circle class="cls-5" cx="203.52" cy="257.08" r="1.39"/><circle class="cls-5" cx="208.66" cy="257.08" r="1.39"/><rect class="cls-5" x="132.24" y="273.87" width="144.85" height="37.35"/><rect class="cls-6" x="143.81" y="283.38" width="67.84" height="18.34"/><circle class="cls-4" cx="226.27" cy="284.39" r="2.17"/><circle class="cls-4" cx="226.27" cy="292.55" r="2.17"/><circle class="cls-9" cx="226.27" cy="300.7" r="2.17"/><rect class="cls-6" x="237.01" y="283.38" width="1.82" height="18.34"/><rect class="cls-6" x="242.47" y="283.38" width="1.82" height="18.34"/><rect class="cls-6" x="247.94" y="283.38" width="1.82" height="18.34"/><rect class="cls-6" x="253.4" y="283.38" width="1.82" height="18.34"/><rect class="cls-6" x="258.87" y="283.38" width="1.82" height="18.34"/><rect class="cls-6" x="264.34" y="283.38" width="1.82" height="18.34"/><rect class="cls-6" x="269.8" y="283.38" width="1.82" height="18.34"/><circle class="cls-5" cx="146.98" cy="285.93" r="1.39"/><circle class="cls-5" cx="152.12" cy="285.93" r="1.39"/><circle class="cls-5" cx="157.26" cy="285.93" r="1.39"/><circle class="cls-5" cx="162.4" cy="285.93" r="1.39"/><circle class="cls-5" cx="167.54" cy="285.93" r="1.39"/><circle class="cls-5" cx="172.68" cy="285.93" r="1.39"/><circle class="cls-5" cx="177.82" cy="285.93" r="1.39"/><circle class="cls-5" cx="182.96" cy="285.93" r="1.39"/><circle class="cls-5" cx="188.1" cy="285.93" r="1.39"/><circle class="cls-5" cx="193.24" cy="285.93" r="1.39"/><circle class="cls-5" cx="198.38" cy="285.93" r="1.39"/><circle class="cls-5" cx="203.52" cy="285.93" r="1.39"/><circle class="cls-5" cx="208.66" cy="285.93" r="1.39"/><circle class="cls-5" cx="146.98" cy="290.28" r="1.39"/><circle class="cls-5" cx="152.12" cy="290.28" r="1.39"/><circle class="cls-5" cx="157.26" cy="290.28" r="1.39"/><circle class="cls-5" cx="162.4" cy="290.28" r="1.39"/><circle class="cls-5" cx="167.54" cy="290.28" r="1.39"/><circle class="cls-5" cx="172.68" cy="290.28" r="1.39"/><circle class="cls-5" cx="177.82" cy="290.28" r="1.39"/><circle class="cls-5" cx="182.96" cy="290.28" r="1.39"/><circle class="cls-5" cx="188.1" cy="290.28" r="1.39"/><circle class="cls-5" cx="193.24" cy="290.28" r="1.39"/><circle class="cls-5" cx="198.38" cy="290.28" r="1.39"/><circle class="cls-5" cx="203.52" cy="290.28" r="1.39"/><circle class="cls-5" cx="208.66" cy="290.28" r="1.39"/><circle class="cls-5" cx="146.98" cy="294.64" r="1.39"/><circle class="cls-5" cx="152.12" cy="294.64" r="1.39"/><circle class="cls-5" cx="157.26" cy="294.64" r="1.39"/><circle class="cls-5" cx="162.4" cy="294.64" r="1.39"/><circle class="cls-5" cx="167.54" cy="294.64" r="1.39"/><circle class="cls-5" cx="172.68" cy="294.64" r="1.39"/><circle class="cls-5" cx="177.82" cy="294.64" r="1.39"/><circle class="cls-5" cx="182.96" cy="294.64" r="1.39"/><circle class="cls-5" cx="188.1" cy="294.64" r="1.39"/><circle class="cls-5" cx="193.24" cy="294.64" r="1.39"/><circle class="cls-5" cx="198.38" cy="294.64" r="1.39"/><circle class="cls-5" cx="203.52" cy="294.64" r="1.39"/><circle class="cls-5" cx="208.66" cy="294.64" r="1.39"/><circle class="cls-5" cx="146.98" cy="298.99" r="1.39"/><circle class="cls-5" cx="152.12" cy="298.99" r="1.39"/><circle class="cls-5" cx="157.26" cy="298.99" r="1.39"/><circle class="cls-5" cx="162.4" cy="298.99" r="1.39"/><circle class="cls-5" cx="167.54" cy="298.99" r="1.39"/><circle class="cls-5" cx="172.68" cy="298.99" r="1.39"/><circle class="cls-5" cx="177.82" cy="298.99" r="1.39"/><circle class="cls-5" cx="182.96" cy="298.99" r="1.39"/><circle class="cls-5" cx="188.1" cy="298.99" r="1.39"/><circle class="cls-5" cx="193.24" cy="298.99" r="1.39"/><circle class="cls-5" cx="198.38" cy="298.99" r="1.39"/><circle class="cls-5" cx="203.52" cy="298.99" r="1.39"/><circle class="cls-5" cx="208.66" cy="298.99" r="1.39"/><rect class="cls-4" x="238.66" y="30.57" width="101.12" height="64.26"/><rect class="cls-4" x="230.31" y="96.27" width="117.82" height="5.24"/><rect class="cls-5" x="242.61" y="35.07" width="93.23" height="52.81"/><rect class="cls-4" x="267.58" y="93.81" width="43.27" height="3.1"/><circle class="cls-7" cx="289.22" cy="92.07" r="2.17"/><polygon class="cls-6" points="335.83 35.07 242.61 87.88 335.83 87.88 335.83 35.07"/><rect class="cls-4" x="13.53" y="201.96" width="35.83" height="64.18"/><rect class="cls-6" x="18.27" y="206.53" width="27.94" height="47.95"/><circle class="cls-7" cx="31.45" cy="261.72" r="2.17"/><polyline class="cls-5" points="45.41 206.53 17.48 254.48 17.48 206.53 45.41 206.53"/><path class="cls-10" d="M466.34,245.53q1.55-20.85,2.16-39c-3.36-1.77-7.39-3.85-10.61-5.38-10-4.76-23.9-11.16-32.83-15.26-5.23-2.4-10.35-4.15-10.35-4.15s-35.68-3.42-38.57-3.24c-.92.05-5.38,1.61-11.23,3.84-12.65,4.8-37,14.58-40.93,17.37-5.69,4.07-26.08,104-26.62,110.77-.53,6.59,27.72,15.6,53.88,22.51,0,10.13-.22,24.32-.45,37.27q-.06,3.33-.12,6.5H465.14c-.16-2.23-.29-4.42-.4-6.5,0-.27,0-.54,0-.81-.44-8.78-2.14-24.49-1.71-39.79,0,0-.28-16.14,1.32-23.08C464.49,275.89,466.34,245.53,466.34,245.53ZM321.2,304.27c.19-13,17.51-37.2,17.51-37.2a7.94,7.94,0,0,1,.81-.31s.89-.12.89-.11,2.69-2.55,2.71-2.55c.64,2.31,6.37,35,7.78,54C334.63,314.91,321.1,310.47,321.2,304.27Z"/><path class="cls-11" d="M468.46,370.23c-.75-5.42-1.46-10.83-2.1-16.13,0,0,0-.05,0-.08-.2-1.77-.41-3.51-.61-5.24a2.4,2.4,0,0,1,0-.28c-.84-7.3-1.53-14.31-2-20.72a65.06,65.06,0,0,1,.64-14.41c2-32.8,3-67.38,3-67.38,1-14.16,1.64-27.39,2-39.72,0,0-44.8-21.17-48.86-22.38,0,0,8.5,20,14.87,64.56,2.45,17.13,7,46,10.28,75.4h0c1.79,15.89,5.13,32.07,7.67,46.38.39,2.22.76,4.38,1.1,6.5h15Q468.91,373.49,468.46,370.23Z"/><path class="cls-11" d="M393.87,317.55c1.76-16.58,3.35-33.13,2.59-42.2-6.18-72.91-23.67-92.21-26.2-95-2,.75-9.42,3.55-11.61,4.41-12,4.72-36.33,13.36-39.62,15.72-5.69,4.08-28.15,108.81-28.83,115.59-.45,4.58,28.86,14.14,58.76,22.69-.28,8.19.5,19.76-2.23,31.83-.47,2.14-1.18,3.5-1.29,6.33l41.68-.16c.26-2.16.52-4.32.79-6.5.79-6.51,1.62-13.18,2.44-20.28,12.51,3.24,21,5.32,21,5.32s11.74-19.85,15.15-27.88C427.08,326,412,322.38,393.87,317.55ZM340,292.45c-.4-14.92-.33-25.34-.33-25.34,1.48,5.12,3.52,19.73,5.32,34.26C338.91,298.32,340,295.47,340,292.45Z"/><path class="cls-12" d="M374.26,179.61s4.54-8.57,3.29-32.92c-.35-6.74,35.43,16,35.43,16s-.13,2.32-.2,5.46c0,1.31-.07,2.74-.07,4.21,0,.4,0,.81,0,1.21,0,.67,0,1.33,0,2,0,.82.05,1.62.09,2.39s.1,1.7.18,2.46a22.75,22.75,0,0,0,1.33,4.78C416,189,387.66,189.19,374.26,179.61Z"/><path class="cls-13" d="M404.26,195.1l6.59,8.86s-3.86,5.17-10.72,1.35Z"/><path class="cls-13" d="M409.09,204.32s24.15,59,19,133.94l-7.62,13.82-8.59-11.77s-1.39-99.53-8.24-136.23Z"/><path class="cls-12" d="M411.32,186.84l-7.06,8.26s-11.33-2.2-14.66-8.11S411.32,186.84,411.32,186.84Z"/><path class="cls-14" d="M412.94,179.61s-.82,6.3-8.68,15.49l8.58,11.52,4.64-23.9Z"/><path class="cls-14" d="M376.42,172s16.38,18.53,27.84,23.06l-5.33,13.18-26.14-28.85Z"/><path class="cls-11" d="M544.84,339.68s-21.75-21.09-36-24.59c-6.59-1.63-15.28-10.73-23.53-21.43-2.72-3.52-5.39-7.22-7.93-10.88h0c-10.13-14.62-18.06-28.63-18.06-28.63s-29.93-35.07-5.91-50.71c0,0,10.29-.22,15.93,2.85,5.81,3.15,18.19,29,20.29,33.56s24.84,47.08,26.36,48,4.06,4.45,13.16,9.35c11.14,6,28.64,23.55,28.64,23.55Z"/><path class="cls-15" d="M440.45,364.09a13.87,13.87,0,0,1-4.34-.82s-2.27-1.46-3.94-2.4a13.73,13.73,0,0,0-1.33-.67,25.29,25.29,0,0,1-7.3-3.48c-2.86-2.18-12.19-10.9-12.19-10.9l6-9.26,2.78-9.17s21.73,2.16,24.63,3.88a8.54,8.54,0,0,1,.8.53c2.31,1.7,3.32,3.94,4.44,5,.4.39,4.19,4.44,4,6.08a5.43,5.43,0,0,1-2.84,4.44s-.76,4.44-3.06,6.43c0,0-.58,4.12-4.14,5.77C444,359.48,442.92,363.6,440.45,364.09Z"/><path class="cls-16" d="M405.85,83.88s39.28-9.47,31,40.26-17.7,53.78-41.63,43.86S373,126.27,371.54,110.71,393.28,84.6,405.85,83.88Z"/><path class="cls-16" d="M385.21,118.32c-.58-4.37-9.26-5.84-9.86.73s4.2,18,7.47,16.83S386,124.34,385.21,118.32Z"/><path class="cls-17" d="M373.83,136.13s.79-15.64,6.49-16.21,6.67,5.71,6.67,5.71l5.78,1s-2-13.67,3.64-16.15,37,7,41.56,2.91,2-31.84-6.37-35.52S400.29,66,383.71,77.58c0,0-13.07-1.3-14.85,9.27S370.17,128.35,373.83,136.13Z"/><path class="cls-11" d="M427.57,327.39l-16.22,27.88s-43-11.07-53-13.9l22.92-27.28S415.07,321.82,427.57,327.39Z"/><path class="cls-18" d="M412.83,178h0c-21.06-2.15-29.23-18.37-29.23-18.37a43.53,43.53,0,0,0,29.12,12.78c0,.4,0,.81,0,1.21,0,.67,0,1.33,0,2C412.76,176.38,412.79,177.18,412.83,178Z"/><path class="cls-19" d="M604.83,368h-152l11.58-107.71h152Zm-150.69-1.17H603.78l11.33-105.37H465.47Z"/><rect class="cls-1" x="247.49" y="372.65" width="353.46" height="6.49"/><g class="cls-20"><rect class="cls-1" x="247.49" y="372.65" width="5.44" height="6.49"/><rect class="cls-1" x="252.93" y="372.65" width="5.44" height="6.49"/><rect class="cls-1" x="258.37" y="372.65" width="5.44" height="6.49"/><rect class="cls-1" x="263.81" y="372.65" width="5.44" height="6.49"/><rect class="cls-1" x="269.25" y="372.65" width="5.44" height="6.49"/><rect class="cls-1" x="274.68" y="372.65" width="5.44" height="6.49"/><rect class="cls-1" x="280.12" y="372.65" width="5.44" height="6.49"/><rect class="cls-1" x="285.56" y="372.65" width="5.44" height="6.49"/><rect class="cls-1" x="291" y="372.65" width="5.44" height="6.49"/><rect class="cls-1" x="296.44" y="372.65" width="5.44" height="6.49"/><rect class="cls-1" x="301.87" y="372.65" width="5.44" height="6.49"/><rect class="cls-1" x="307.31" y="372.65" width="5.44" height="6.49"/><rect class="cls-1" x="312.75" y="372.65" width="5.44" height="6.49"/><rect class="cls-1" x="318.19" y="372.65" width="5.44" height="6.49"/><rect class="cls-1" x="323.62" y="372.65" width="5.44" height="6.49"/><rect class="cls-1" x="329.06" y="372.65" width="5.44" height="6.49"/><rect class="cls-1" x="334.5" y="372.65" width="5.44" height="6.49"/><rect class="cls-1" x="339.94" y="372.65" width="5.44" height="6.49"/><rect class="cls-1" x="345.38" y="372.65" width="5.44" height="6.49"/><rect class="cls-1" x="350.81" y="372.65" width="5.44" height="6.49"/><rect class="cls-1" x="356.25" y="372.65" width="5.44" height="6.49"/><rect class="cls-1" x="361.69" y="372.65" width="5.44" height="6.49"/><rect class="cls-1" x="367.13" y="372.65" width="5.44" height="6.49"/><rect class="cls-1" x="372.57" y="372.65" width="5.44" height="6.49"/><rect class="cls-1" x="378" y="372.65" width="5.44" height="6.49"/><rect class="cls-1" x="383.44" y="372.65" width="5.44" height="6.49"/><rect class="cls-1" x="388.88" y="372.65" width="5.44" height="6.49"/><rect class="cls-1" x="394.32" y="372.65" width="5.44" height="6.49"/><rect class="cls-1" x="399.75" y="372.65" width="5.44" height="6.49"/><rect class="cls-1" x="405.19" y="372.65" width="5.44" height="6.49"/><rect class="cls-1" x="410.63" y="372.65" width="5.44" height="6.49"/><rect class="cls-1" x="416.07" y="372.65" width="5.44" height="6.49"/><rect class="cls-1" x="421.51" y="372.65" width="5.44" height="6.49"/><rect class="cls-1" x="426.94" y="372.65" width="5.44" height="6.49"/><rect class="cls-1" x="432.38" y="372.65" width="5.44" height="6.49"/><rect class="cls-1" x="437.82" y="372.65" width="5.44" height="6.49"/><rect class="cls-1" x="443.26" y="372.65" width="5.44" height="6.49"/><rect class="cls-1" x="448.7" y="372.65" width="5.44" height="6.49"/><rect class="cls-1" x="454.13" y="372.65" width="5.44" height="6.49"/><rect class="cls-1" x="459.57" y="372.65" width="5.44" height="6.49"/><rect class="cls-1" x="465.01" y="372.65" width="5.44" height="6.49"/><rect class="cls-1" x="470.45" y="372.65" width="5.44" height="6.49"/><rect class="cls-1" x="475.89" y="372.65" width="5.44" height="6.49"/><rect class="cls-1" x="481.32" y="372.65" width="5.44" height="6.49"/><rect class="cls-1" x="486.76" y="372.65" width="5.44" height="6.49"/><rect class="cls-1" x="492.2" y="372.65" width="5.44" height="6.49"/><rect class="cls-1" x="497.64" y="372.65" width="5.44" height="6.49"/><rect class="cls-1" x="503.07" y="372.65" width="5.44" height="6.49"/><rect class="cls-1" x="508.51" y="372.65" width="5.44" height="6.49"/><rect class="cls-1" x="513.95" y="372.65" width="5.44" height="6.49"/><rect class="cls-1" x="519.39" y="372.65" width="5.44" height="6.49"/><rect class="cls-1" x="524.83" y="372.65" width="5.44" height="6.49"/><rect class="cls-1" x="530.26" y="372.65" width="5.44" height="6.49"/><rect class="cls-1" x="535.7" y="372.65" width="5.44" height="6.49"/><rect class="cls-1" x="541.14" y="372.65" width="5.44" height="6.49"/><rect class="cls-1" x="546.58" y="372.65" width="5.44" height="6.49"/><rect class="cls-1" x="552.02" y="372.65" width="5.44" height="6.49"/><rect class="cls-1" x="557.45" y="372.65" width="5.44" height="6.49"/><rect class="cls-1" x="562.89" y="372.65" width="5.44" height="6.49"/><rect class="cls-1" x="568.33" y="372.65" width="5.44" height="6.49"/><rect class="cls-1" x="573.77" y="372.65" width="5.44" height="6.49"/><rect class="cls-1" x="579.2" y="372.65" width="5.44" height="6.49"/><rect class="cls-1" x="584.64" y="372.65" width="5.44" height="6.49"/><rect class="cls-1" x="590.08" y="372.65" width="5.44" height="6.49"/><rect class="cls-1" x="595.52" y="372.65" width="5.44" height="6.49"/></g><rect class="cls-13" x="86.14" y="300.44" width="80.64" height="117.52" rx="6.4"/><rect class="cls-21" x="154.04" y="376.34" width="4.18" height="31.8"/><rect class="cls-21" x="145.78" y="379.9" width="4.18" height="28.24"/><rect class="cls-21" x="136.81" y="384.54" width="4.18" height="23.6"/><rect class="cls-21" x="127.6" y="390.38" width="4.18" height="17.76"/><polygon class="cls-21" points="102.67 386.61 101.77 386.29 109.64 364.19 126.73 359.67 132.87 335.4 146.06 329.59 149.01 310.72 149.96 310.87 146.93 330.25 133.69 336.1 127.52 360.45 110.38 364.99 102.67 386.61"/><path class="cls-19" d="M129.11,358.44a2.56,2.56,0,1,1-3.6-.37A2.55,2.55,0,0,1,129.11,358.44Z"/><path class="cls-21" d="M129.05,362.42a3,3,0,1,1,.43-4.29A3,3,0,0,1,129.05,362.42Zm-3.24-4a2.08,2.08,0,1,0,2.93.29A2.09,2.09,0,0,0,125.81,358.45Z"/><path class="cls-19" d="M135.33,334.27a2.57,2.57,0,1,1-3.6-.36A2.56,2.56,0,0,1,135.33,334.27Z"/><path class="cls-21" d="M135.28,338.25a3,3,0,1,1,.43-4.28A3,3,0,0,1,135.28,338.25Zm-3.25-4a2.09,2.09,0,1,0,2.93.3A2.09,2.09,0,0,0,132,334.28Z"/><path class="cls-19" d="M148.32,328.29a2.56,2.56,0,1,1-3.61-.36A2.57,2.57,0,0,1,148.32,328.29Z"/><path class="cls-21" d="M148.26,332.27a3,3,0,1,1,.43-4.29A3.06,3.06,0,0,1,148.26,332.27Zm-3.25-4a2.08,2.08,0,1,0,2.94.29A2.08,2.08,0,0,0,145,328.3Z"/><path class="cls-19" d="M112.09,363.18a2.57,2.57,0,1,1-3.61-.36A2.56,2.56,0,0,1,112.09,363.18Z"/><path class="cls-21" d="M112,367.16a3,3,0,1,1,.43-4.28A3,3,0,0,1,112,367.16Zm-3.24-4a2.09,2.09,0,1,0,2.93.3A2.09,2.09,0,0,0,108.79,363.19Z"/><rect class="cls-22" x="94.71" y="333.8" width="25.67" height="5.32" rx="1.38"/><rect class="cls-22" x="94.71" y="324.5" width="25.67" height="5.32" rx="1.38"/><path class="cls-17" d="M76.28,343.39s-.74,7.35.61,9.19c0,0-3.59-.79-4.42-2S76.28,343.39,76.28,343.39Z"/><path class="cls-16" d="M98.7,366.84l1.51-1a4,4,0,0,1,1.64,0,4.38,4.38,0,0,1,1.82.68.68.68,0,0,1,.13.54,1.3,1.3,0,0,1-.28.6.77.77,0,0,1-.17.74.69.69,0,0,1-.29.71.57.57,0,0,1-.21.6,5.53,5.53,0,0,0-.92,0,10.63,10.63,0,0,1-3-.41S97.51,369,98.7,366.84Z"/><path class="cls-23" d="M100.92,367.44a3.62,3.62,0,0,1-.6.82c-.21.14,1,1.44,1,1.44S101.74,367.94,100.92,367.44Z"/><path class="cls-16" d="M97.93,367a5.46,5.46,0,0,0,1.33-.32c.5-.24-.1,2.55-.1,2.55a5.19,5.19,0,0,0-2-.87C96.33,368.29,97.93,367,97.93,367Z"/><path class="cls-24" d="M64,441.15a46.36,46.36,0,0,0,3.46,4.54s1.79.93,1.84,1.67c.11,1.4.18,2.23-2.17,2.29s-3.82,0-4.25-1.43a10.66,10.66,0,0,0-1.18-2.54l-.18,3.71H61s-.23-3.72-.27-4.25-.38-2.57.74-3.47A3.1,3.1,0,0,1,64,441.15Z"/><path class="cls-24" d="M67.77,445.88a5.91,5.91,0,0,1-2.78,0c-1.52-.38-3-4-3.41-4.3l-.39-1.46h3a5.11,5.11,0,0,0,.5,2A33.94,33.94,0,0,0,67.77,445.88Z"/><path class="cls-24" d="M80.6,439.75a9.93,9.93,0,0,0,1.11,1.86c.54.69,2.19,3.54,2.92,3.74s3,.59,3.18,1.85.3,2.15-1.92,2.25-3.68.24-4.74-1.32a11.42,11.42,0,0,0-2.75-2.68v4.06h-.86a37.32,37.32,0,0,0-.63-4.53c-.23-.29-.83-3.54,1.23-5.23S80.6,439.75,80.6,439.75Z"/><path class="cls-24" d="M84.63,445.35s-2,.49-2.75,0-3.35-4.87-4.21-5.14c0,0,.83-1.68,2.93-.46C80.6,439.75,84.07,444.62,84.63,445.35Z"/><path class="cls-25" d="M62.85,378.93a20.81,20.81,0,0,0-3.57,8c-.76,4.32.45,18.82.42,21s-1.88,8.78-1.49,12.81,2.48,20.82,2.48,20.82l4.86-.09s-1-18.12-.73-19.81,1-8.88,1.14-9.57,5.53-19.09,5.53-22.21S69.6,373.85,62.85,378.93Z"/><path class="cls-25" d="M76.92,380.36s4.6,17.57,5.15,20,1.64,5.61,1.59,6.06-.58,7.95-.58,7.95L81.77,439.9H76.92s-1.56-16.24-1.8-19.52,1.78-8.35,1.29-9.74-8-17.43-8-17.43S62.73,375.26,76.92,380.36Z"/><path class="cls-26" d="M75.5,354.06a5.6,5.6,0,0,1,3.23,1.67,21.44,21.44,0,0,1,3.06,4.66c.36.79,5.47,8.16,5.73,8.32s2.5-.42,4.29-.57a38.8,38.8,0,0,0,7.28-1.73l.65,3.3S89,373.18,86.53,372.57c-3-.75-10-9.7-10-9.7S71.32,356.78,75.5,354.06Z"/><path class="cls-26" d="M72.28,352.77a24.27,24.27,0,0,0,3.22,1.29c.82.17,4,4.34,4.6,5.87s0,3.8-1.16,6.48-.07,3.58-.6,6.27a74.84,74.84,0,0,0-.43,11.48c.1,1.49-15.33,4.3-18.41,1.59,0,0,2.09-6.88,4.56-9.46.53-.56.47-4.28.11-5.2s-4.47-7.85-4.47-7.85-.3-7,1.49-8.42c1.56-1.2,5.8-1.64,6.56-1.9A13.16,13.16,0,0,1,72.28,352.77Z"/><path class="cls-27" d="M73.05,358.09l1.44-1.7-1.25-4.47A28.91,28.91,0,0,0,73.05,358.09Z"/><path class="cls-16" d="M64,354.06a4.14,4.14,0,0,0-4.72,2.45c-1.73,3.32-1.3,5.1-1.69,6.59s-2,11.46-2.09,11.89-1.62,5.5-1.42,7.06,1.62,13.34,1.55,13.74,2.75-.38,2.75-.38-.11-12,0-13,.19-6.21.94-7.55,2.58-9.54,3-10.38S66.5,355.14,64,354.06Z"/><path class="cls-16" d="M73.42,350a57.05,57.05,0,0,0-.37,5.8s-2.48,2.48-5.3-2.9a7.35,7.35,0,0,0,.29-5.24C67.15,344.66,73.42,350,73.42,350Z"/><polygon class="cls-16" points="73.05 355.82 73.05 358.09 70.38 355.73 73.05 355.82"/><polygon class="cls-27" points="73.05 358.09 71.86 356.62 67.87 352.65 66.38 353.31 73.05 358.09"/><polygon class="cls-28" points="74.49 356.39 76.32 356.89 73.24 351.92 74.49 356.39"/><polygon class="cls-28" points="71.86 356.62 70.19 359.29 66.32 353.21 67.98 352.37 71.86 356.62"/><path class="cls-27" d="M80.36,367.4a20.36,20.36,0,0,0,0-6.37s-.35,1.94-1.2,5Z"/><path class="cls-27" d="M61.84,366.88l1.74-5.76a46.33,46.33,0,0,1-.74,7.5Z"/><polygon class="cls-29" points="123.25 339.54 97.3 372.23 98.2 372.93 123.25 339.54"/><path class="cls-30" d="M103.47,366.46s-2-.18-2,.13a.5.5,0,0,0,.1.47l-.84.28a.51.51,0,0,0,.23.85s-.46.42.23.67c0,0-.18.42.12.59a6.65,6.65,0,0,0,1.56.24s.27-.11.21-.6a.68.68,0,0,0,.29-.71.73.73,0,0,0,.17-.74s.6-.6.15-1.14Z"/><path class="cls-16" d="M100.27,365.83a6.66,6.66,0,0,1,1.58,1.39c.1.15.17.31.07.46s-.45.2-1-.09a4.78,4.78,0,0,0-1.29-.43S99.24,366.72,100.27,365.83Z"/><path class="cls-16" d="M71.41,335.13s4.39-.11,5.2,5.09-1.06,9.76-1.79,10.49-5.12.18-6.16-2.52-2.55-4.67-2.32-7S66,335,71.41,335.13Z"/><path class="cls-17" d="M76.8,342.18s1.17-6.48-4.66-7.64-7.87,2.83-8.42,5.2.1,9.05.1,9.05,3.88,3.41,6.21,4.29c0,0-2-7.11-1.22-12.21,0,0,4.74.74,7.88,0C76.69,340.84,76.79,341.9,76.8,342.18Z"/><path class="cls-18" d="M73.32,351a7.37,7.37,0,0,1-3.59-1.36,8.48,8.48,0,0,0,3.49,2.5A10.67,10.67,0,0,0,73.32,351Z"/><rect class="cls-31" x="48.62" y="385.77" width="17.18" height="12.7" transform="matrix(0.99, -0.16, 0.16, 0.99, -62.45, 14.34)"/><path class="cls-16" d="M55,399.55a2.2,2.2,0,0,1-.29-.67s0-.45,0-.77c0-.11,0-.19,0-.25a4.41,4.41,0,0,1-.2-1.33,29.23,29.23,0,0,1,.86-3.15l1.5.05,1.41-.15A28.46,28.46,0,0,1,60,397.1v.16a5.28,5.28,0,0,1-.28,1.08c0,.09-.22,1-.47,1.11a.92.92,0,0,1-.88,0,2.15,2.15,0,0,1-1.17.18,1.36,1.36,0,0,1-1.19,0S55.31,399.85,55,399.55Z"/><path class="cls-26" d="M64,354.06a4.14,4.14,0,0,0-4.72,2.45,15.08,15.08,0,0,0-2,6.34c-.21,1.53-2.31,10.6-2.41,11s-.79,6.1-.84,8.17c0,1.57.33,11.85.26,12.25s4.76-.7,4.76-.7-.54-9.48-.44-10.48.31-5.94.8-7.4c.57-1.71,2.82-10.32,3.22-11.17S66.5,355.14,64,354.06Z"/><path class="cls-32" d="M219.29,443.23l.31-2.91s-4.11,0-4.59.31l.4,2.81C215.45,443.81,219.29,443.23,219.29,443.23Z"/><path class="cls-33" d="M212.31,449.31c4.88,0,7.24.3,7.76-.5s-.75-5.84-.75-5.84a10.26,10.26,0,0,1-4,.16,10.2,10.2,0,0,1-2.39,2.12c-1.17.64-3,.9-3.72,1.56C208.75,447.29,207.42,449.36,212.31,449.31Z"/><path class="cls-32" d="M191.79,443.23l.31-2.91s-4.11,0-4.59.31c0,0,.35,2.45.39,2.81S191.79,443.23,191.79,443.23Z"/><path class="cls-33" d="M184.81,449.31c4.88-.12,7.24.3,7.76-.5s-.76-5.84-.76-5.84a9.24,9.24,0,0,1-3.95.16,10.2,10.2,0,0,1-2.39,2.12c-1.17.64-5.5,1.17-6.2,1.83C178.77,447.56,177.94,449.5,184.81,449.31Z"/><path class="cls-10" d="M213.65,377.5a36.2,36.2,0,0,1,1.77,11.3c-.27,5.23,1.06,10.95,1.6,16.41.61,6.09,3.08,20.51,3.17,23.77s-.39,13.66-.39,13.66l-4.94.11s-4.16-25.2-5.24-27.77-6.41-20.91-6.59-23S213.65,377.5,213.65,377.5Z"/><path class="cls-10" d="M192.85,378.58s-2.72,14.33-3.08,17.53-.59,15.49-.77,17.49-1.2,26.18-2.16,29.15h6.33S198,425.18,198,416.86s3.76-18.08,6.18-23.56,8-5.62,9.45-15.8C213.65,377.5,194.87,375.35,192.85,378.58Z"/><path class="cls-16" d="M205.7,329.6s-5-1.86-7.28,1.93-2.08,11.4.44,12.33,6.28.45,7.57-1.93a18.86,18.86,0,0,0,2.39-8.1A5,5,0,0,0,205.7,329.6Z"/><path class="cls-16" d="M199.69,343.63a4.22,4.22,0,0,1-.13,1.95c-.33.64,6.27.66,6.27.66a43.55,43.55,0,0,1,1.56-6.46C208.4,336.82,199.69,343.63,199.69,343.63Z"/><path class="cls-34" d="M207.39,339.78s-.46.75-2.32.46-4.13-2.77-4.91-3-.78-.73-.78-.73l-.49.71-.82.06s.75-2.22-.39-3.12,1.18-7.17,7.15-5.08c0,0,4.28.84,4.53,3.44A11.81,11.81,0,0,1,207.39,339.78Z"/><path class="cls-35" d="M199.17,345.5s0-1.23.58-1.34,6.15-.66,6.84-.39v1.43S205.27,346,199.17,345.5Z"/><path class="cls-16" d="M199.5,335.53c.1-.44,1.22-1.69,1.64-.35s-.64,3.13-1.24,3S199.24,336.63,199.5,335.53Z"/><path class="cls-1" d="M199.17,345.5s-3.07,1.11-6.62,2.62a7.44,7.44,0,0,0-4.53,6c-.24,2.39-2.79,15.11-3.27,16.19s-6.14,18.36-6.34,18.72,4.62,2.36,4.94,2.2,5.48-15.77,6-16.92c0,0,3-9.36,3.05-10.76,0,0,.08,4,.24,5.1s-2.64,22.78-2.56,23.38,12.73,1.36,17.79.8a62.34,62.34,0,0,0,9.15-1.72s-4-17.1-3.86-19c.27-4.13,1.65-11.91,1.65-11.91l4.12,7.78-5.28,13.59,1.21,4.13s9.82-14.84,10.14-16.19-.48-3.08-1-4.2-3.92-9.61-4.72-10.8-2.15-6-5.4-7.32a50.15,50.15,0,0,0-7.29-2Z"/><rect class="cls-31" x="170.98" y="377.55" width="23.88" height="16.66" transform="translate(101.57 -33.34) rotate(14.38)"/><path class="cls-36" d="M176.4,392.6s-.66,1.07-.9,1.37.59.5.95.19S176.4,392.6,176.4,392.6Z"/><path class="cls-37" d="M181.22,396.25a2.53,2.53,0,0,0,.47-.67s.12-.49.22-.83l.09-.26a4.58,4.58,0,0,0,.53-1.4c.1-.66.39-3.62.39-3.62l-1.79-.45-1.44-.31s-3.11,3.11-3.27,3.71a1.36,1.36,0,0,0,0,.17,6.44,6.44,0,0,0,0,1.24c0,.1,0,1.13.25,1.32a1,1,0,0,0,1,.23,2.38,2.38,0,0,0,1.24.47,1.51,1.51,0,0,0,1.29.24S180.82,396.5,181.22,396.25Z"/><path class="cls-1" d="M188.21,377.53s-4.1,12.44-4.86,13.74a13.5,13.5,0,0,1-4.94-2.2l4.51-13.41Z"/><rect class="cls-31" x="27.52" y="448.88" width="254.62" height="6.49"/><path class="cls-38" d="M525.36,434.77l.08-1.77c3.48.17,7,.27,10.55.29l0,1.77C532.43,435,528.86,434.93,525.36,434.77Zm21.19-1.58c3.46-.1,7-.26,10.55-.49l.11,1.77c-3.55.22-7.12.38-10.61.48Zm-42.35-.26.22-1.75c3.48.44,7,.82,10.49,1.12l-.15,1.76C511.25,433.75,507.7,433.37,504.2,432.93Zm63.43-1.07c3.58-.35,7.09-.81,10.44-1.35l.28,1.74c-3.38.55-6.93,1-10.55,1.37Zm-84.38-2.44.35-1.73c3.49.72,7,1.37,10.38,1.94l-.29,1.75C490.26,430.8,486.75,430.14,483.25,429.42Zm105.12-1c3.51-.84,6.9-1.83,10.09-2.92l.57,1.66c-3.24,1.12-6.68,2.12-10.24,3ZM462.6,424.5l.45-1.71c3.66,1,7,1.82,10.25,2.6l-.42,1.72C469.63,426.33,466.27,425.47,462.6,424.5Zm145.56-2.94a75.21,75.21,0,0,0,9.11-5.13l1,1.47a76.58,76.58,0,0,1-9.32,5.25ZM448,420.45l-5.8-1.64.48-1.7,5.81,1.64,4.38,1.24-.47,1.7Zm-88.4-1.83a105.35,105.35,0,0,1,9.86-4.1l.59,1.66a104.43,104.43,0,0,0-9.69,4Zm62.13-5,.36-1.72c3.16.65,6.55,1.44,10.35,2.41l-.44,1.71C428.21,415.1,424.85,414.31,421.71,413.66Zm-42-2.17a84.68,84.68,0,0,1,10.55-1.74l.18,1.75a83.36,83.36,0,0,0-10.33,1.72Zm21.2-.38,0-1.77a102.54,102.54,0,0,1,10.63.82l-.22,1.75A99,99,0,0,0,400.89,411.11ZM625.47,410a57.08,57.08,0,0,0,7-7.74l1.42,1.06a60,60,0,0,1-7.18,8Zm12.38-16.62a60.7,60.7,0,0,0,3.75-9.73l1.7.5a63.26,63.26,0,0,1-3.86,10Zm5.89-20a80.42,80.42,0,0,0,.7-10.45h1.77a84.11,84.11,0,0,1-.72,10.68Zm-1.38-31.33,1.73-.34c.7,3.55,1.24,7.1,1.59,10.56l-1.76.18C643.58,349.09,643.05,345.59,642.36,342.09Zm-5.88-20.15,1.63-.7a98.67,98.67,0,0,1,3.46,10.14l-1.69.49A92.52,92.52,0,0,0,636.48,321.94Z"/><polygon class="cls-39" points="298.9 439.59 343.27 426.68 329.97 422.67 298.9 439.59"/><polygon class="cls-40" points="298.9 439.59 315.48 422.93 325.69 425 298.9 439.59"/><polygon class="cls-41" points="333.07 429.65 332.71 434.78 298.9 439.59 333.07 429.65"/><polygon class="cls-13" points="456.86 266.33 445.4 372.87 596.23 372.87 607.68 266.33 456.86 266.33"/><path class="cls-42" d="M520.56,317c-1.21,5.93,1.56,11.5,6.19,12.45s9.35-3.1,10.57-9-1.56-11.51-6.18-12.45S521.78,311,520.56,317Z"/></svg>